SplineFontDB: 3.0
FontName: Topmarks-Book
FullName: Topmarks Book
FamilyName: Topmarks
Weight: Medium
Copyright: Copyright (c) 2012-13 by vernon adams. All rights reserved.
ItalicAngle: 0
UnderlinePosition: 0
UnderlineWidth: 0
Ascent: 1638
Descent: 410
UFOAscent: 1638
UFODescent: -410
LayerCount: 2
Layer: 0 0 "Back"  1
Layer: 1 0 "Fore"  0
FSType: 0
OS2Version: 0
OS2_WeightWidthSlopeOnly: 0
OS2_UseTypoMetrics: 0
CreationTime: 1359407021
ModificationTime: 1359407050
PfmFamily: 0
TTFWeight: 400
TTFWidth: 5
LineGap: 0
VLineGap: 0
OS2TypoAscent: 1638
OS2TypoAOffset: 0
OS2TypoDescent: -410
OS2TypoDOffset: 0
OS2TypoLinegap: 0
OS2WinAscent: 1638
OS2WinAOffset: 0
OS2WinDescent: 410
OS2WinDOffset: 0
HheadAscent: 0
HheadAOffset: 1
HheadDescent: 0
HheadDOffset: 1
OS2Vendor: 'newt'
DEI: 91125
LangName: 1033 "" "" "" "" "" "" "" "Topmarks is a trademark of vernon adams." "vernon adams" "vernon adams" "Copyright (c) 2011 by vernon adams. All rights reserved." 
Encoding: UnicodeBmp
UnicodeInterp: none
NameList: AGL For New Fonts
DisplaySize: -48
AntiAlias: 1
FitToEm: 1
WinInfo: 57 19 7
BeginPrivate: 7
BlueFuzz 1 1
BlueScale 8 0.039625
BlueShift 1 7
BlueValues 37 [-35 0 1026 1048 1449 1483 1490 1532]
OtherBlues 11 [-494 -457]
StemSnapH 20 [20 125 137 142 148]
StemSnapV 9 [165 172]
EndPrivate
BeginChars: 65545 333

StartChar: A
Encoding: 65 65 1
Width: 1425
VWidth: 0
GlyphClass: 2
Flags: HW
LayerCount: 2
UndoRedoHistory
Layer: 1
Undoes
EndUndoes
Redoes
EndRedoes
EndUndoRedoHistory
Fore
SplineSet
617 1456 m 1
 802 1456 l 1
 1407 0 l 1
 1216 0 l 1
 1059 395 l 1
 354 395 l 1
 199 0 l 1
 13 0 l 1
 617 1456 l 1
1005 531 m 1
 808 1027 l 1
 706 1298 l 1
 602 1026 l 1
 408 531 l 1
 1005 531 l 1
EndSplineSet
EndChar

StartChar: AE
Encoding: 198 198 2
Width: 2028
VWidth: 0
GlyphClass: 2
Flags: HW
LayerCount: 2
UndoRedoHistory
Layer: 1
Undoes
EndUndoes
Redoes
EndRedoes
EndUndoRedoHistory
Fore
SplineSet
506 546 m 1
 1054 546 l 1
 994 1308 l 1
 944 1308 l 1
 506 546 l 1
5 0 m 1
 836 1456 l 1
 1878 1456 l 1
 1878 1308 l 1
 1159 1308 l 1
 1197 820 l 1
 1837 820 l 1
 1837 672 l 1
 1216 672 l 1
 1257 148 l 1
 1901 148 l 1
 1901 0 l 1
 1104 0 l 1
 1073 398 l 1
 427 398 l 1
 201 0 l 1
 5 0 l 1
EndSplineSet
EndChar

StartChar: Aacute
Encoding: 193 193 3
Width: 1425
VWidth: 0
GlyphClass: 2
Flags: HW
LayerCount: 2
UndoRedoHistory
Layer: 1
Undoes
EndUndoes
Redoes
EndRedoes
EndUndoRedoHistory
Fore
SplineSet
632 1602 m 1
 858 1922 l 1
 1070 1922 l 1
 762 1602 l 1
 632 1602 l 1
707 1298 m 1
 692 1252 670 1191 655 1149 c 1
 410 545 l 1
 994 545 l 1
 760 1150 l 1
 742 1192 721 1252 707 1298 c 1
617 1456 m 1
 802 1456 l 1
 1407 0 l 1
 1216 0 l 1
 1053 397 l 1
 355 397 l 1
 199 0 l 1
 13 0 l 1
 617 1456 l 1
EndSplineSet
EndChar

StartChar: Abreve
Encoding: 258 258 4
Width: 1425
VWidth: 0
GlyphClass: 2
Flags: HW
LayerCount: 2
UndoRedoHistory
Layer: 1
Undoes
EndUndoes
Redoes
EndRedoes
EndUndoRedoHistory
Fore
SplineSet
431 1884 m 1
 518 1884 l 1
 533 1796 606 1755 708 1755 c 0
 810 1755 889 1800 909 1884 c 1
 995 1884 l 1
 982 1730 881 1648 715 1648 c 0
 544 1648 444 1724 431 1884 c 1
707 1298 m 1
 692 1252 670 1191 655 1149 c 1
 410 545 l 1
 994 545 l 1
 760 1150 l 1
 742 1192 721 1252 707 1298 c 1
617 1456 m 1
 802 1456 l 1
 1407 0 l 1
 1216 0 l 1
 1053 397 l 1
 355 397 l 1
 199 0 l 1
 13 0 l 1
 617 1456 l 1
EndSplineSet
EndChar

StartChar: Acircumflex
Encoding: 194 194 5
Width: 1425
VWidth: 0
GlyphClass: 2
Flags: HW
LayerCount: 2
UndoRedoHistory
Layer: 1
Undoes
EndUndoes
Redoes
EndRedoes
EndUndoRedoHistory
Fore
SplineSet
406 1600 m 1
 634 1924 l 1
 791 1924 l 1
 1020 1600 l 1
 888 1600 l 1
 710 1816 l 1
 532 1600 l 1
 406 1600 l 1
707 1298 m 1
 692 1252 670 1191 655 1149 c 1
 410 545 l 1
 994 545 l 1
 760 1150 l 1
 742 1192 721 1252 707 1298 c 1
617 1456 m 1
 802 1456 l 1
 1407 0 l 1
 1216 0 l 1
 1053 397 l 1
 355 397 l 1
 199 0 l 1
 13 0 l 1
 617 1456 l 1
EndSplineSet
EndChar

StartChar: Adieresis
Encoding: 196 196 6
Width: 1425
VWidth: 0
GlyphClass: 2
Flags: HW
LayerCount: 2
UndoRedoHistory
Layer: 1
Undoes
EndUndoes
Redoes
EndRedoes
EndUndoRedoHistory
Fore
SplineSet
797 1613 m 1
 797 1776 l 1
 961 1776 l 1
 961 1613 l 1
 797 1613 l 1
465 1613 m 1
 465 1776 l 1
 629 1776 l 1
 629 1613 l 1
 465 1613 l 1
707 1298 m 1
 692 1252 670 1191 655 1149 c 1
 410 545 l 1
 994 545 l 1
 760 1150 l 1
 742 1192 721 1252 707 1298 c 1
617 1456 m 1
 802 1456 l 1
 1407 0 l 1
 1216 0 l 1
 1053 397 l 1
 355 397 l 1
 199 0 l 1
 13 0 l 1
 617 1456 l 1
EndSplineSet
EndChar

StartChar: Agrave
Encoding: 192 192 7
Width: 1425
VWidth: 0
GlyphClass: 2
Flags: HW
LayerCount: 2
UndoRedoHistory
Layer: 1
Undoes
EndUndoes
Redoes
EndRedoes
EndUndoRedoHistory
Fore
SplineSet
678 1602 m 1
 346 1922 l 1
 560 1922 l 1
 807 1602 l 1
 678 1602 l 1
707 1298 m 1
 692 1252 670 1191 655 1149 c 1
 410 545 l 1
 994 545 l 1
 760 1150 l 1
 742 1192 721 1252 707 1298 c 1
617 1456 m 1
 802 1456 l 1
 1407 0 l 1
 1216 0 l 1
 1053 397 l 1
 355 397 l 1
 199 0 l 1
 13 0 l 1
 617 1456 l 1
EndSplineSet
EndChar

StartChar: Amacron
Encoding: 256 256 8
Width: 1425
VWidth: 0
GlyphClass: 2
Flags: HW
LayerCount: 2
UndoRedoHistory
Layer: 1
Undoes
EndUndoes
Redoes
EndRedoes
EndUndoRedoHistory
Fore
SplineSet
427 1613 m 1
 427 1747 l 1
 999 1747 l 1
 999 1613 l 1
 427 1613 l 1
707 1298 m 1
 692 1252 670 1191 655 1149 c 1
 410 545 l 1
 994 545 l 1
 760 1150 l 1
 742 1192 721 1252 707 1298 c 1
617 1456 m 1
 802 1456 l 1
 1407 0 l 1
 1216 0 l 1
 1053 397 l 1
 355 397 l 1
 199 0 l 1
 13 0 l 1
 617 1456 l 1
EndSplineSet
EndChar

StartChar: Aogonek
Encoding: 260 260 9
Width: 1425
VWidth: 0
GlyphClass: 2
Flags: HW
LayerCount: 2
UndoRedoHistory
Layer: 1
Undoes
EndUndoes
Redoes
EndRedoes
EndUndoRedoHistory
Fore
SplineSet
1016 -296 m 0
 1005 -276 999 -252 999 -225 c 0
 999 -167 1033 -122 1066 -89 c 0
 1105 -50 1159 -15 1212 11 c 1
 1053 397 l 1
 355 397 l 1
 199 0 l 1
 13 0 l 1
 617 1456 l 1
 802 1456 l 1
 1407 0 l 1
 1343 0 l 1
 1274 -42 1197 -86 1155 -151 c 0
 1145 -167 1140 -183 1140 -199 c 0
 1140 -250 1189 -281 1240 -281 c 0
 1304 -281 1348 -268 1394 -250 c 1
 1394 -361 l 1
 1348 -380 1281 -390 1217 -390 c 0
 1123 -390 1050 -357 1016 -296 c 0
707 1298 m 1
 692 1252 670 1191 655 1149 c 1
 410 545 l 1
 994 545 l 1
 760 1150 l 1
 742 1192 721 1252 707 1298 c 1
EndSplineSet
EndChar

StartChar: Aring
Encoding: 197 197 10
Width: 1425
VWidth: 0
GlyphClass: 2
Flags: HW
LayerCount: 2
UndoRedoHistory
Layer: 1
Undoes
EndUndoes
Redoes
EndRedoes
EndUndoRedoHistory
Fore
SplineSet
823 1770 m 0
 823 1832 774 1875 712 1875 c 0
 652 1875 602 1830 602 1770 c 0
 602 1706 647 1665 712 1665 c 0
 772 1665 823 1710 823 1770 c 0
519 1694 m 0
 508 1717 503 1742 503 1769 c 0
 503 1861 563 1920 631 1946 c 0
 656 1956 684 1960 713 1960 c 0
 808 1960 877 1910 907 1844 c 0
 918 1821 923 1796 923 1770 c 0
 923 1679 861 1620 794 1594 c 0
 769 1584 742 1579 714 1579 c 0
 619 1579 550 1629 519 1694 c 0
707 1298 m 1
 692 1252 670 1191 655 1149 c 1
 410 545 l 1
 994 545 l 1
 760 1150 l 1
 742 1192 721 1252 707 1298 c 1
617 1456 m 1
 802 1456 l 1
 1407 0 l 1
 1216 0 l 1
 1053 397 l 1
 355 397 l 1
 199 0 l 1
 13 0 l 1
 617 1456 l 1
EndSplineSet
EndChar

StartChar: Atilde
Encoding: 195 195 11
Width: 1425
VWidth: 0
GlyphClass: 2
Flags: HW
LayerCount: 2
UndoRedoHistory
Layer: 1
Undoes
EndUndoes
Redoes
EndRedoes
EndUndoRedoHistory
Fore
SplineSet
590 1843 m 0
 666 1843 723 1807 781 1786 c 0
 801 1779 821 1775 840 1775 c 0
 893 1775 920 1814 927 1865 c 1
 1035 1865 l 1
 1022 1752 964 1650 840 1650 c 0
 744 1650 682 1718 587 1718 c 0
 533 1718 503 1690 496 1633 c 1
 391 1633 l 1
 401 1749 466 1843 590 1843 c 0
707 1298 m 1
 692 1252 670 1191 655 1149 c 1
 410 545 l 1
 994 545 l 1
 760 1150 l 1
 742 1192 721 1252 707 1298 c 1
617 1456 m 1
 802 1456 l 1
 1407 0 l 1
 1216 0 l 1
 1053 397 l 1
 355 397 l 1
 199 0 l 1
 13 0 l 1
 617 1456 l 1
EndSplineSet
EndChar

StartChar: B
Encoding: 66 66 12
Width: 1297
VWidth: 0
GlyphClass: 2
Flags: HW
LayerCount: 2
UndoRedoHistory
Layer: 1
Undoes
EndUndoes
Redoes
EndRedoes
EndUndoRedoHistory
Fore
SplineSet
585 1308 m 2
 346 1308 l 1
 346 825 l 1
 569 825 l 2
 851 825 962 898 962 1077 c 0
 962 1243 858 1308 585 1308 c 2
599 684 m 2
 346 684 l 1
 346 148 l 1
 645 148 l 2
 913 148 1030 221 1030 406 c 0
 1030 602 908 684 599 684 c 2
174 1456 m 1
 585 1456 l 2
 960 1456 1143 1357 1143 1105 c 0
 1143 918 1068 823 908 769 c 1
 1106 730 1212 625 1212 403 c 0
 1212 114 998 0 651 0 c 2
 174 0 l 1
 174 1456 l 1
EndSplineSet
EndChar

StartChar: C
Encoding: 67 67 13
Width: 1391
VWidth: 0
GlyphClass: 2
Flags: HW
LayerCount: 2
UndoRedoHistory
Layer: 1
Undoes
EndUndoes
Redoes
EndRedoes
EndUndoRedoHistory
Fore
SplineSet
818 1483 m 0
 1038 1483 1171 1414 1281 1332 c 1
 1202 1206 l 1
 1101 1283 974 1331 837 1331 c 0
 483 1331 295 1076 295 725 c 0
 295 382 465 130 821 130 c 0
 1002 130 1137 179 1238 267 c 1
 1295 127 l 1
 1176 31 1017 -22 816 -22 c 0
 375 -22 112 287 112 726 c 0
 112 1168 390 1483 818 1483 c 0
EndSplineSet
EndChar

StartChar: Cacute
Encoding: 262 262 14
Width: 1391
VWidth: 0
GlyphClass: 2
Flags: HW
LayerCount: 2
UndoRedoHistory
Layer: 1
Undoes
EndUndoes
Redoes
EndRedoes
EndUndoRedoHistory
Fore
SplineSet
720 1602 m 1
 946 1922 l 1
 1158 1922 l 1
 850 1602 l 1
 720 1602 l 1
818 1483 m 0
 1038 1483 1171 1414 1281 1332 c 1
 1202 1206 l 1
 1101 1283 974 1331 837 1331 c 0
 483 1331 295 1076 295 725 c 0
 295 382 465 130 821 130 c 0
 1002 130 1137 179 1238 267 c 1
 1295 127 l 1
 1176 31 1017 -22 816 -22 c 0
 375 -22 112 287 112 726 c 0
 112 1168 390 1483 818 1483 c 0
EndSplineSet
EndChar

StartChar: Ccaron
Encoding: 268 268 15
Width: 1391
VWidth: 0
GlyphClass: 2
Flags: HW
LayerCount: 2
UndoRedoHistory
Layer: 1
Undoes
EndUndoes
Redoes
EndRedoes
EndUndoRedoHistory
Fore
SplineSet
723 1600 m 1
 484 1923 l 1
 631 1923 l 1
 795 1708 l 1
 963 1923 l 1
 1117 1923 l 1
 879 1600 l 1
 723 1600 l 1
818 1483 m 0
 1038 1483 1171 1414 1281 1332 c 1
 1202 1206 l 1
 1101 1283 974 1331 837 1331 c 0
 483 1331 295 1076 295 725 c 0
 295 382 465 130 821 130 c 0
 1002 130 1137 179 1238 267 c 1
 1295 127 l 1
 1176 31 1017 -22 816 -22 c 0
 375 -22 112 287 112 726 c 0
 112 1168 390 1483 818 1483 c 0
EndSplineSet
EndChar

StartChar: Ccedilla
Encoding: 199 199 16
Width: 1391
VWidth: 0
GlyphClass: 2
Flags: HW
LayerCount: 2
UndoRedoHistory
Layer: 1
Undoes
EndUndoes
Redoes
EndRedoes
EndUndoRedoHistory
Fore
SplineSet
634 -374 m 1
 642 -289 l 1
 692 -301 739 -313 793 -313 c 0
 859 -313 907 -297 907 -241 c 0
 907 -182 858 -168 798 -168 c 0
 789 -168 772 -170 761 -171 c 2
 729 -173 l 1
 756 -20 l 1
 352 7 112 307 112 726 c 0
 112 1168 390 1483 818 1483 c 0
 1038 1483 1171 1414 1281 1332 c 1
 1202 1206 l 1
 1101 1283 974 1331 837 1331 c 0
 483 1331 295 1076 295 725 c 0
 295 382 465 130 821 130 c 0
 1002 130 1137 179 1238 267 c 1
 1295 127 l 1
 1183 37 1037 -15 853 -21 c 1
 841 -90 l 1
 850 -90 l 1
 954 -95 1050 -131 1050 -239 c 0
 1050 -359 930 -396 809 -396 c 0
 749 -396 688 -385 634 -374 c 1
EndSplineSet
EndChar

StartChar: D
Encoding: 68 68 17
Width: 1523
VWidth: 0
GlyphClass: 2
Flags: HW
LayerCount: 2
UndoRedoHistory
Layer: 1
Undoes
EndUndoes
Redoes
EndRedoes
EndUndoRedoHistory
Fore
SplineSet
510 1308 m 2
 346 1308 l 1
 346 148 l 1
 607 148 l 2
 992 148 1229 341 1229 721 c 0
 1229 1170 960 1308 510 1308 c 2
174 1456 m 1
 489 1456 l 2
 1037 1456 1411 1273 1411 724 c 0
 1411 241 1076 0 591 0 c 2
 174 0 l 1
 174 1456 l 1
EndSplineSet
EndChar

StartChar: Delta
Encoding: 916 916 18
Width: 1314
VWidth: 0
GlyphClass: 2
Flags: HW
LayerCount: 2
UndoRedoHistory
Layer: 1
Undoes
EndUndoes
Redoes
EndRedoes
EndUndoRedoHistory
Fore
SplineSet
269 162 m 1
 1033 162 l 1
 681 1111 l 1
 647 1218 l 1
 615 1111 l 1
 269 162 l 1
40 0 m 1
 40 80 l 1
 561 1429 l 1
 743 1429 l 1
 1263 80 l 1
 1263 0 l 1
 40 0 l 1
EndSplineSet
EndChar

StartChar: E
Encoding: 69 69 19
Width: 1187
VWidth: 0
GlyphClass: 2
Flags: HW
LayerCount: 2
UndoRedoHistory
Layer: 1
Undoes
EndUndoes
Redoes
EndRedoes
EndUndoRedoHistory
Fore
SplineSet
174 1456 m 1
 1041 1456 l 1
 1041 1308 l 1
 346 1308 l 1
 346 820 l 1
 1003 820 l 1
 1003 672 l 1
 346 672 l 1
 346 148 l 1
 1091 148 l 1
 1091 0 l 1
 174 0 l 1
 174 1456 l 1
EndSplineSet
EndChar

StartChar: Eacute
Encoding: 201 201 20
Width: 1187
VWidth: 0
GlyphClass: 2
Flags: HW
LayerCount: 2
UndoRedoHistory
Layer: 1
Undoes
EndUndoes
Redoes
EndRedoes
EndUndoRedoHistory
Fore
SplineSet
562 1602 m 1
 788 1922 l 1
 1000 1922 l 1
 692 1602 l 1
 562 1602 l 1
174 1456 m 1
 1041 1456 l 1
 1041 1308 l 1
 346 1308 l 1
 346 820 l 1
 1003 820 l 1
 1003 672 l 1
 346 672 l 1
 346 148 l 1
 1091 148 l 1
 1091 0 l 1
 174 0 l 1
 174 1456 l 1
EndSplineSet
EndChar

StartChar: Ecircumflex
Encoding: 202 202 21
Width: 1187
VWidth: 0
GlyphClass: 2
Flags: HW
LayerCount: 2
UndoRedoHistory
Layer: 1
Undoes
EndUndoes
Redoes
EndRedoes
EndUndoRedoHistory
Fore
SplineSet
336 1600 m 1
 564 1924 l 1
 721 1924 l 1
 950 1600 l 1
 818 1600 l 1
 640 1816 l 1
 462 1600 l 1
 336 1600 l 1
174 1456 m 1
 1041 1456 l 1
 1041 1308 l 1
 346 1308 l 1
 346 820 l 1
 1003 820 l 1
 1003 672 l 1
 346 672 l 1
 346 148 l 1
 1091 148 l 1
 1091 0 l 1
 174 0 l 1
 174 1456 l 1
EndSplineSet
EndChar

StartChar: Edieresis
Encoding: 203 203 22
Width: 1187
VWidth: 0
GlyphClass: 2
Flags: HW
LayerCount: 2
UndoRedoHistory
Layer: 1
Undoes
EndUndoes
Redoes
EndRedoes
EndUndoRedoHistory
Fore
SplineSet
727 1613 m 1
 727 1776 l 1
 891 1776 l 1
 891 1613 l 1
 727 1613 l 1
395 1613 m 1
 395 1776 l 1
 559 1776 l 1
 559 1613 l 1
 395 1613 l 1
174 1456 m 1
 1041 1456 l 1
 1041 1308 l 1
 346 1308 l 1
 346 820 l 1
 1003 820 l 1
 1003 672 l 1
 346 672 l 1
 346 148 l 1
 1091 148 l 1
 1091 0 l 1
 174 0 l 1
 174 1456 l 1
EndSplineSet
EndChar

StartChar: Egrave
Encoding: 200 200 23
Width: 1187
VWidth: 0
GlyphClass: 2
Flags: HW
LayerCount: 2
UndoRedoHistory
Layer: 1
Undoes
EndUndoes
Redoes
EndRedoes
EndUndoRedoHistory
Fore
SplineSet
608 1602 m 1
 276 1922 l 1
 490 1922 l 1
 737 1602 l 1
 608 1602 l 1
174 1456 m 1
 1041 1456 l 1
 1041 1308 l 1
 346 1308 l 1
 346 820 l 1
 1003 820 l 1
 1003 672 l 1
 346 672 l 1
 346 148 l 1
 1091 148 l 1
 1091 0 l 1
 174 0 l 1
 174 1456 l 1
EndSplineSet
EndChar

StartChar: Emacron
Encoding: 274 274 24
Width: 1187
VWidth: 0
GlyphClass: 2
Flags: HW
LayerCount: 2
UndoRedoHistory
Layer: 1
Undoes
EndUndoes
Redoes
EndRedoes
EndUndoRedoHistory
Fore
SplineSet
357 1613 m 1
 357 1747 l 1
 929 1747 l 1
 929 1613 l 1
 357 1613 l 1
174 1456 m 1
 1041 1456 l 1
 1041 1308 l 1
 346 1308 l 1
 346 820 l 1
 1003 820 l 1
 1003 672 l 1
 346 672 l 1
 346 148 l 1
 1091 148 l 1
 1091 0 l 1
 174 0 l 1
 174 1456 l 1
EndSplineSet
EndChar

StartChar: Eogonek
Encoding: 280 280 25
Width: 1187
VWidth: 0
GlyphClass: 2
Flags: HW
LayerCount: 2
UndoRedoHistory
Layer: 1
Undoes
EndUndoes
Redoes
EndRedoes
EndUndoRedoHistory
Fore
SplineSet
799 -296 m 0
 788 -276 782 -252 782 -225 c 0
 782 -167 816 -122 849 -89 c 0
 883 -55 927 -24 973 -0 c 1
 174 0 l 1
 174 1456 l 1
 1041 1456 l 1
 1041 1308 l 1
 346 1308 l 1
 346 820 l 1
 1003 820 l 1
 1003 672 l 1
 346 672 l 1
 346 148 l 1
 1091 148 l 1
 1091 3 l 1
 1126 0 l 1
 1057 -42 980 -86 938 -151 c 0
 928 -167 923 -183 923 -199 c 0
 923 -250 972 -281 1023 -281 c 0
 1087 -281 1131 -268 1177 -250 c 1
 1177 -361 l 1
 1131 -380 1064 -390 1000 -390 c 0
 906 -390 833 -357 799 -296 c 0
EndSplineSet
EndChar

StartChar: Eth
Encoding: 208 208 26
Width: 1546
VWidth: 0
GlyphClass: 2
Flags: HW
LayerCount: 2
UndoRedoHistory
Layer: 1
Undoes
EndUndoes
Redoes
EndRedoes
EndUndoRedoHistory
Fore
SplineSet
193 0 m 1
 193 658 l 1
 -1 658 l 1
 -1 795 l 1
 193 795 l 1
 193 1456 l 1
 508 1456 l 2
 1056 1456 1430 1273 1430 724 c 0
 1430 359 1234 144 956 51 c 0
 854 17 739 0 610 0 c 2
 193 0 l 1
365 148 m 1
 626 148 l 2
 929 148 1131 268 1210 490 c 0
 1235 560 1248 638 1248 721 c 0
 1248 1048 1107 1218 840 1278 c 0
 750 1298 647 1308 529 1308 c 2
 365 1308 l 1
 365 795 l 1
 571 795 l 1
 571 658 l 1
 365 658 l 1
 365 148 l 1
EndSplineSet
EndChar

StartChar: Euro
Encoding: 8364 8364 27
Width: 1190
VWidth: 0
GlyphClass: 2
Flags: HW
LayerCount: 2
UndoRedoHistory
Layer: 1
Undoes
EndUndoes
Redoes
EndRedoes
EndUndoRedoHistory
Fore
SplineSet
213 516 m 1
 78 516 l 1
 98 654 l 1
 200 654 l 1
 198 672 197 694 197 719 c 0
 197 741 198 761 199 784 c 1
 75 784 l 1
 97 922 l 1
 218 922 l 1
 260 1153 376 1330 569 1409 c 0
 632 1435 704 1448 783 1448 c 0
 928 1448 1028 1404 1106 1330 c 1
 1070 1141 l 1
 1009 1232 914 1303 776 1303 c 0
 541 1303 437 1116 395 922 c 1
 987 922 l 1
 967 784 l 1
 377 784 l 1
 376 781 375 777 375 773 c 2
 375 761 l 1
 374 742 375 720 376 702 c 2
 378 654 l 1
 953 654 l 1
 934 516 l 1
 392 516 l 1
 422 297 520 125 767 125 c 0
 900 125 995 184 1084 253 c 1
 1083 75 l 1
 994 14 890 -21 751 -21 c 0
 407 -21 251 209 213 516 c 1
EndSplineSet
EndChar

StartChar: F
Encoding: 70 70 28
Width: 1103
VWidth: 0
GlyphClass: 2
Flags: HW
LayerCount: 2
UndoRedoHistory
Layer: 1
Undoes
EndUndoes
Redoes
EndRedoes
EndUndoRedoHistory
Fore
SplineSet
174 1456 m 1
 1017 1456 l 1
 1017 1308 l 1
 346 1308 l 1
 346 815 l 1
 983 815 l 1
 983 667 l 1
 346 667 l 1
 346 0 l 1
 174 0 l 1
 174 1456 l 1
EndSplineSet
EndChar

StartChar: G
Encoding: 71 71 29
Width: 1512
VWidth: 0
GlyphClass: 2
Flags: HW
LayerCount: 2
UndoRedoHistory
Layer: 1
Undoes
EndUndoes
Redoes
EndRedoes
EndUndoRedoHistory
Fore
SplineSet
856 1483 m 0
 1067 1483 1207 1431 1323 1315 c 1
 1251 1198 l 1
 1159 1286 1024 1331 852 1331 c 0
 495 1331 290 1069 290 714 c 0
 290 344 488 130 859 130 c 0
 980 130 1086 142 1176 178 c 1
 1176 608 l 1
 815 608 l 1
 815 757 l 1
 1348 757 l 1
 1348 81 l 1
 1203 13 1044 -22 845 -22 c 0
 380 -22 112 239 112 701 c 0
 112 1165 392 1483 856 1483 c 0
EndSplineSet
EndChar

StartChar: Gcommaaccent
Encoding: 290 290 30
Width: 1512
VWidth: 0
GlyphClass: 2
Flags: HW
LayerCount: 2
UndoRedoHistory
Layer: 1
Undoes
EndUndoes
Redoes
EndRedoes
EndUndoRedoHistory
Fore
SplineSet
614 -625 m 1
 721 -162 l 1
 908 -162 l 1
 745 -625 l 1
 614 -625 l 1
856 1483 m 0
 1067 1483 1207 1431 1323 1315 c 1
 1251 1198 l 1
 1159 1286 1024 1331 852 1331 c 0
 495 1331 290 1069 290 714 c 0
 290 344 488 130 859 130 c 0
 980 130 1086 142 1176 178 c 1
 1176 608 l 1
 815 608 l 1
 815 757 l 1
 1348 757 l 1
 1348 81 l 1
 1203 13 1044 -22 845 -22 c 0
 380 -22 112 239 112 701 c 0
 112 1165 392 1483 856 1483 c 0
EndSplineSet
EndChar

StartChar: H
Encoding: 72 72 31
Width: 1493
VWidth: 0
GlyphClass: 2
Flags: HW
LayerCount: 2
UndoRedoHistory
Layer: 1
Undoes
EndUndoes
Redoes
EndRedoes
EndUndoRedoHistory
Fore
SplineSet
1319 1456 m 1
 1319 0 l 1
 1148 0 l 1
 1148 674 l 1
 346 674 l 1
 346 0 l 1
 174 0 l 1
 174 1456 l 1
 346 1456 l 1
 346 822 l 1
 1148 822 l 1
 1148 1456 l 1
 1319 1456 l 1
EndSplineSet
EndChar

StartChar: I
Encoding: 73 73 32
Width: 544
VWidth: 0
GlyphClass: 2
Flags: HW
LayerCount: 2
UndoRedoHistory
Layer: 1
Undoes
EndUndoes
Redoes
EndRedoes
EndUndoRedoHistory
Fore
SplineSet
186 1456 m 1
 358 1456 l 1
 358 0 l 1
 186 0 l 1
 186 1456 l 1
EndSplineSet
EndChar

StartChar: IJ
Encoding: 306 306 33
Width: 1585
VWidth: 0
GlyphClass: 2
Flags: HW
LayerCount: 2
UndoRedoHistory
Layer: 1
Undoes
EndUndoes
Redoes
EndRedoes
EndUndoRedoHistory
Fore
SplineSet
708 1456 m 1
 1571 1456 l 1
 1571 1314 l 1
 1299 1314 l 1
 1299 336 l 2
 1299 -176 940 -285 585 -114 c 1
 637 22 l 1
 934 -111 1127 -35 1127 334 c 2
 1127 1314 l 1
 708 1314 l 1
 708 1456 l 1
186 1456 m 1
 358 1456 l 1
 358 0 l 1
 186 0 l 1
 186 1456 l 1
EndSplineSet
EndChar

StartChar: Iacute
Encoding: 205 205 34
Width: 544
VWidth: 0
GlyphClass: 2
Flags: HW
LayerCount: 2
UndoRedoHistory
Layer: 1
Undoes
EndUndoes
Redoes
EndRedoes
EndUndoRedoHistory
Fore
SplineSet
191 1602 m 1
 417 1922 l 1
 629 1922 l 1
 321 1602 l 1
 191 1602 l 1
186 1456 m 1
 358 1456 l 1
 358 0 l 1
 186 0 l 1
 186 1456 l 1
EndSplineSet
EndChar

StartChar: Icircumflex
Encoding: 206 206 35
Width: 544
VWidth: 0
GlyphClass: 2
Flags: HW
LayerCount: 2
UndoRedoHistory
Layer: 1
Undoes
EndUndoes
Redoes
EndRedoes
EndUndoRedoHistory
Fore
SplineSet
-35 1600 m 1
 193 1924 l 1
 350 1924 l 1
 579 1600 l 1
 447 1600 l 1
 269 1816 l 1
 91 1600 l 1
 -35 1600 l 1
186 1456 m 1
 358 1456 l 1
 358 0 l 1
 186 0 l 1
 186 1456 l 1
EndSplineSet
EndChar

StartChar: Idieresis
Encoding: 207 207 36
Width: 544
VWidth: 0
GlyphClass: 2
Flags: HW
LayerCount: 2
UndoRedoHistory
Layer: 1
Undoes
EndUndoes
Redoes
EndRedoes
EndUndoRedoHistory
Fore
SplineSet
356 1613 m 1
 356 1776 l 1
 520 1776 l 1
 520 1613 l 1
 356 1613 l 1
24 1613 m 1
 24 1776 l 1
 188 1776 l 1
 188 1613 l 1
 24 1613 l 1
186 1456 m 1
 358 1456 l 1
 358 0 l 1
 186 0 l 1
 186 1456 l 1
EndSplineSet
EndChar

StartChar: Igrave
Encoding: 204 204 37
Width: 544
VWidth: 0
GlyphClass: 2
Flags: HW
LayerCount: 2
UndoRedoHistory
Layer: 1
Undoes
EndUndoes
Redoes
EndRedoes
EndUndoRedoHistory
Fore
SplineSet
237 1602 m 1
 -95 1922 l 1
 119 1922 l 1
 366 1602 l 1
 237 1602 l 1
186 1456 m 1
 358 1456 l 1
 358 0 l 1
 186 0 l 1
 186 1456 l 1
EndSplineSet
EndChar

StartChar: Imacron
Encoding: 298 298 38
Width: 544
VWidth: 0
GlyphClass: 2
Flags: HW
LayerCount: 2
UndoRedoHistory
Layer: 1
Undoes
EndUndoes
Redoes
EndRedoes
EndUndoRedoHistory
Fore
SplineSet
-14 1613 m 1
 -14 1747 l 1
 558 1747 l 1
 558 1613 l 1
 -14 1613 l 1
186 1456 m 1
 358 1456 l 1
 358 0 l 1
 186 0 l 1
 186 1456 l 1
EndSplineSet
EndChar

StartChar: Iogonek
Encoding: 302 302 39
Width: 544
VWidth: 0
GlyphClass: 2
Flags: HW
LayerCount: 2
UndoRedoHistory
Layer: 1
Undoes
EndUndoes
Redoes
EndRedoes
EndUndoRedoHistory
Fore
SplineSet
43 -296 m 0
 32 -276 26 -252 26 -225 c 0
 26 -167 60 -122 93 -89 c 0
 127 -55 171 -24 217 0 c 1
 186 0 l 1
 186 1456 l 1
 358 1456 l 1
 358 1 l 1
 370 0 l 1
 301 -42 224 -86 182 -151 c 0
 172 -167 167 -183 167 -199 c 0
 167 -250 216 -281 267 -281 c 0
 331 -281 375 -268 421 -250 c 1
 421 -361 l 1
 375 -380 308 -390 244 -390 c 0
 150 -390 77 -357 43 -296 c 0
EndSplineSet
EndChar

StartChar: Itilde
Encoding: 296 296 40
Width: 544
VWidth: 0
GlyphClass: 2
Flags: HW
LayerCount: 2
UndoRedoHistory
Layer: 1
Undoes
EndUndoes
Redoes
EndRedoes
EndUndoRedoHistory
Fore
SplineSet
149 1843 m 0
 225 1843 282 1807 340 1786 c 0
 360 1779 380 1775 399 1775 c 0
 452 1775 479 1814 486 1865 c 1
 594 1865 l 1
 581 1752 523 1650 399 1650 c 0
 303 1650 241 1718 146 1718 c 0
 92 1718 62 1690 55 1633 c 1
 -50 1633 l 1
 -40 1749 25 1843 149 1843 c 0
186 1456 m 1
 358 1456 l 1
 358 0 l 1
 186 0 l 1
 186 1456 l 1
EndSplineSet
EndChar

StartChar: J
Encoding: 74 74 41
Width: 1041
VWidth: 0
GlyphClass: 2
Flags: HW
LayerCount: 2
UndoRedoHistory
Layer: 1
Undoes
EndUndoes
Redoes
EndRedoes
EndUndoRedoHistory
Fore
SplineSet
164 1456 m 1
 1027 1456 l 1
 1027 1314 l 1
 755 1314 l 1
 755 336 l 2
 755 -176 396 -285 41 -114 c 1
 93 22 l 1
 390 -111 583 -35 583 334 c 2
 583 1314 l 1
 164 1314 l 1
 164 1456 l 1
EndSplineSet
EndChar

StartChar: J.alt
Encoding: 65537 -1 42
Width: 939
VWidth: 0
GlyphClass: 2
Flags: HW
LayerCount: 2
UndoRedoHistory
Layer: 1
Undoes
EndUndoes
Redoes
EndRedoes
EndUndoRedoHistory
Fore
SplineSet
71 81 m 1
 122 197 l 1
 176 156 237 125 326 125 c 0
 517 125 583 296 583 488 c 2
 583 1456 l 1
 755 1456 l 1
 755 499 l 2
 755 256 671 82 502 11 c 0
 448 -12 388 -23 321 -23 c 0
 208 -23 131 21 71 81 c 1
EndSplineSet
EndChar

StartChar: Jcircumflex
Encoding: 308 308 43
Width: 1041
VWidth: 0
GlyphClass: 2
Flags: HW
LayerCount: 2
UndoRedoHistory
Layer: 1
Undoes
EndUndoes
Redoes
EndRedoes
EndUndoRedoHistory
Fore
SplineSet
303 1600 m 1
 531 1924 l 1
 688 1924 l 1
 917 1600 l 1
 785 1600 l 1
 607 1816 l 1
 429 1600 l 1
 303 1600 l 1
164 1456 m 1
 1027 1456 l 1
 1027 1314 l 1
 755 1314 l 1
 755 336 l 2
 755 -176 396 -285 41 -114 c 1
 93 22 l 1
 390 -111 583 -35 583 334 c 2
 583 1314 l 1
 164 1314 l 1
 164 1456 l 1
EndSplineSet
EndChar

StartChar: K
Encoding: 75 75 44
Width: 1246
VWidth: 0
GlyphClass: 2
Flags: HW
LayerCount: 2
UndoRedoHistory
Layer: 1
Undoes
EndUndoes
Redoes
EndRedoes
EndUndoRedoHistory
Fore
SplineSet
990 1456 m 1
 1202 1456 l 1
 531 764 l 1
 1242 0 l 1
 1024 0 l 1
 346 725 l 1
 346 0 l 1
 174 0 l 1
 174 1456 l 1
 346 1456 l 1
 346 796 l 1
 990 1456 l 1
EndSplineSet
EndChar

StartChar: L
Encoding: 76 76 45
Width: 1069
VWidth: 0
GlyphClass: 2
Flags: HW
LayerCount: 2
UndoRedoHistory
Layer: 1
Undoes
EndUndoes
Redoes
EndRedoes
EndUndoRedoHistory
Fore
SplineSet
174 1456 m 1
 346 1456 l 1
 346 148 l 1
 1045 148 l 1
 1045 0 l 1
 174 0 l 1
 174 1456 l 1
EndSplineSet
EndChar

StartChar: Ldot
Encoding: 319 319 46
Width: 1069
VWidth: 0
GlyphClass: 2
Flags: HW
LayerCount: 2
UndoRedoHistory
Layer: 1
Undoes
EndUndoes
Redoes
EndRedoes
EndUndoRedoHistory
Fore
SplineSet
640 1132 m 1
 640 1342 l 1
 857 1342 l 1
 857 1132 l 1
 640 1132 l 1
174 1456 m 1
 346 1456 l 1
 346 148 l 1
 1045 148 l 1
 1045 0 l 1
 174 0 l 1
 174 1456 l 1
EndSplineSet
EndChar

StartChar: Lslash
Encoding: 321 321 47
Width: 1120
VWidth: 0
GlyphClass: 2
Flags: HW
LayerCount: 2
UndoRedoHistory
Layer: 1
Undoes
EndUndoes
Redoes
EndRedoes
EndUndoRedoHistory
Fore
SplineSet
202 0 m 1
 202 605 l 1
 15 489 l 1
 15 626 l 1
 202 742 l 1
 202 1456 l 1
 374 1456 l 1
 374 849 l 1
 659 1027 l 1
 659 890 l 1
 374 712 l 1
 374 148 l 1
 1073 148 l 1
 1073 0 l 1
 202 0 l 1
EndSplineSet
EndChar

StartChar: M
Encoding: 77 77 48
Width: 1944
VWidth: 0
GlyphClass: 2
Flags: HW
LayerCount: 2
UndoRedoHistory
Layer: 1
Undoes
EndUndoes
Redoes
EndRedoes
EndUndoRedoHistory
Fore
SplineSet
1536 1456 m 1
 1770 1456 l 1
 1770 0 l 1
 1602 0 l 1
 1602 1251 l 1
 1534 1096 l 1
 1034 110 l 1
 908 110 l 1
 404 1108 l 1
 344 1268 l 1
 344 0 l 1
 174 0 l 1
 174 1456 l 1
 412 1456 l 1
 887 526 l 1
 973 322 l 1
 1058 529 l 1
 1536 1456 l 1
EndSplineSet
EndChar

StartChar: N
Encoding: 78 78 49
Width: 1570
VWidth: 0
GlyphClass: 2
Flags: HW
LayerCount: 2
UndoRedoHistory
Layer: 1
Undoes
EndUndoes
Redoes
EndRedoes
EndUndoRedoHistory
Fore
SplineSet
1225 1456 m 1
 1396 1456 l 1
 1396 0 l 1
 1188 0 l 1
 418 1113 l 1
 346 1237 l 1
 346 0 l 1
 174 0 l 1
 174 1456 l 1
 380 1456 l 1
 1147 342 l 1
 1225 215 l 1
 1225 1456 l 1
EndSplineSet
EndChar

StartChar: Nacute
Encoding: 323 323 50
Width: 1570
VWidth: 0
GlyphClass: 2
Flags: HW
LayerCount: 2
UndoRedoHistory
Layer: 1
Undoes
EndUndoes
Redoes
EndRedoes
EndUndoRedoHistory
Fore
SplineSet
714 1602 m 1
 940 1922 l 1
 1152 1922 l 1
 844 1602 l 1
 714 1602 l 1
1225 1456 m 1
 1396 1456 l 1
 1396 0 l 1
 1188 0 l 1
 418 1113 l 1
 346 1237 l 1
 346 0 l 1
 174 0 l 1
 174 1456 l 1
 380 1456 l 1
 1147 342 l 1
 1225 215 l 1
 1225 1456 l 1
EndSplineSet
EndChar

StartChar: Ntilde
Encoding: 209 209 51
Width: 1570
VWidth: 0
GlyphClass: 2
Flags: HW
LayerCount: 2
UndoRedoHistory
Layer: 1
Undoes
EndUndoes
Redoes
EndRedoes
EndUndoRedoHistory
Fore
SplineSet
672 1843 m 0
 748 1843 805 1807 863 1786 c 0
 883 1779 903 1775 922 1775 c 0
 975 1775 1002 1814 1009 1865 c 1
 1117 1865 l 1
 1104 1752 1046 1650 922 1650 c 0
 826 1650 764 1718 669 1718 c 0
 615 1718 585 1690 578 1633 c 1
 473 1633 l 1
 483 1749 548 1843 672 1843 c 0
1225 1456 m 1
 1396 1456 l 1
 1396 0 l 1
 1188 0 l 1
 418 1113 l 1
 346 1237 l 1
 346 0 l 1
 174 0 l 1
 174 1456 l 1
 380 1456 l 1
 1147 342 l 1
 1225 215 l 1
 1225 1456 l 1
EndSplineSet
EndChar

StartChar: O
Encoding: 79 79 52
Width: 1660
VWidth: 0
GlyphClass: 2
Flags: HW
LayerCount: 2
UndoRedoHistory
Layer: 1
Undoes
EndUndoes
Redoes
EndRedoes
EndUndoRedoHistory
Fore
SplineSet
830 1331 m 0
 552 1331 296 1128 296 729 c 0
 296 330 552 127 830 127 c 0
 1108 127 1364 330 1364 729 c 0
 1364 1128 1108 1331 830 1331 c 0
830 1483 m 0
 1304 1483 1548 1122 1548 728 c 0
 1548 336 1304 -25 830 -25 c 0
 356 -25 112 336 112 728 c 0
 112 1122 356 1483 830 1483 c 0
EndSplineSet
EndChar

StartChar: OE
Encoding: 338 338 53
Width: 2099
VWidth: 0
GlyphClass: 2
Flags: HW
LayerCount: 2
UndoRedoHistory
Layer: 1
Undoes
EndUndoes
Redoes
EndRedoes
EndUndoRedoHistory
Fore
SplineSet
1151 265 m 1
 1151 1219 l 1
 1072 1288 972 1335 830 1335 c 0
 467 1335 298 1082 298 725 c 0
 298 356 492 125 827 125 c 0
 973 125 1075 186 1151 265 c 1
114 729 m 0
 114 1208 401 1483 837 1483 c 0
 968 1483 1069 1439 1151 1381 c 1
 1151 1456 l 1
 1954 1456 l 1
 1954 1308 l 1
 1323 1308 l 1
 1323 820 l 1
 1916 820 l 1
 1916 672 l 1
 1323 672 l 1
 1323 148 l 1
 1984 148 l 1
 1984 0 l 1
 1151 0 l 1
 1151 105 l 1
 1070 32 970 -23 829 -23 c 0
 352 -23 114 288 114 729 c 0
EndSplineSet
EndChar

StartChar: Oacute
Encoding: 211 211 54
Width: 1660
VWidth: 0
GlyphClass: 2
Flags: HW
LayerCount: 2
UndoRedoHistory
Layer: 1
Undoes
EndUndoes
Redoes
EndRedoes
EndUndoRedoHistory
Fore
SplineSet
746 146 m 1
 972 466 l 1
 1184 466 l 1
 876 146 l 1
 746 146 l 1
830 1331 m 0
 552 1331 296 1128 296 729 c 0
 296 330 552 127 830 127 c 0
 1108 127 1364 330 1364 729 c 0
 1364 1128 1108 1331 830 1331 c 0
830 1483 m 0
 1304 1483 1548 1122 1548 728 c 0
 1548 336 1304 -25 830 -25 c 0
 356 -25 112 336 112 728 c 0
 112 1122 356 1483 830 1483 c 0
EndSplineSet
EndChar

StartChar: Ocircumflex
Encoding: 212 212 55
Width: 1660
VWidth: 0
GlyphClass: 2
Flags: HW
LayerCount: 2
UndoRedoHistory
Layer: 1
Undoes
EndUndoes
Redoes
EndRedoes
EndUndoRedoHistory
Fore
SplineSet
830 1331 m 0
 552 1331 296 1128 296 729 c 0
 296 468 405 291 559 200 c 1
 748 468 l 1
 905 468 l 1
 1097 197 l 1
 1253 288 1364 466 1364 729 c 0
 1364 1128 1108 1331 830 1331 c 0
830 1483 m 0
 1304 1483 1548 1122 1548 728 c 0
 1548 336 1304 -25 830 -25 c 0
 356 -25 112 336 112 728 c 0
 112 1122 356 1483 830 1483 c 0
655 155 m 1
 711 136 770 127 830 127 c 0
 887 127 942 135 995 152 c 1
 824 360 l 1
 655 155 l 1
EndSplineSet
EndChar

StartChar: Odieresis
Encoding: 214 214 56
Width: 1660
VWidth: 0
GlyphClass: 2
Flags: HW
LayerCount: 2
UndoRedoHistory
Layer: 1
Undoes
EndUndoes
Redoes
EndRedoes
EndUndoRedoHistory
Fore
SplineSet
830 1331 m 0
 552 1331 296 1128 296 729 c 0
 296 457 415 276 579 188 c 1
 579 320 l 1
 743 320 l 1
 743 157 l 1
 650 157 l 1
 707 137 768 127 830 127 c 0
 892 127 953 137 1010 157 c 1
 911 157 l 1
 911 320 l 1
 1075 320 l 1
 1075 185 l 1
 1242 271 1364 454 1364 729 c 0
 1364 1128 1108 1331 830 1331 c 0
830 1483 m 0
 1304 1483 1548 1122 1548 728 c 0
 1548 336 1304 -25 830 -25 c 0
 356 -25 112 336 112 728 c 0
 112 1122 356 1483 830 1483 c 0
EndSplineSet
EndChar

StartChar: Ograve
Encoding: 210 210 57
Width: 1660
VWidth: 0
GlyphClass: 2
Flags: HW
LayerCount: 2
UndoRedoHistory
Layer: 1
Undoes
EndUndoes
Redoes
EndRedoes
EndUndoRedoHistory
Fore
SplineSet
792 146 m 1
 460 466 l 1
 674 466 l 1
 921 146 l 1
 792 146 l 1
830 1331 m 0
 552 1331 296 1128 296 729 c 0
 296 330 552 127 830 127 c 0
 1108 127 1364 330 1364 729 c 0
 1364 1128 1108 1331 830 1331 c 0
830 1483 m 0
 1304 1483 1548 1122 1548 728 c 0
 1548 336 1304 -25 830 -25 c 0
 356 -25 112 336 112 728 c 0
 112 1122 356 1483 830 1483 c 0
EndSplineSet
EndChar

StartChar: Oslash
Encoding: 216 216 58
Width: 1663
VWidth: 0
GlyphClass: 2
Flags: HW
LayerCount: 2
UndoRedoHistory
Layer: 1
Undoes
EndUndoes
Redoes
EndRedoes
EndUndoRedoHistory
Fore
SplineSet
830 1483 m 0
 915 1483 993 1471 1063 1450 c 1
 1137 1625 l 1
 1262 1581 l 1
 1185 1399 l 1
 1425 1270 1548 1007 1548 728 c 0
 1548 336 1304 -25 830 -25 c 0
 744 -25 666 -13 595 9 c 1
 521 -165 l 1
 400 -121 l 1
 476 58 l 1
 235 187 112 450 112 728 c 0
 112 1122 356 1483 830 1483 c 0
1001 1304 m 1
 946 1322 889 1331 830 1331 c 0
 552 1331 296 1128 296 729 c 0
 296 479 396 305 540 211 c 1
 1001 1304 l 1
1120 1246 m 1
 657 155 l 1
 712 136 770 127 830 127 c 0
 1108 127 1364 330 1364 729 c 0
 1364 979 1263 1152 1120 1246 c 1
EndSplineSet
EndChar

StartChar: Otilde
Encoding: 213 213 59
Width: 1660
VWidth: 0
GlyphClass: 2
Flags: HW
LayerCount: 2
UndoRedoHistory
Layer: 1
Undoes
EndUndoes
Redoes
EndRedoes
EndUndoRedoHistory
Fore
SplineSet
830 1331 m 0
 552 1331 296 1128 296 729 c 0
 296 494 385 328 514 230 c 1
 537 320 600 387 704 387 c 0
 780 387 837 351 895 330 c 0
 915 323 935 319 954 319 c 0
 1007 319 1034 358 1041 409 c 1
 1149 409 l 1
 1136 296 1078 194 954 194 c 0
 858 194 796 262 701 262 c 0
 647 262 617 234 610 177 c 1
 602 177 l 1
 673 144 750 127 830 127 c 0
 1108 127 1364 330 1364 729 c 0
 1364 1128 1108 1331 830 1331 c 0
830 1483 m 0
 1304 1483 1548 1122 1548 728 c 0
 1548 336 1304 -25 830 -25 c 0
 356 -25 112 336 112 728 c 0
 112 1122 356 1483 830 1483 c 0
EndSplineSet
EndChar

StartChar: P
Encoding: 80 80 60
Width: 1239
VWidth: 0
GlyphClass: 2
Flags: HW
LayerCount: 2
UndoRedoHistory
Layer: 1
Undoes
EndUndoes
Redoes
EndRedoes
EndUndoRedoHistory
Fore
SplineSet
587 1308 m 2
 346 1308 l 1
 346 736 l 1
 607 736 l 2
 858 736 987 832 987 1018 c 0
 987 1215 878 1308 587 1308 c 2
174 1456 m 1
 563 1456 l 2
 995 1456 1171 1316 1171 1020 c 0
 1171 734 973 587 588 587 c 2
 346 587 l 1
 346 0 l 1
 174 0 l 1
 174 1456 l 1
EndSplineSet
EndChar

StartChar: Q
Encoding: 81 81 61
Width: 1648
VWidth: 0
GlyphClass: 2
Flags: HW
LayerCount: 2
UndoRedoHistory
Layer: 1
Undoes
EndUndoes
Redoes
EndRedoes
EndUndoRedoHistory
Fore
SplineSet
823 1334 m 0
 477 1334 291 1081 291 736 c 0
 291 389 477 123 823 123 c 0
 1178 123 1348 382 1348 736 c 0
 1348 1087 1174 1334 823 1334 c 0
830 1483 m 0
 1278 1483 1536 1183 1536 736 c 0
 1536 374 1355 124 1092 20 c 1
 1155 -110 1243 -213 1341 -304 c 1
 1229 -422 l 1
 1112 -305 1003 -176 927 -13 c 1
 896 -19 860 -22 822 -22 c 0
 369 -22 112 282 112 736 c 0
 112 1183 385 1483 830 1483 c 0
EndSplineSet
EndChar

StartChar: R
Encoding: 82 82 62
Width: 1320
VWidth: 0
GlyphClass: 2
Flags: HW
LayerCount: 2
UndoRedoHistory
Layer: 1
Undoes
EndUndoes
Redoes
EndRedoes
EndUndoRedoHistory
Fore
SplineSet
623 1308 m 2
 346 1308 l 1
 346 799 l 1
 612 799 l 2
 809 799 986 859 986 1058 c 0
 986 1261 826 1308 623 1308 c 2
174 1456 m 1
 530 1456 l 2
 865 1456 1168 1410 1168 1074 c 0
 1168 867 1024 758 858 715 c 1
 994 670 1039 546 1093 410 c 2
 1256 0 l 1
 1068 0 l 1
 915 419 l 2
 862 564 812 652 616 652 c 2
 346 652 l 1
 346 0 l 1
 174 0 l 1
 174 1456 l 1
EndSplineSet
EndChar

StartChar: Racute
Encoding: 340 340 63
Width: 1320
VWidth: 0
GlyphClass: 2
Flags: HW
LayerCount: 2
UndoRedoHistory
Layer: 1
Undoes
EndUndoes
Redoes
EndRedoes
EndUndoRedoHistory
Fore
SplineSet
578 1602 m 1
 804 1922 l 1
 1016 1922 l 1
 708 1602 l 1
 578 1602 l 1
623 1308 m 2
 346 1308 l 1
 346 799 l 1
 612 799 l 2
 809 799 986 859 986 1058 c 0
 986 1261 826 1308 623 1308 c 2
174 1456 m 1
 530 1456 l 2
 865 1456 1168 1410 1168 1074 c 0
 1168 867 1024 758 858 715 c 1
 994 670 1039 546 1093 410 c 2
 1256 0 l 1
 1068 0 l 1
 915 419 l 2
 862 564 812 652 616 652 c 2
 346 652 l 1
 346 0 l 1
 174 0 l 1
 174 1456 l 1
EndSplineSet
EndChar

StartChar: Rcaron
Encoding: 344 344 64
Width: 1320
VWidth: 0
GlyphClass: 2
Flags: HW
LayerCount: 2
UndoRedoHistory
Layer: 1
Undoes
EndUndoes
Redoes
EndRedoes
EndUndoRedoHistory
Fore
SplineSet
581 1600 m 1
 342 1923 l 1
 489 1923 l 1
 653 1708 l 1
 821 1923 l 1
 975 1923 l 1
 737 1600 l 1
 581 1600 l 1
623 1308 m 2
 346 1308 l 1
 346 799 l 1
 612 799 l 2
 809 799 986 859 986 1058 c 0
 986 1261 826 1308 623 1308 c 2
174 1456 m 1
 530 1456 l 2
 865 1456 1168 1410 1168 1074 c 0
 1168 867 1024 758 858 715 c 1
 994 670 1039 546 1093 410 c 2
 1256 0 l 1
 1068 0 l 1
 915 419 l 2
 862 564 812 652 616 652 c 2
 346 652 l 1
 346 0 l 1
 174 0 l 1
 174 1456 l 1
EndSplineSet
EndChar

StartChar: Rcommaaccent
Encoding: 342 342 65
Width: 1320
VWidth: 0
GlyphClass: 2
Flags: HW
LayerCount: 2
UndoRedoHistory
Layer: 1
Undoes
EndUndoes
Redoes
EndRedoes
EndUndoRedoHistory
Fore
SplineSet
512 -625 m 1
 619 -162 l 1
 806 -162 l 1
 643 -625 l 1
 512 -625 l 1
623 1308 m 2
 346 1308 l 1
 346 799 l 1
 612 799 l 2
 809 799 986 859 986 1058 c 0
 986 1261 826 1308 623 1308 c 2
174 1456 m 1
 530 1456 l 2
 865 1456 1168 1410 1168 1074 c 0
 1168 867 1024 758 858 715 c 1
 994 670 1039 546 1093 410 c 2
 1256 0 l 1
 1068 0 l 1
 915 419 l 2
 862 564 812 652 616 652 c 2
 346 652 l 1
 346 0 l 1
 174 0 l 1
 174 1456 l 1
EndSplineSet
EndChar

StartChar: S
Encoding: 83 83 66
Width: 1229
VWidth: 0
GlyphClass: 2
Flags: HW
LayerCount: 2
UndoRedoHistory
Layer: 1
Undoes
EndUndoes
Redoes
EndRedoes
EndUndoRedoHistory
Fore
SplineSet
636 1483 m 0
 773 1483 930 1456 1085 1359 c 1
 1033 1218 l 1
 921 1288 780 1334 656 1334 c 0
 441 1334 330 1262 324 1120 c 0
 318 983 370 905 676 817 c 0
 1052 709 1135 578 1135 395 c 0
 1135 166 990 -22 664 -22 c 0
 486 -22 280 35 146 123 c 1
 174 289 l 1
 305 187 503 123 649 123 c 0
 855 123 951 230 951 401 c 0
 951 500 911 572 566 671 c 0
 224 769 137 902 141 1109 c 0
 145 1339 344 1483 636 1483 c 0
EndSplineSet
EndChar

StartChar: Sacute
Encoding: 346 346 67
Width: 1229
VWidth: 0
GlyphClass: 2
Flags: HW
LayerCount: 2
UndoRedoHistory
Layer: 1
Undoes
EndUndoes
Redoes
EndRedoes
EndUndoRedoHistory
Fore
SplineSet
559 1602 m 1
 785 1922 l 1
 997 1922 l 1
 689 1602 l 1
 559 1602 l 1
636 1483 m 0
 773 1483 930 1456 1085 1359 c 1
 1033 1218 l 1
 921 1288 780 1334 656 1334 c 0
 441 1334 330 1262 324 1120 c 0
 318 983 370 905 676 817 c 0
 1052 709 1135 578 1135 395 c 0
 1135 166 990 -22 664 -22 c 0
 486 -22 280 35 146 123 c 1
 174 289 l 1
 305 187 503 123 649 123 c 0
 855 123 951 230 951 401 c 0
 951 500 911 572 566 671 c 0
 224 769 137 902 141 1109 c 0
 145 1339 344 1483 636 1483 c 0
EndSplineSet
EndChar

StartChar: Scaron
Encoding: 352 352 68
Width: 1229
VWidth: 0
GlyphClass: 2
Flags: HW
LayerCount: 2
UndoRedoHistory
Layer: 1
Undoes
EndUndoes
Redoes
EndRedoes
EndUndoRedoHistory
Fore
SplineSet
562 1600 m 1
 323 1923 l 1
 470 1923 l 1
 634 1708 l 1
 802 1923 l 1
 956 1923 l 1
 718 1600 l 1
 562 1600 l 1
636 1483 m 0
 773 1483 930 1456 1085 1359 c 1
 1033 1218 l 1
 921 1288 780 1334 656 1334 c 0
 441 1334 330 1262 324 1120 c 0
 318 983 370 905 676 817 c 0
 1052 709 1135 578 1135 395 c 0
 1135 166 990 -22 664 -22 c 0
 486 -22 280 35 146 123 c 1
 174 289 l 1
 305 187 503 123 649 123 c 0
 855 123 951 230 951 401 c 0
 951 500 911 572 566 671 c 0
 224 769 137 902 141 1109 c 0
 145 1339 344 1483 636 1483 c 0
EndSplineSet
EndChar

StartChar: Scommaaccent
Encoding: 536 536 69
Width: 1229
VWidth: 0
GlyphClass: 2
Flags: HW
LayerCount: 2
UndoRedoHistory
Layer: 1
Undoes
EndUndoes
Redoes
EndRedoes
EndUndoRedoHistory
Fore
SplineSet
475 -625 m 1
 582 -162 l 1
 769 -162 l 1
 606 -625 l 1
 475 -625 l 1
636 1483 m 0
 773 1483 930 1456 1085 1359 c 1
 1033 1218 l 1
 921 1288 780 1334 656 1334 c 0
 441 1334 330 1262 324 1120 c 0
 318 983 370 905 676 817 c 0
 1052 709 1135 578 1135 395 c 0
 1135 166 990 -22 664 -22 c 0
 486 -22 280 35 146 123 c 1
 174 289 l 1
 305 187 503 123 649 123 c 0
 855 123 951 230 951 401 c 0
 951 500 911 572 566 671 c 0
 224 769 137 902 141 1109 c 0
 145 1339 344 1483 636 1483 c 0
EndSplineSet
EndChar

StartChar: T
Encoding: 84 84 70
Width: 1161
VWidth: 0
GlyphClass: 2
Flags: HW
LayerCount: 2
UndoRedoHistory
Layer: 1
Undoes
EndUndoes
Redoes
EndRedoes
EndUndoRedoHistory
Fore
SplineSet
24 1456 m 1
 1137 1456 l 1
 1137 1308 l 1
 665 1308 l 1
 665 0 l 1
 493 0 l 1
 493 1308 l 1
 24 1308 l 1
 24 1456 l 1
EndSplineSet
EndChar

StartChar: Thorn
Encoding: 222 222 71
Width: 1274
VWidth: 0
GlyphClass: 2
Flags: HW
LayerCount: 2
UndoRedoHistory
Layer: 1
Undoes
EndUndoes
Redoes
EndRedoes
EndUndoRedoHistory
Fore
SplineSet
375 592 m 1
 636 592 l 2
 802 592 930 639 988 747 c 0
 1007 782 1016 825 1016 874 c 0
 1016 1114 828 1164 588 1164 c 2
 375 1164 l 1
 375 592 l 1
203 0 m 1
 203 1456 l 1
 375 1456 l 1
 375 1312 l 1
 544 1312 l 2
 899 1312 1200 1231 1200 876 c 0
 1200 714 1121 611 1018 546 c 0
 913 480 764 443 597 443 c 2
 375 443 l 1
 375 0 l 1
 203 0 l 1
EndSplineSet
EndChar

StartChar: U
Encoding: 85 85 72
Width: 1473
VWidth: 0
GlyphClass: 2
Flags: HW
LayerCount: 2
UndoRedoHistory
Layer: 1
Undoes
EndUndoes
Redoes
EndRedoes
EndUndoRedoHistory
Fore
SplineSet
1138 1456 m 1
 1309 1456 l 1
 1309 551 l 1
 1307 191 1111 -22 749 -22 c 0
 365 -22 164 157 164 541 c 2
 164 1456 l 1
 336 1456 l 1
 336 546 l 2
 336 260 475 123 747 123 c 0
 999 123 1138 279 1138 539 c 2
 1138 1456 l 1
EndSplineSet
EndChar

StartChar: Uacute
Encoding: 218 218 73
Width: 1473
VWidth: 0
GlyphClass: 2
Flags: HW
LayerCount: 2
UndoRedoHistory
Layer: 1
Undoes
EndUndoes
Redoes
EndRedoes
EndUndoRedoHistory
Fore
SplineSet
658 1602 m 1
 884 1922 l 1
 1096 1922 l 1
 788 1602 l 1
 658 1602 l 1
1138 1456 m 1
 1309 1456 l 1
 1309 551 l 1
 1307 191 1111 -22 749 -22 c 0
 365 -22 164 157 164 541 c 2
 164 1456 l 1
 336 1456 l 1
 336 546 l 2
 336 260 475 123 747 123 c 0
 999 123 1138 279 1138 539 c 2
 1138 1456 l 1
EndSplineSet
EndChar

StartChar: Ucircumflex
Encoding: 219 219 74
Width: 1473
VWidth: 0
GlyphClass: 2
Flags: HW
LayerCount: 2
UndoRedoHistory
Layer: 1
Undoes
EndUndoes
Redoes
EndRedoes
EndUndoRedoHistory
Fore
SplineSet
432 1600 m 1
 660 1924 l 1
 817 1924 l 1
 1046 1600 l 1
 914 1600 l 1
 736 1816 l 1
 558 1600 l 1
 432 1600 l 1
1138 1456 m 1
 1309 1456 l 1
 1309 551 l 1
 1307 191 1111 -22 749 -22 c 0
 365 -22 164 157 164 541 c 2
 164 1456 l 1
 336 1456 l 1
 336 546 l 2
 336 260 475 123 747 123 c 0
 999 123 1138 279 1138 539 c 2
 1138 1456 l 1
EndSplineSet
EndChar

StartChar: Udieresis
Encoding: 220 220 75
Width: 1473
VWidth: 0
GlyphClass: 2
Flags: HW
LayerCount: 2
UndoRedoHistory
Layer: 1
Undoes
EndUndoes
Redoes
EndRedoes
EndUndoRedoHistory
Fore
SplineSet
823 1613 m 1
 823 1776 l 1
 987 1776 l 1
 987 1613 l 1
 823 1613 l 1
491 1613 m 1
 491 1776 l 1
 655 1776 l 1
 655 1613 l 1
 491 1613 l 1
1138 1456 m 1
 1309 1456 l 1
 1309 551 l 1
 1307 191 1111 -22 749 -22 c 0
 365 -22 164 157 164 541 c 2
 164 1456 l 1
 336 1456 l 1
 336 546 l 2
 336 260 475 123 747 123 c 0
 999 123 1138 279 1138 539 c 2
 1138 1456 l 1
EndSplineSet
EndChar

StartChar: Ugrave
Encoding: 217 217 76
Width: 1473
VWidth: 0
GlyphClass: 2
Flags: HW
LayerCount: 2
UndoRedoHistory
Layer: 1
Undoes
EndUndoes
Redoes
EndRedoes
EndUndoRedoHistory
Fore
SplineSet
704 1602 m 1
 372 1922 l 1
 586 1922 l 1
 833 1602 l 1
 704 1602 l 1
1138 1456 m 1
 1309 1456 l 1
 1309 551 l 1
 1307 191 1111 -22 749 -22 c 0
 365 -22 164 157 164 541 c 2
 164 1456 l 1
 336 1456 l 1
 336 546 l 2
 336 260 475 123 747 123 c 0
 999 123 1138 279 1138 539 c 2
 1138 1456 l 1
EndSplineSet
EndChar

StartChar: V
Encoding: 86 86 77
Width: 1336
VWidth: 0
GlyphClass: 2
Flags: HW
LayerCount: 2
UndoRedoHistory
Layer: 1
Undoes
EndUndoes
Redoes
EndRedoes
EndUndoRedoHistory
Fore
SplineSet
1141 1456 m 1
 1324 1456 l 1
 767 1 l 1
 581 1 l 1
 13 1456 l 1
 201 1456 l 1
 626 325 l 1
 672 184 l 1
 720 324 l 1
 1141 1456 l 1
EndSplineSet
EndChar

StartChar: W
Encoding: 87 87 78
Width: 2095
VWidth: 0
GlyphClass: 2
Flags: HW
LayerCount: 2
UndoRedoHistory
Layer: 1
Undoes
EndUndoes
Redoes
EndRedoes
EndUndoRedoHistory
Fore
SplineSet
1897 1456 m 1
 2077 1456 l 1
 1654 0 l 1
 1442 0 l 1
 1049 1247 l 1
 654 1 l 1
 441 1 l 1
 18 1456 l 1
 204 1456 l 1
 514 349 l 1
 552 189 l 1
 602 349 l 1
 964 1456 l 1
 1145 1456 l 1
 1504 345 l 1
 1550 190 l 1
 1592 349 l 1
 1897 1456 l 1
EndSplineSet
EndChar

StartChar: X
Encoding: 88 88 79
Width: 1304
VWidth: 0
GlyphClass: 2
Flags: HW
LayerCount: 2
UndoRedoHistory
Layer: 1
Undoes
EndUndoes
Redoes
EndRedoes
EndUndoRedoHistory
Fore
SplineSet
1079 1456 m 1
 1275 1456 l 1
 764 742 l 1
 1285 0 l 1
 1084 0 l 1
 648 623 l 1
 215 0 l 1
 11 0 l 1
 548 741 l 1
 50 1456 l 1
 258 1456 l 1
 662 854 l 1
 1079 1456 l 1
EndSplineSet
EndChar

StartChar: Y
Encoding: 89 89 80
Width: 1256
VWidth: 0
GlyphClass: 2
Flags: HW
LayerCount: 2
UndoRedoHistory
Layer: 1
Undoes
EndUndoes
Redoes
EndRedoes
EndUndoRedoHistory
Fore
SplineSet
1061 1456 m 1
 1252 1456 l 1
 709 585 l 1
 709 0 l 1
 537 0 l 1
 537 582 l 1
 4 1456 l 1
 195 1456 l 1
 626 727 l 1
 1061 1456 l 1
EndSplineSet
EndChar

StartChar: Yacute
Encoding: 221 221 81
Width: 1256
VWidth: 0
GlyphClass: 2
Flags: HW
LayerCount: 2
UndoRedoHistory
Layer: 1
Undoes
EndUndoes
Redoes
EndRedoes
EndUndoRedoHistory
Fore
SplineSet
546 1602 m 1
 772 1922 l 1
 984 1922 l 1
 676 1602 l 1
 546 1602 l 1
1061 1456 m 1
 1252 1456 l 1
 709 585 l 1
 709 0 l 1
 537 0 l 1
 537 582 l 1
 4 1456 l 1
 195 1456 l 1
 626 727 l 1
 1061 1456 l 1
EndSplineSet
EndChar

StartChar: Ydieresis
Encoding: 376 376 82
Width: 1256
VWidth: 0
GlyphClass: 2
Flags: HW
LayerCount: 2
UndoRedoHistory
Layer: 1
Undoes
EndUndoes
Redoes
EndRedoes
EndUndoRedoHistory
Fore
SplineSet
711 1613 m 1
 711 1776 l 1
 875 1776 l 1
 875 1613 l 1
 711 1613 l 1
379 1613 m 1
 379 1776 l 1
 543 1776 l 1
 543 1613 l 1
 379 1613 l 1
1061 1456 m 1
 1252 1456 l 1
 709 585 l 1
 709 0 l 1
 537 0 l 1
 537 582 l 1
 4 1456 l 1
 195 1456 l 1
 626 727 l 1
 1061 1456 l 1
EndSplineSet
EndChar

StartChar: Z
Encoding: 90 90 83
Width: 1222
VWidth: 0
GlyphClass: 2
Flags: HW
LayerCount: 2
UndoRedoHistory
Layer: 1
Undoes
EndUndoes
Redoes
EndRedoes
EndUndoRedoHistory
Fore
SplineSet
124 1456 m 1
 1154 1456 l 1
 1154 1368 l 1
 320 148 l 1
 1146 148 l 1
 1146 0 l 1
 92 0 l 1
 92 92 l 1
 922 1308 l 1
 124 1308 l 1
 124 1456 l 1
EndSplineSet
EndChar

StartChar: Zacute
Encoding: 377 377 84
Width: 1222
VWidth: 0
GlyphClass: 2
Flags: HW
LayerCount: 2
UndoRedoHistory
Layer: 1
Undoes
EndUndoes
Redoes
EndRedoes
EndUndoRedoHistory
Fore
SplineSet
590 1602 m 1
 816 1922 l 1
 1028 1922 l 1
 720 1602 l 1
 590 1602 l 1
124 1456 m 1
 1154 1456 l 1
 1154 1368 l 1
 320 148 l 1
 1146 148 l 1
 1146 0 l 1
 92 0 l 1
 92 92 l 1
 922 1308 l 1
 124 1308 l 1
 124 1456 l 1
EndSplineSet
EndChar

StartChar: Zcaron
Encoding: 381 381 85
Width: 1222
VWidth: 0
GlyphClass: 2
Flags: HW
LayerCount: 2
UndoRedoHistory
Layer: 1
Undoes
EndUndoes
Redoes
EndRedoes
EndUndoRedoHistory
Fore
SplineSet
593 1600 m 1
 354 1923 l 1
 501 1923 l 1
 665 1708 l 1
 833 1923 l 1
 987 1923 l 1
 749 1600 l 1
 593 1600 l 1
124 1456 m 1
 1154 1456 l 1
 1154 1368 l 1
 320 148 l 1
 1146 148 l 1
 1146 0 l 1
 92 0 l 1
 92 92 l 1
 922 1308 l 1
 124 1308 l 1
 124 1456 l 1
EndSplineSet
EndChar

StartChar: Zdotaccent
Encoding: 379 379 86
Width: 1222
VWidth: 0
GlyphClass: 2
Flags: HW
LayerCount: 2
UndoRedoHistory
Layer: 1
Undoes
EndUndoes
Redoes
EndRedoes
EndUndoRedoHistory
Fore
SplineSet
591 1676 m 1
 591 1839 l 1
 751 1839 l 1
 751 1676 l 1
 591 1676 l 1
124 1456 m 1
 1154 1456 l 1
 1154 1368 l 1
 320 148 l 1
 1146 148 l 1
 1146 0 l 1
 92 0 l 1
 92 92 l 1
 922 1308 l 1
 124 1308 l 1
 124 1456 l 1
EndSplineSet
EndChar

StartChar: a
Encoding: 97 97 87
Width: 1205
VWidth: 0
GlyphClass: 2
Flags: HW
LayerCount: 2
UndoRedoHistory
Layer: 1
Undoes
EndUndoes
Redoes
EndRedoes
EndUndoRedoHistory
Fore
SplineSet
663 907 m 0
 421 907 260 723 260 448 c 0
 260 249 368 116 531 116 c 0
 728 116 859 261 859 453 c 2
 859 872 l 1
 817 893 739 907 663 907 c 0
666 1048 m 0
 800 1048 943 1014 1023 962 c 1
 1023 286 l 2
 1023 198 1073 139 1148 139 c 1
 1114 -4 l 1
 998 -4 905 64 882 166 c 1
 814 53 664 -22 506 -22 c 0
 256 -22 90 162 90 438 c 0
 90 804 320 1048 666 1048 c 0
EndSplineSet
EndChar

StartChar: a.alt
Encoding: 65538 -1 88
Width: 1219
VWidth: 0
GlyphClass: 2
Flags: HW
LayerCount: 2
UndoRedoHistory
Layer: 1
Undoes
EndUndoes
Redoes
EndRedoes
EndUndoRedoHistory
Fore
SplineSet
902 524 m 0
 902 814 798 913 617 913 c 0
 390 913 255 761 255 504 c 0
 255 278 387 117 572 117 c 0
 828 117 902 272 902 524 c 0
88 494 m 0
 88 844 284 1052 614 1052 c 0
 864 1052 1066 928 1066 519 c 2
 1066 286 l 2
 1066 170 1139 139 1191 139 c 1
 1157 -4 l 1
 1070 -4 952 46 925 166 c 1
 832 13 675 -23 553 -23 c 0
 281 -23 88 192 88 494 c 0
EndSplineSet
EndChar

StartChar: aacute
Encoding: 225 225 89
Width: 1205
VWidth: 0
GlyphClass: 2
Flags: HW
LayerCount: 2
UndoRedoHistory
Layer: 1
Undoes
EndUndoes
Redoes
EndRedoes
EndUndoRedoHistory
Fore
SplineSet
549 1172 m 1
 775 1492 l 1
 987 1492 l 1
 679 1172 l 1
 549 1172 l 1
663 907 m 0
 421 907 260 723 260 448 c 0
 260 249 368 116 531 116 c 0
 728 116 859 261 859 453 c 2
 859 872 l 1
 817 893 739 907 663 907 c 0
666 1048 m 0
 800 1048 943 1014 1023 962 c 1
 1023 286 l 2
 1023 198 1073 139 1148 139 c 1
 1114 -4 l 1
 998 -4 905 64 882 166 c 1
 814 53 664 -22 506 -22 c 0
 256 -22 90 162 90 438 c 0
 90 804 320 1048 666 1048 c 0
EndSplineSet
EndChar

StartChar: abreve
Encoding: 259 259 90
Width: 1205
VWidth: 0
GlyphClass: 2
Flags: HW
LayerCount: 2
UndoRedoHistory
Layer: 1
Undoes
EndUndoes
Redoes
EndRedoes
EndUndoRedoHistory
Fore
SplineSet
348 1454 m 1
 435 1454 l 1
 450 1366 523 1325 625 1325 c 0
 727 1325 806 1370 826 1454 c 1
 912 1454 l 1
 899 1300 798 1218 632 1218 c 0
 461 1218 361 1294 348 1454 c 1
663 907 m 0
 421 907 260 723 260 448 c 0
 260 249 368 116 531 116 c 0
 728 116 859 261 859 453 c 2
 859 872 l 1
 817 893 739 907 663 907 c 0
666 1048 m 0
 800 1048 943 1014 1023 962 c 1
 1023 286 l 2
 1023 198 1073 139 1148 139 c 1
 1114 -4 l 1
 998 -4 905 64 882 166 c 1
 814 53 664 -22 506 -22 c 0
 256 -22 90 162 90 438 c 0
 90 804 320 1048 666 1048 c 0
EndSplineSet
EndChar

StartChar: acircumflex
Encoding: 226 226 91
Width: 1205
VWidth: 0
GlyphClass: 2
Flags: HW
LayerCount: 2
UndoRedoHistory
Layer: 1
Undoes
EndUndoes
Redoes
EndRedoes
EndUndoRedoHistory
Fore
SplineSet
323 1170 m 1
 551 1494 l 1
 708 1494 l 1
 937 1170 l 1
 805 1170 l 1
 627 1386 l 1
 449 1170 l 1
 323 1170 l 1
663 907 m 0
 421 907 260 723 260 448 c 0
 260 249 368 116 531 116 c 0
 728 116 859 261 859 453 c 2
 859 872 l 1
 817 893 739 907 663 907 c 0
666 1048 m 0
 800 1048 943 1014 1023 962 c 1
 1023 286 l 2
 1023 198 1073 139 1148 139 c 1
 1114 -4 l 1
 998 -4 905 64 882 166 c 1
 814 53 664 -22 506 -22 c 0
 256 -22 90 162 90 438 c 0
 90 804 320 1048 666 1048 c 0
EndSplineSet
EndChar

StartChar: acute
Encoding: 180 180 92
Width: 607
VWidth: 0
GlyphClass: 2
Flags: HW
LayerCount: 2
UndoRedoHistory
Layer: 1
Undoes
EndUndoes
Redoes
EndRedoes
EndUndoRedoHistory
Fore
SplineSet
175 1172 m 1
 401 1492 l 1
 613 1492 l 1
 305 1172 l 1
 175 1172 l 1
EndSplineSet
EndChar

StartChar: adieresis
Encoding: 228 228 93
Width: 1205
VWidth: 0
GlyphClass: 2
Flags: HW
LayerCount: 2
UndoRedoHistory
Layer: 1
Undoes
EndUndoes
Redoes
EndRedoes
EndUndoRedoHistory
Fore
SplineSet
714 1183 m 1
 714 1346 l 1
 878 1346 l 1
 878 1183 l 1
 714 1183 l 1
382 1183 m 1
 382 1346 l 1
 546 1346 l 1
 546 1183 l 1
 382 1183 l 1
663 907 m 0
 421 907 260 723 260 448 c 0
 260 249 368 116 531 116 c 0
 728 116 859 261 859 453 c 2
 859 872 l 1
 817 893 739 907 663 907 c 0
666 1048 m 0
 800 1048 943 1014 1023 962 c 1
 1023 286 l 2
 1023 198 1073 139 1148 139 c 1
 1114 -4 l 1
 998 -4 905 64 882 166 c 1
 814 53 664 -22 506 -22 c 0
 256 -22 90 162 90 438 c 0
 90 804 320 1048 666 1048 c 0
EndSplineSet
EndChar

StartChar: ae
Encoding: 230 230 94
Width: 1807
VWidth: 0
GlyphClass: 2
Flags: HW
LayerCount: 2
UndoRedoHistory
Layer: 1
Undoes
EndUndoes
Redoes
EndRedoes
EndUndoRedoHistory
Fore
SplineSet
943 606 m 1
 1534 606 l 1
 1517 780 1440 907 1250 907 c 0
 1055 907 955 761 943 606 c 1
773 489 m 1
 627 486 l 1
 442 481 250 461 250 290 c 0
 250 163 337 115 464 115 c 0
 684 115 773 272 773 489 c 1
81 282 m 0
 81 611 443 605 771 605 c 1
 771 628 l 2
 771 793 706 907 540 907 c 0
 391 907 298 864 238 763 c 1
 148 856 l 1
 217 985 353 1048 550 1048 c 0
 716 1048 835 956 877 806 c 1
 933 941 1084 1048 1251 1048 c 0
 1543 1048 1697 845 1697 524 c 2
 1697 489 l 1
 942 489 l 1
 942 485 941 468 941 463 c 0
 941 253 1029 115 1242 115 c 0
 1397 115 1511 193 1577 292 c 1
 1664 206 l 1
 1582 65 1446 -22 1232 -22 c 0
 1044 -22 898 80 853 230 c 1
 785 95 661 -22 441 -22 c 0
 222 -22 81 92 81 282 c 0
EndSplineSet
EndChar

StartChar: agrave
Encoding: 224 224 95
Width: 1205
VWidth: 0
GlyphClass: 2
Flags: HW
LayerCount: 2
UndoRedoHistory
Layer: 1
Undoes
EndUndoes
Redoes
EndRedoes
EndUndoRedoHistory
Fore
SplineSet
595 1172 m 1
 263 1492 l 1
 477 1492 l 1
 724 1172 l 1
 595 1172 l 1
663 907 m 0
 421 907 260 723 260 448 c 0
 260 249 368 116 531 116 c 0
 728 116 859 261 859 453 c 2
 859 872 l 1
 817 893 739 907 663 907 c 0
666 1048 m 0
 800 1048 943 1014 1023 962 c 1
 1023 286 l 2
 1023 198 1073 139 1148 139 c 1
 1114 -4 l 1
 998 -4 905 64 882 166 c 1
 814 53 664 -22 506 -22 c 0
 256 -22 90 162 90 438 c 0
 90 804 320 1048 666 1048 c 0
EndSplineSet
EndChar

StartChar: amacron
Encoding: 257 257 96
Width: 1205
VWidth: 0
GlyphClass: 2
Flags: HW
LayerCount: 2
UndoRedoHistory
Layer: 1
Undoes
EndUndoes
Redoes
EndRedoes
EndUndoRedoHistory
Fore
SplineSet
344 1183 m 1
 344 1317 l 1
 916 1317 l 1
 916 1183 l 1
 344 1183 l 1
663 907 m 0
 421 907 260 723 260 448 c 0
 260 249 368 116 531 116 c 0
 728 116 859 261 859 453 c 2
 859 872 l 1
 817 893 739 907 663 907 c 0
666 1048 m 0
 800 1048 943 1014 1023 962 c 1
 1023 286 l 2
 1023 198 1073 139 1148 139 c 1
 1114 -4 l 1
 998 -4 905 64 882 166 c 1
 814 53 664 -22 506 -22 c 0
 256 -22 90 162 90 438 c 0
 90 804 320 1048 666 1048 c 0
EndSplineSet
EndChar

StartChar: ampersand
Encoding: 38 38 97
Width: 1647
VWidth: 0
GlyphClass: 2
Flags: HW
LayerCount: 2
UndoRedoHistory
Layer: 1
Undoes
EndUndoes
Redoes
EndRedoes
EndUndoRedoHistory
Fore
SplineSet
844 1099 m 0
 858 1124 865 1150 865 1178 c 0
 865 1287 777 1340 669 1340 c 0
 559 1340 472 1288 472 1178 c 0
 472 1087 517 1028 563 979 c 0
 582 959 602 939 625 918 c 1
 710 963 799 1017 844 1099 c 0
1058 291 m 1
 1056 291 1048 298 1034 311 c 0
 967 375 892 454 823 523 c 2
 594 750 l 1
 485 694 374 632 320 522 c 0
 303 488 295 449 295 406 c 0
 295 259 398 176 512 138 c 0
 556 123 605 116 658 116 c 0
 848 116 961 197 1058 291 c 1
156 220 m 0
 128 273 115 334 115 402 c 0
 115 523 169 607 233 672 c 0
 304 744 400 802 494 852 c 1
 425 921 351 988 315 1086 c 0
 304 1115 299 1147 299 1182 c 0
 299 1381 462 1473 661 1473 c 0
 820 1473 943 1414 1004 1314 c 0
 1026 1278 1036 1237 1036 1188 c 0
 1036 1096 990 1029 942 977 c 0
 885 915 807 864 729 822 c 1
 1144 398 l 1
 1211 493 1262 618 1285 756 c 0
 1292 800 1296 842 1296 884 c 1
 1463 863 l 1
 1454 625 1371 427 1260 284 c 1
 1334 208 1399 150 1508 114 c 0
 1539 104 1576 95 1618 86 c 1
 1486 -12 l 1
 1338 10 1256 100 1166 186 c 1
 1047 70 894 -27 661 -27 c 0
 421 -27 239 62 156 220 c 0
EndSplineSet
EndChar

StartChar: aogonek
Encoding: 261 261 98
Width: 1205
VWidth: 0
GlyphClass: 2
Flags: HW
LayerCount: 2
UndoRedoHistory
Layer: 1
Undoes
EndUndoes
Redoes
EndRedoes
EndUndoRedoHistory
Fore
SplineSet
811 -283 m 0
 800 -263 794 -239 794 -212 c 0
 794 -154 828 -109 861 -76 c 0
 899 -38 949 -5 1000 21 c 1
 940 49 897 101 882 166 c 1
 814 53 664 -22 506 -22 c 0
 256 -22 90 162 90 438 c 0
 90 804 320 1048 666 1048 c 0
 800 1048 943 1014 1023 962 c 1
 1023 286 l 2
 1023 198 1073 139 1148 139 c 1
 1118 15 l 1
 1138 13 l 1
 1130 8 1123 4 1115 -1 c 1
 1114 -4 l 1
 1113 -4 1111 -4 1110 -4 c 0
 1049 -41 986 -82 950 -138 c 0
 940 -154 935 -170 935 -186 c 0
 935 -237 984 -268 1035 -268 c 0
 1099 -268 1143 -255 1189 -237 c 1
 1189 -348 l 1
 1143 -367 1076 -377 1012 -377 c 0
 918 -377 845 -344 811 -283 c 0
663 907 m 0
 421 907 260 723 260 448 c 0
 260 249 368 116 531 116 c 0
 728 116 859 261 859 453 c 2
 859 872 l 1
 817 893 739 907 663 907 c 0
EndSplineSet
EndChar

StartChar: approxequal
Encoding: 8776 8776 99
Width: 1351
VWidth: 0
GlyphClass: 2
Flags: HW
LayerCount: 2
UndoRedoHistory
Layer: 1
Undoes
EndUndoes
Redoes
EndRedoes
EndUndoRedoHistory
Fore
SplineSet
267 634 m 1
 152 661 l 1
 185 808 279 917 450 917 c 0
 597 917 706 816 814 772 c 0
 846 759 875 752 902 752 c 0
 1003 752 1045 832 1075 918 c 1
 1185 890 l 1
 1155 745 1069 634 896 634 c 0
 816 634 761 660 704 689 c 0
 653 715 584 757 532 780 c 0
 503 793 474 799 446 799 c 0
 340 799 293 721 267 634 c 1
268 261 m 1
 154 289 l 1
 189 433 283 546 452 546 c 0
 550 546 635 500 702 463 c 0
 740 442 776 423 810 406 c 0
 844 389 875 380 904 380 c 0
 1004 380 1046 463 1077 546 c 1
 1187 518 l 1
 1154 375 1072 262 898 262 c 0
 819 262 762 289 707 317 c 0
 657 343 588 385 536 407 c 0
 506 420 477 426 449 426 c 0
 342 426 294 349 268 261 c 1
EndSplineSet
EndChar

StartChar: aring
Encoding: 229 229 100
Width: 1205
VWidth: 0
GlyphClass: 2
Flags: HW
LayerCount: 2
UndoRedoHistory
Layer: 1
Undoes
EndUndoes
Redoes
EndRedoes
EndUndoRedoHistory
Fore
SplineSet
740 1340 m 0
 740 1402 691 1445 629 1445 c 0
 569 1445 519 1400 519 1340 c 0
 519 1276 564 1235 629 1235 c 0
 689 1235 740 1280 740 1340 c 0
436 1264 m 0
 425 1287 420 1312 420 1339 c 0
 420 1431 480 1490 548 1516 c 0
 573 1526 601 1530 630 1530 c 0
 725 1530 794 1480 824 1414 c 0
 835 1391 840 1366 840 1340 c 0
 840 1249 778 1190 711 1164 c 0
 686 1154 659 1149 631 1149 c 0
 536 1149 467 1199 436 1264 c 0
663 907 m 0
 421 907 260 723 260 448 c 0
 260 249 368 116 531 116 c 0
 728 116 859 261 859 453 c 2
 859 872 l 1
 817 893 739 907 663 907 c 0
666 1048 m 0
 800 1048 943 1014 1023 962 c 1
 1023 286 l 2
 1023 198 1073 139 1148 139 c 1
 1114 -4 l 1
 998 -4 905 64 882 166 c 1
 814 53 664 -22 506 -22 c 0
 256 -22 90 162 90 438 c 0
 90 804 320 1048 666 1048 c 0
EndSplineSet
EndChar

StartChar: asciicircum
Encoding: 94 94 101
Width: 1457
VWidth: 0
GlyphClass: 2
Flags: HW
LayerCount: 2
UndoRedoHistory
Layer: 1
Undoes
EndUndoes
Redoes
EndRedoes
EndUndoRedoHistory
Fore
SplineSet
184 550 m 1
 665 1432 l 1
 766 1432 l 1
 1255 550 l 1
 1100 550 l 1
 714 1260 l 1
 340 550 l 1
 184 550 l 1
EndSplineSet
EndChar

StartChar: asciitilde
Encoding: 126 126 102
Width: 1458
VWidth: 0
GlyphClass: 2
Flags: HW
LayerCount: 2
UndoRedoHistory
Layer: 1
Undoes
EndUndoes
Redoes
EndRedoes
EndUndoRedoHistory
Fore
SplineSet
304 385 m 1
 189 440 l 1
 213 553 280 641 377 683 c 0
 411 698 449 705 491 705 c 0
 552 705 609 683 658 664 c 0
 739 632 819 587 900 557 c 0
 922 549 941 545 957 545 c 0
 1057 545 1112 641 1131 723 c 1
 1256 684 l 1
 1228 566 1167 473 1065 430 c 0
 1032 416 996 410 956 410 c 0
 904 410 852 433 810 452 c 0
 731 487 650 532 564 559 c 0
 538 567 515 571 494 571 c 0
 384 571 325 475 304 385 c 1
EndSplineSet
EndChar

StartChar: asterisk
Encoding: 42 42 103
Width: 1065
VWidth: 0
GlyphClass: 2
Flags: HW
LayerCount: 2
UndoRedoHistory
Layer: 1
Undoes
EndUndoes
Redoes
EndRedoes
EndUndoRedoHistory
Fore
SplineSet
692 737 m 1
 534 1003 l 1
 381 745 l 1
 257 820 l 1
 448 1058 l 1
 175 1136 l 1
 196 1271 l 1
 480 1148 l 1
 467 1248 452 1351 439 1451 c 1
 581 1451 l 1
 581 1153 l 1
 816 1274 l 1
 880 1149 l 1
 617 1061 l 1
 818 810 l 1
 692 737 l 1
EndSplineSet
EndChar

StartChar: at
Encoding: 64 64 104
Width: 1895
VWidth: 0
GlyphClass: 2
Flags: HW
LayerCount: 2
UndoRedoHistory
Layer: 1
Undoes
EndUndoes
Redoes
EndRedoes
EndUndoRedoHistory
Fore
SplineSet
1141 821 m 0
 1141 936 1096 1007 980 1007 c 0
 789 1007 655 775 655 582 c 0
 655 465 715 385 831 385 c 0
 1018 385 1141 622 1141 821 c 0
130 679 m 0
 130 1143 508 1476 971 1476 c 0
 1402 1476 1760 1205 1760 791 c 0
 1760 507 1549 225 1288 225 c 0
 1165 225 1090 276 1071 384 c 1
 1013 313 930 257 814 257 c 0
 589 257 498 448 498 610 c 0
 498 876 726 1138 978 1138 c 0
 1084 1138 1168 1091 1207 1022 c 1
 1225 1107 l 1
 1371 1107 l 1
 1281 711 1226 506 1226 436 c 0
 1226 380 1249 350 1309 350 c 0
 1487 350 1607 597 1607 796 c 0
 1607 1141 1323 1357 966 1357 c 0
 579 1357 281 1060 281 677 c 0
 281 281 573 12 972 12 c 0
 1190 12 1362 86 1486 192 c 1
 1566 122 l 1
 1438 -17 1230 -109 967 -109 c 0
 496 -109 130 216 130 679 c 0
EndSplineSet
EndChar

StartChar: atilde
Encoding: 227 227 105
Width: 1205
VWidth: 0
GlyphClass: 2
Flags: HW
LayerCount: 2
UndoRedoHistory
Layer: 1
Undoes
EndUndoes
Redoes
EndRedoes
EndUndoRedoHistory
Fore
SplineSet
507 1413 m 0
 583 1413 640 1377 698 1356 c 0
 718 1349 738 1345 757 1345 c 0
 810 1345 837 1384 844 1435 c 1
 952 1435 l 1
 939 1322 881 1220 757 1220 c 0
 661 1220 599 1288 504 1288 c 0
 450 1288 420 1260 413 1203 c 1
 308 1203 l 1
 318 1319 383 1413 507 1413 c 0
663 907 m 0
 421 907 260 723 260 448 c 0
 260 249 368 116 531 116 c 0
 728 116 859 261 859 453 c 2
 859 872 l 1
 817 893 739 907 663 907 c 0
666 1048 m 0
 800 1048 943 1014 1023 962 c 1
 1023 286 l 2
 1023 198 1073 139 1148 139 c 1
 1114 -4 l 1
 998 -4 905 64 882 166 c 1
 814 53 664 -22 506 -22 c 0
 256 -22 90 162 90 438 c 0
 90 804 320 1048 666 1048 c 0
EndSplineSet
EndChar

StartChar: b
Encoding: 98 98 106
Width: 1210
VWidth: 0
GlyphClass: 2
Flags: HW
LayerCount: 2
UndoRedoHistory
Layer: 1
Undoes
EndUndoes
Redoes
EndRedoes
EndUndoRedoHistory
Fore
SplineSet
686 904 m 0
 568 904 431 830 317 686 c 1
 317 156 l 1
 317 156 461 116 615 116 c 0
 848 116 950 319 950 550 c 0
 950 788 834 904 686 904 c 0
152 1495 m 1
 317 1525 l 1
 317 851 l 1
 434 984 574 1045 704 1045 c 0
 926 1045 1120 863 1120 545 c 0
 1120 215 929 -22 612 -22 c 0
 369 -22 152 71 152 71 c 1
 152 1495 l 1
EndSplineSet
EndChar

StartChar: backslash
Encoding: 92 92 107
Width: 706
VWidth: 0
GlyphClass: 2
Flags: HW
LayerCount: 2
UndoRedoHistory
Layer: 1
Undoes
EndUndoes
Redoes
EndRedoes
EndUndoRedoHistory
Fore
SplineSet
757 -215 m 1
 594 -215 l 1
 -47 1451 l 1
 120 1451 l 1
 757 -215 l 1
EndSplineSet
EndChar

StartChar: bar
Encoding: 124 124 108
Width: 500
VWidth: 0
GlyphClass: 2
Flags: HW
LayerCount: 2
UndoRedoHistory
Layer: 1
Undoes
EndUndoes
Redoes
EndRedoes
EndUndoRedoHistory
Fore
SplineSet
168 -491 m 1
 168 1545 l 1
 325 1545 l 1
 325 -491 l 1
 168 -491 l 1
EndSplineSet
EndChar

StartChar: braceleft
Encoding: 123 123 109
Width: 627
VWidth: 0
GlyphClass: 2
Flags: HW
LayerCount: 2
UndoRedoHistory
Layer: 1
Undoes
EndUndoes
Redoes
EndRedoes
EndUndoRedoHistory
Fore
SplineSet
244 935 m 2
 243 1218 l 2
 243 1412 380 1480 566 1488 c 1
 566 1362 l 1
 427 1362 403 1291 403 1122 c 1
 405 884 l 1
 405 756 396 695 232 615 c 1
 396 535 405 473 405 345 c 1
 403 107 l 1
 403 -62 427 -133 566 -133 c 1
 566 -259 l 1
 380 -251 242 -183 243 11 c 2
 244 294 l 2
 245 441 222 539 88 554 c 0
 87 554 87 553 86 553 c 2
 86 554 l 1
 86 675 l 1
 86 676 l 2
 87 676 87 675 88 675 c 0
 222 690 245 788 244 935 c 2
EndSplineSet
EndChar

StartChar: braceright
Encoding: 125 125 110
Width: 627
VWidth: 0
GlyphClass: 2
Flags: HW
LayerCount: 2
UndoRedoHistory
Layer: 1
Undoes
EndUndoes
Redoes
EndRedoes
EndUndoRedoHistory
Fore
SplineSet
409 1218 m 2
 408 935 l 2
 407 788 430 690 564 675 c 0
 565 675 565 676 566 676 c 2
 566 675 l 1
 566 554 l 1
 566 553 l 2
 565 553 565 554 564 554 c 0
 430 539 407 441 408 294 c 2
 409 11 l 2
 410 -183 272 -251 86 -259 c 1
 86 -133 l 1
 225 -133 249 -62 249 107 c 1
 247 345 l 1
 247 473 256 534 420 614 c 1
 256 694 247 756 247 884 c 1
 249 1122 l 1
 249 1291 225 1362 86 1362 c 1
 86 1488 l 1
 272 1480 409 1412 409 1218 c 2
EndSplineSet
EndChar

StartChar: bracketleft
Encoding: 91 91 111
Width: 628
VWidth: 0
GlyphClass: 2
Flags: HW
LayerCount: 2
UndoRedoHistory
Layer: 1
Undoes
EndUndoes
Redoes
EndRedoes
EndUndoRedoHistory
Fore
SplineSet
191 -259 m 1
 191 1451 l 1
 547 1451 l 1
 547 1329 l 1
 354 1329 l 1
 354 -137 l 1
 548 -137 l 1
 548 -259 l 1
 191 -259 l 1
EndSplineSet
EndChar

StartChar: bracketright
Encoding: 93 93 112
Width: 628
VWidth: 0
GlyphClass: 2
Flags: HW
LayerCount: 2
UndoRedoHistory
Layer: 1
Undoes
EndUndoes
Redoes
EndRedoes
EndUndoRedoHistory
Fore
SplineSet
87 -259 m 1
 87 -137 l 1
 278 -137 l 1
 278 1329 l 1
 88 1329 l 1
 78 1451 l 1
 442 1451 l 1
 442 -259 l 1
 87 -259 l 1
EndSplineSet
EndChar

StartChar: breve
Encoding: 728 728 113
Width: 629
VWidth: 0
GlyphClass: 2
Flags: HW
LayerCount: 2
UndoRedoHistory
Layer: 1
Undoes
EndUndoes
Redoes
EndRedoes
EndUndoRedoHistory
Fore
SplineSet
32 1454 m 1
 119 1454 l 1
 134 1366 207 1325 309 1325 c 0
 411 1325 490 1370 510 1454 c 1
 596 1454 l 1
 583 1300 482 1218 316 1218 c 0
 145 1218 45 1294 32 1454 c 1
EndSplineSet
EndChar

StartChar: brokenbar
Encoding: 166 166 114
Width: 500
VWidth: 0
GlyphClass: 2
Flags: HW
LayerCount: 2
UndoRedoHistory
Layer: 1
Undoes
EndUndoes
Redoes
EndRedoes
EndUndoRedoHistory
Fore
SplineSet
168 677 m 1
 168 1545 l 1
 325 1545 l 1
 325 677 l 1
 168 677 l 1
168 -491 m 1
 168 393 l 1
 325 393 l 1
 325 -491 l 1
 168 -491 l 1
EndSplineSet
EndChar

StartChar: bullet
Encoding: 8226 8226 115
Width: 989
VWidth: 0
GlyphClass: 2
Flags: HW
LayerCount: 2
UndoRedoHistory
Layer: 1
Undoes
EndUndoes
Redoes
EndRedoes
EndUndoRedoHistory
Fore
SplineSet
183 575 m 0
 166 612 157 652 157 694 c 0
 157 842 259 941 368 985 c 0
 409 1002 453 1010 498 1010 c 0
 650 1010 757 925 806 820 c 0
 824 782 833 743 833 701 c 0
 833 604 786 528 732 478 c 0
 677 426 594 385 493 385 c 0
 340 385 232 469 183 575 c 0
EndSplineSet
EndChar

StartChar: c
Encoding: 99 99 116
Width: 1019
VWidth: 0
GlyphClass: 2
Flags: HW
LayerCount: 2
UndoRedoHistory
Layer: 1
Undoes
EndUndoes
Redoes
EndRedoes
EndUndoRedoHistory
Fore
SplineSet
640 1050 m 0
 761 1050 886 1013 983 920 c 1
 923 799 l 1
 848 871 751 906 656 906 c 0
 455 906 260 766 260 508 c 0
 260 241 450 119 651 119 c 0
 759 119 873 160 956 238 c 1
 1013 112 l 1
 902 22 765 -23 634 -23 c 0
 353 -23 90 157 90 503 c 0
 90 852 364 1050 640 1050 c 0
EndSplineSet
EndChar

StartChar: cacute
Encoding: 263 263 117
Width: 1019
VWidth: 0
GlyphClass: 2
Flags: HW
LayerCount: 2
UndoRedoHistory
Layer: 1
Undoes
EndUndoes
Redoes
EndRedoes
EndUndoRedoHistory
Fore
SplineSet
640 1050 m 0
 761 1050 886 1013 983 920 c 1
 923 799 l 1
 848 871 751 906 656 906 c 0
 455 906 260 766 260 508 c 0
 260 241 450 119 651 119 c 0
 759 119 873 160 956 238 c 1
 1013 112 l 1
 902 22 765 -23 634 -23 c 0
 353 -23 90 157 90 503 c 0
 90 852 364 1050 640 1050 c 0
545 1173 m 1
 771 1493 l 1
 983 1493 l 1
 675 1173 l 1
 545 1173 l 1
EndSplineSet
EndChar

StartChar: caron
Encoding: 711 711 118
Width: 699
VWidth: 0
GlyphClass: 2
Flags: HW
LayerCount: 2
UndoRedoHistory
Layer: 1
Undoes
EndUndoes
Redoes
EndRedoes
EndUndoRedoHistory
Fore
SplineSet
268 1170 m 1
 29 1493 l 1
 176 1493 l 1
 340 1278 l 1
 508 1493 l 1
 662 1493 l 1
 424 1170 l 1
 268 1170 l 1
EndSplineSet
EndChar

StartChar: ccaron
Encoding: 269 269 119
Width: 1019
VWidth: 0
GlyphClass: 2
Flags: HW
LayerCount: 2
UndoRedoHistory
Layer: 1
Undoes
EndUndoes
Redoes
EndRedoes
EndUndoRedoHistory
Fore
SplineSet
533 1170 m 1
 294 1493 l 1
 441 1493 l 1
 605 1278 l 1
 773 1493 l 1
 927 1493 l 1
 689 1170 l 1
 533 1170 l 1
640 1050 m 0
 761 1050 886 1013 983 920 c 1
 923 799 l 1
 848 871 751 906 656 906 c 0
 455 906 260 766 260 508 c 0
 260 241 450 119 651 119 c 0
 759 119 873 160 956 238 c 1
 1013 112 l 1
 902 22 765 -23 634 -23 c 0
 353 -23 90 157 90 503 c 0
 90 852 364 1050 640 1050 c 0
EndSplineSet
EndChar

StartChar: ccedilla
Encoding: 231 231 120
Width: 1019
VWidth: 0
GlyphClass: 2
Flags: HW
LayerCount: 2
UndoRedoHistory
Layer: 1
Undoes
EndUndoes
Redoes
EndRedoes
EndUndoRedoHistory
Fore
SplineSet
438 -374 m 1
 446 -289 l 1
 496 -301 543 -313 597 -313 c 0
 663 -313 711 -297 711 -241 c 0
 711 -182 662 -168 602 -168 c 0
 593 -168 576 -170 565 -171 c 2
 533 -173 l 1
 560 -19 l 1
 309 10 90 188 90 503 c 0
 90 852 364 1050 640 1050 c 0
 761 1050 886 1013 983 920 c 1
 923 799 l 1
 848 871 751 906 656 906 c 0
 455 906 260 766 260 508 c 0
 260 241 450 119 651 119 c 0
 759 119 873 160 956 238 c 1
 1013 112 l 1
 908 27 780 -18 656 -23 c 1
 645 -90 l 1
 654 -90 l 1
 758 -95 854 -131 854 -239 c 0
 854 -359 734 -396 613 -396 c 0
 553 -396 492 -385 438 -374 c 1
EndSplineSet
EndChar

StartChar: cedilla
Encoding: 184 184 121
Width: 529
VWidth: 0
GlyphClass: 2
Flags: HW
LayerCount: 2
UndoRedoHistory
Layer: 1
Undoes
EndUndoes
Redoes
EndRedoes
EndUndoRedoHistory
Fore
SplineSet
52 -374 m 1
 60 -289 l 1
 110 -301 157 -313 211 -313 c 0
 277 -313 325 -297 325 -241 c 0
 325 -182 276 -168 216 -168 c 0
 207 -168 190 -170 179 -171 c 2
 147 -173 l 1
 180 17 l 1
 277 17 l 1
 259 -90 l 1
 268 -90 l 1
 372 -95 468 -131 468 -239 c 0
 468 -359 348 -396 227 -396 c 0
 167 -396 106 -385 52 -374 c 1
EndSplineSet
EndChar

StartChar: cent
Encoding: 162 162 122
Width: 1189
VWidth: 0
GlyphClass: 2
Flags: HW
LayerCount: 2
UndoRedoHistory
Layer: 1
Undoes
EndUndoes
Redoes
EndRedoes
EndUndoRedoHistory
Fore
SplineSet
553 -235 m 1
 553 -20 l 1
 287 6 94 213 94 503 c 0
 94 805 266 1024 553 1049 c 1
 553 1281 l 1
 666 1281 l 1
 666 1049 l 1
 798 1039 900 991 960 912 c 1
 883 801 l 1
 834 862 761 898 666 907 c 1
 666 120 l 1
 751 129 844 159 940 225 c 1
 976 87 l 1
 870 23 764 -10 666 -20 c 1
 666 -235 l 1
 553 -235 l 1
553 904 m 1
 366 874 267 714 267 508 c 0
 267 285 383 148 553 122 c 1
 553 904 l 1
EndSplineSet
EndChar

StartChar: circumflex
Encoding: 710 710 123
Width: 699
VWidth: 0
GlyphClass: 2
Flags: HW
LayerCount: 2
UndoRedoHistory
Layer: 1
Undoes
EndUndoes
Redoes
EndRedoes
EndUndoRedoHistory
Fore
SplineSet
35 1170 m 1
 263 1494 l 1
 420 1494 l 1
 649 1170 l 1
 517 1170 l 1
 339 1386 l 1
 161 1170 l 1
 35 1170 l 1
EndSplineSet
EndChar

StartChar: colon
Encoding: 58 58 124
Width: 540
VWidth: 0
GlyphClass: 2
Flags: HW
LayerCount: 2
UndoRedoHistory
Layer: 1
Undoes
EndUndoes
Redoes
EndRedoes
EndUndoRedoHistory
Fore
SplineSet
159 841 m 1
 159 1051 l 1
 376 1051 l 1
 376 841 l 1
 159 841 l 1
159 -11 m 1
 159 199 l 1
 376 199 l 1
 376 -11 l 1
 159 -11 l 1
EndSplineSet
EndChar

StartChar: comma
Encoding: 44 44 125
Width: 540
VWidth: 0
GlyphClass: 2
Flags: HW
LayerCount: 2
UndoRedoHistory
Layer: 1
Undoes
EndUndoes
Redoes
EndRedoes
EndUndoRedoHistory
Fore
SplineSet
78 -256 m 1
 185 207 l 1
 372 207 l 1
 209 -256 l 1
 78 -256 l 1
EndSplineSet
EndChar

StartChar: commaaccentcomb
Encoding: 806 806 126
Width: 0
VWidth: 0
GlyphClass: 2
Flags: HW
LayerCount: 2
UndoRedoHistory
Layer: 1
Undoes
EndUndoes
Redoes
EndRedoes
EndUndoRedoHistory
Fore
SplineSet
-462 -625 m 1
 -355 -162 l 1
 -168 -162 l 1
 -331 -625 l 1
 -462 -625 l 1
EndSplineSet
EndChar

StartChar: copyright
Encoding: 169 169 127
Width: 1829
VWidth: 0
GlyphClass: 2
Flags: HW
LayerCount: 2
UndoRedoHistory
Layer: 1
Undoes
EndUndoes
Redoes
EndRedoes
EndUndoRedoHistory
Fore
SplineSet
1395 270 m 0
 1503 372 1590 525 1590 724 c 0
 1590 924 1503 1077 1394 1180 c 0
 1283 1285 1116 1366 909 1366 c 0
 703 1366 537 1286 426 1182 c 0
 317 1080 230 926 230 727 c 0
 230 527 317 373 426 270 c 0
 538 164 705 85 913 85 c 0
 1120 85 1284 165 1395 270 c 0
340 192 m 0
 246 280 173 391 132 526 c 0
 113 590 103 657 103 726 c 0
 103 967 213 1139 341 1260 c 0
 474 1385 659 1483 908 1483 c 0
 1160 1483 1347 1383 1480 1258 c 0
 1573 1170 1647 1059 1688 924 c 0
 1707 860 1717 794 1717 725 c 0
 1717 485 1608 313 1480 192 c 0
 1348 67 1163 -32 914 -32 c 0
 662 -32 473 67 340 192 c 0
496 542 m 0
 472 600 460 662 460 729 c 0
 460 959 583 1106 750 1172 c 0
 810 1196 877 1208 951 1208 c 0
 1066 1208 1164 1174 1245 1105 c 1
 1214 985 l 1
 1141 1048 1051 1080 944 1080 c 0
 782 1080 680 989 636 868 c 0
 621 826 613 781 613 733 c 0
 613 566 695 458 816 408 c 0
 861 390 913 380 972 380 c 0
 1073 380 1150 411 1210 460 c 1
 1249 339 l 1
 1163 279 1060 249 940 249 c 0
 713 249 563 378 496 542 c 0
EndSplineSet
EndChar

StartChar: currency
Encoding: 164 164 128
Width: 1238
VWidth: 0
GlyphClass: 2
Flags: HW
LayerCount: 2
UndoRedoHistory
Layer: 1
Undoes
EndUndoes
Redoes
EndRedoes
EndUndoRedoHistory
Fore
SplineSet
994 210 m 1
 827 371 l 1
 758 310 666 274 566 274 c 0
 473 274 387 308 319 363 c 1
 157 195 l 1
 121 232 l 1
 281 398 l 1
 216 467 175 559 175 661 c 0
 175 754 211 840 269 908 c 1
 106 1065 l 1
 145 1104 l 1
 307 947 l 1
 379 1011 475 1050 576 1048 c 0
 668 1046 752 1012 818 956 c 1
 976 1120 l 1
 1016 1081 l 1
 858 917 l 1
 922 846 959 753 957 651 c 0
 955 557 920 473 863 408 c 1
 1031 246 l 1
 994 210 l 1
865 651 m 0
 869 820 740 961 572 965 c 0
 403 969 263 827 263 658 c 0
 263 489 395 351 564 351 c 0
 733 351 861 482 865 651 c 0
EndSplineSet
EndChar

StartChar: d
Encoding: 100 100 129
Width: 1226
VWidth: 0
GlyphClass: 2
Flags: HW
LayerCount: 2
UndoRedoHistory
Layer: 1
Undoes
EndUndoes
Redoes
EndRedoes
EndUndoRedoHistory
Fore
SplineSet
585 907 m 0
 359 907 260 732 260 507 c 0
 260 274 391 116 579 116 c 0
 818 116 907 296 907 534 c 2
 907 744 l 1
 832 844 704 907 585 907 c 0
906 1506 m 1
 1071 1526 l 1
 1071 390 l 2
 1071 162 1114 76 1159 10 c 1
 997 -13 l 1
 959 32 923 111 919 177 c 1
 859 52 722 -22 561 -22 c 0
 278 -22 90 186 90 501 c 0
 90 810 252 1048 561 1048 c 0
 693 1048 796 1011 906 917 c 1
 906 1506 l 1
EndSplineSet
EndChar

StartChar: dagger
Encoding: 8224 8224 130
Width: 1022
VWidth: 0
GlyphClass: 2
Flags: HW
LayerCount: 2
UndoRedoHistory
Layer: 1
Undoes
EndUndoes
Redoes
EndRedoes
EndUndoRedoHistory
Fore
SplineSet
433 113 m 1
 433 934 l 1
 107 934 l 1
 107 1066 l 1
 433 1066 l 1
 433 1451 l 1
 575 1451 l 1
 575 1066 l 1
 919 1066 l 1
 919 934 l 1
 561 934 l 1
 561 113 l 1
 433 113 l 1
EndSplineSet
EndChar

StartChar: daggerdbl
Encoding: 8225 8225 131
Width: 1022
VWidth: 0
GlyphClass: 2
Flags: HW
LayerCount: 2
UndoRedoHistory
Layer: 1
Undoes
EndUndoes
Redoes
EndRedoes
EndUndoRedoHistory
Fore
SplineSet
420 113 m 1
 442 435 l 1
 98 435 l 1
 98 562 l 1
 442 562 l 1
 442 983 l 1
 104 983 l 1
 104 1115 l 1
 448 1115 l 1
 422 1451 l 1
 593 1451 l 1
 572 1115 l 1
 916 1115 l 1
 916 983 l 1
 565 983 l 1
 565 562 l 1
 909 562 l 1
 909 435 l 1
 565 435 l 1
 591 113 l 1
 420 113 l 1
EndSplineSet
EndChar

StartChar: dblgravecmb
Encoding: 783 783 132
Width: 0
VWidth: 0
GlyphClass: 2
Flags: HW
LayerCount: 2
UndoRedoHistory
Layer: 1
Undoes
EndUndoes
Redoes
EndRedoes
EndUndoRedoHistory
Fore
SplineSet
-262 1174 m 1
 -537 1487 l 1
 -361 1487 l 1
 -144 1174 l 1
 -262 1174 l 1
-531 1174 m 1
 -807 1487 l 1
 -631 1487 l 1
 -411 1174 l 1
 -531 1174 l 1
EndSplineSet
EndChar

StartChar: degree
Encoding: 176 176 133
Width: 844
VWidth: 0
GlyphClass: 2
Flags: HW
LayerCount: 2
UndoRedoHistory
Layer: 1
Undoes
EndUndoes
Redoes
EndRedoes
EndUndoRedoHistory
Fore
SplineSet
120 1036 m 0
 103 1072 95 1109 95 1150 c 0
 95 1289 189 1380 291 1421 c 0
 330 1436 371 1444 414 1444 c 0
 558 1444 661 1363 708 1264 c 0
 725 1228 733 1191 733 1150 c 0
 733 1010 638 919 536 878 c 0
 497 862 457 855 414 855 c 0
 271 855 167 937 120 1036 c 0
593 1080 m 0
 603 1102 608 1126 608 1151 c 0
 608 1237 551 1290 488 1314 c 0
 464 1323 440 1328 414 1328 c 0
 327 1328 265 1282 236 1222 c 0
 226 1200 220 1176 220 1151 c 0
 220 1064 275 1010 338 985 c 0
 361 976 387 971 414 971 c 0
 502 971 565 1019 593 1080 c 0
EndSplineSet
EndChar

StartChar: dieresis
Encoding: 168 168 134
Width: 743
VWidth: 0
GlyphClass: 2
Flags: HW
LayerCount: 2
UndoRedoHistory
Layer: 1
Undoes
EndUndoes
Redoes
EndRedoes
EndUndoRedoHistory
Fore
SplineSet
453 1183 m 1
 453 1346 l 1
 617 1346 l 1
 617 1183 l 1
 453 1183 l 1
121 1183 m 1
 121 1346 l 1
 285 1346 l 1
 285 1183 l 1
 121 1183 l 1
EndSplineSet
EndChar

StartChar: divide
Encoding: 247 247 135
Width: 1458
VWidth: 0
GlyphClass: 2
Flags: HW
LayerCount: 2
UndoRedoHistory
Layer: 1
Undoes
EndUndoes
Redoes
EndRedoes
EndUndoRedoHistory
Fore
SplineSet
619 873 m 1
 619 1083 l 1
 836 1083 l 1
 836 873 l 1
 619 873 l 1
198 485 m 1
 198 624 l 1
 1246 624 l 1
 1246 485 l 1
 198 485 l 1
619 21 m 1
 619 231 l 1
 836 231 l 1
 836 21 l 1
 619 21 l 1
EndSplineSet
EndChar

StartChar: dollar
Encoding: 36 36 136
Width: 1190
VWidth: 0
GlyphClass: 2
Flags: HW
LayerCount: 2
UndoRedoHistory
Layer: 1
Undoes
EndUndoes
Redoes
EndRedoes
EndUndoRedoHistory
Fore
SplineSet
532 818 m 1
 534 1293 l 1
 414 1278 326 1193 326 1059 c 0
 326 913 425 858 532 818 c 1
881 270 m 0
 894 296 901 325 901 358 c 0
 901 507 765 559 658 605 c 1
 654 131 l 1
 758 145 841 192 881 270 c 0
536 -172 m 1
 532 -16 l 1
 393 -13 291 25 202 89 c 1
 251 223 l 1
 325 173 421 132 531 127 c 1
 534 648 l 1
 390 712 240 772 169 904 c 0
 148 944 137 991 137 1047 c 0
 137 1164 195 1254 259 1315 c 0
 325 1377 421 1428 534 1437 c 1
 530 1575 l 1
 654 1575 l 1
 657 1439 l 1
 798 1436 917 1394 997 1326 c 1
 948 1198 l 1
 878 1261 781 1295 658 1299 c 1
 656 770 l 1
 779 722 888 677 972 604 c 0
 1038 547 1080 477 1080 361 c 0
 1080 177 957 74 819 24 c 0
 768 5 713 -6 656 -11 c 1
 659 -172 l 1
 536 -172 l 1
EndSplineSet
EndChar

StartChar: dotaccent
Encoding: 729 729 137
Width: 524
VWidth: 0
GlyphClass: 2
Flags: HW
LayerCount: 2
UndoRedoHistory
Layer: 1
Undoes
EndUndoes
Redoes
EndRedoes
EndUndoRedoHistory
Fore
SplineSet
184 1246 m 1
 184 1409 l 1
 344 1409 l 1
 344 1246 l 1
 184 1246 l 1
EndSplineSet
EndChar

StartChar: dotlessi
Encoding: 305 305 138
Width: 503
VWidth: 0
GlyphClass: 2
Flags: HW
LayerCount: 2
UndoRedoHistory
Layer: 1
Undoes
EndUndoes
Redoes
EndRedoes
EndUndoRedoHistory
Fore
SplineSet
167 278 m 2
 167 1026 l 1
 332 1026 l 1
 332 283 l 2
 332 143 389 118 457 118 c 0
 487 118 545 128 580 141 c 1
 600 30 l 1
 550 10 481 -5 434 -5 c 0
 292 -5 167 67 167 278 c 2
EndSplineSet
EndChar

StartChar: e
Encoding: 101 101 139
Width: 1070
VWidth: 0
GlyphClass: 2
Flags: HW
LayerCount: 2
UndoRedoHistory
Layer: 1
Undoes
EndUndoes
Redoes
EndRedoes
EndUndoRedoHistory
Fore
SplineSet
611 907 m 0
 445 907 270 786 270 539 c 0
 270 525 271 506 273 490 c 1
 581 534 801 594 801 755 c 0
 801 846 732 907 611 907 c 0
610 1048 m 0
 826 1048 964 918 964 751 c 0
 964 506 673 425 285 371 c 1
 325 219 471 116 619 116 c 0
 758 116 881 176 948 252 c 1
 1031 146 l 1
 931 43 779 -22 619 -22 c 0
 315 -22 90 187 90 516 c 0
 90 797 281 1048 610 1048 c 0
EndSplineSet
EndChar

StartChar: e.alt
Encoding: 65539 -1 140
Width: 1073
VWidth: 0
GlyphClass: 2
Flags: HW
LayerCount: 2
UndoRedoHistory
Layer: 1
Undoes
EndUndoes
Redoes
EndRedoes
EndUndoRedoHistory
Fore
SplineSet
783 755 m 0
 783 846 714 913 593 913 c 0
 392 913 274 735 274 539 c 0
 274 523 275 507 277 490 c 1
 563 534 783 594 783 755 c 0
94 516 m 0
 94 805 269 1056 592 1056 c 0
 808 1056 946 918 946 751 c 0
 946 506 655 425 289 371 c 1
 334 192 462 123 596 123 c 0
 735 123 856 187 930 276 c 1
 1013 170 l 1
 895 46 758 -19 589 -19 c 0
 325 -19 94 176 94 516 c 0
EndSplineSet
EndChar

StartChar: eacute
Encoding: 233 233 141
Width: 1070
VWidth: 0
GlyphClass: 2
Flags: HW
LayerCount: 2
UndoRedoHistory
Layer: 1
Undoes
EndUndoes
Redoes
EndRedoes
EndUndoRedoHistory
Fore
SplineSet
611 907 m 0
 445 907 270 786 270 539 c 0
 270 525 271 506 273 490 c 1
 581 534 801 594 801 755 c 0
 801 846 732 907 611 907 c 0
610 1048 m 0
 826 1048 964 918 964 751 c 0
 964 506 673 425 285 371 c 1
 325 219 471 116 619 116 c 0
 758 116 881 176 948 252 c 1
 1031 146 l 1
 931 43 779 -22 619 -22 c 0
 315 -22 90 187 90 516 c 0
 90 797 281 1048 610 1048 c 0
527 1178 m 1
 753 1498 l 1
 965 1498 l 1
 657 1178 l 1
 527 1178 l 1
EndSplineSet
EndChar

StartChar: ecircumflex
Encoding: 234 234 142
Width: 1070
VWidth: 0
GlyphClass: 2
Flags: HW
LayerCount: 2
UndoRedoHistory
Layer: 1
Undoes
EndUndoes
Redoes
EndRedoes
EndUndoRedoHistory
Fore
SplineSet
611 907 m 0
 445 907 270 786 270 539 c 0
 270 525 271 506 273 490 c 1
 581 534 801 594 801 755 c 0
 801 846 732 907 611 907 c 0
610 1048 m 0
 826 1048 964 918 964 751 c 0
 964 506 673 425 285 371 c 1
 325 219 471 116 619 116 c 0
 758 116 881 176 948 252 c 1
 1031 146 l 1
 931 43 779 -22 619 -22 c 0
 315 -22 90 187 90 516 c 0
 90 797 281 1048 610 1048 c 0
285 1178 m 1
 513 1502 l 1
 670 1502 l 1
 899 1178 l 1
 767 1178 l 1
 589 1394 l 1
 411 1178 l 1
 285 1178 l 1
EndSplineSet
EndChar

StartChar: edieresis
Encoding: 235 235 143
Width: 1070
VWidth: 0
GlyphClass: 2
Flags: HW
LayerCount: 2
UndoRedoHistory
Layer: 1
Undoes
EndUndoes
Redoes
EndRedoes
EndUndoRedoHistory
Fore
SplineSet
611 907 m 0
 445 907 270 786 270 539 c 0
 270 525 271 506 273 490 c 1
 581 534 801 594 801 755 c 0
 801 846 732 907 611 907 c 0
610 1048 m 0
 826 1048 964 918 964 751 c 0
 964 506 673 425 285 371 c 1
 325 219 471 116 619 116 c 0
 758 116 881 176 948 252 c 1
 1031 146 l 1
 931 43 779 -22 619 -22 c 0
 315 -22 90 187 90 516 c 0
 90 797 281 1048 610 1048 c 0
676 1178 m 1
 676 1341 l 1
 840 1341 l 1
 840 1178 l 1
 676 1178 l 1
344 1178 m 1
 344 1341 l 1
 508 1341 l 1
 508 1178 l 1
 344 1178 l 1
EndSplineSet
EndChar

StartChar: egrave
Encoding: 232 232 144
Width: 1070
VWidth: 0
GlyphClass: 2
Flags: HW
LayerCount: 2
UndoRedoHistory
Layer: 1
Undoes
EndUndoes
Redoes
EndRedoes
EndUndoRedoHistory
Fore
SplineSet
527 1172 m 1
 195 1492 l 1
 409 1492 l 1
 656 1172 l 1
 527 1172 l 1
611 907 m 0
 445 907 270 786 270 539 c 0
 270 525 271 506 273 490 c 1
 581 534 801 594 801 755 c 0
 801 846 732 907 611 907 c 0
610 1048 m 0
 826 1048 964 918 964 751 c 0
 964 506 673 425 285 371 c 1
 325 219 471 116 619 116 c 0
 758 116 881 176 948 252 c 1
 1031 146 l 1
 931 43 779 -22 619 -22 c 0
 315 -22 90 187 90 516 c 0
 90 797 281 1048 610 1048 c 0
EndSplineSet
EndChar

StartChar: eight
Encoding: 56 56 145
Width: 1196
VWidth: 0
GlyphClass: 2
Flags: HW
LayerCount: 2
UndoRedoHistory
Layer: 1
Undoes
EndUndoes
Redoes
EndRedoes
EndUndoRedoHistory
Fore
SplineSet
885 1086 m 0
 885 1242 754 1317 598 1317 c 0
 473 1317 378 1268 334 1185 c 0
 319 1156 311 1123 311 1086 c 0
 311 917 441 849 598 820 c 1
 755 849 885 917 885 1086 c 0
891 268 m 0
 907 300 915 337 915 380 c 0
 915 567 755 641 598 673 c 1
 468 647 356 592 305 489 c 0
 289 457 281 421 281 380 c 0
 281 201 418 119 598 119 c 0
 740 119 844 172 891 268 c 0
145 200 m 0
 118 248 104 304 104 367 c 0
 104 580 241 694 420 747 c 1
 262 796 139 898 139 1091 c 0
 139 1280 270 1384 419 1428 c 0
 475 1444 534 1453 598 1453 c 0
 799 1453 951 1376 1021 1244 c 0
 1045 1199 1057 1148 1057 1091 c 0
 1057 898 934 796 776 747 c 1
 955 694 1092 580 1092 367 c 0
 1092 230 1026 138 943 78 c 0
 859 17 737 -23 598 -23 c 0
 385 -23 222 62 145 200 c 0
EndSplineSet
EndChar

StartChar: ellipsis
Encoding: 8230 8230 146
Width: 1620
VWidth: 0
GlyphClass: 2
Flags: HW
LayerCount: 2
UndoRedoHistory
Layer: 1
Undoes
EndUndoes
Redoes
EndRedoes
EndUndoRedoHistory
Fore
SplineSet
1239 -11 m 1
 1239 199 l 1
 1456 199 l 1
 1456 -11 l 1
 1239 -11 l 1
699 -11 m 1
 699 199 l 1
 916 199 l 1
 916 -11 l 1
 699 -11 l 1
159 -11 m 1
 159 199 l 1
 376 199 l 1
 376 -11 l 1
 159 -11 l 1
EndSplineSet
EndChar

StartChar: emacron
Encoding: 275 275 147
Width: 1070
VWidth: 0
GlyphClass: 2
Flags: HW
LayerCount: 2
UndoRedoHistory
Layer: 1
Undoes
EndUndoes
Redoes
EndRedoes
EndUndoRedoHistory
Fore
SplineSet
276 1183 m 1
 276 1317 l 1
 848 1317 l 1
 848 1183 l 1
 276 1183 l 1
611 907 m 0
 445 907 270 786 270 539 c 0
 270 525 271 506 273 490 c 1
 581 534 801 594 801 755 c 0
 801 846 732 907 611 907 c 0
610 1048 m 0
 826 1048 964 918 964 751 c 0
 964 506 673 425 285 371 c 1
 325 219 471 116 619 116 c 0
 758 116 881 176 948 252 c 1
 1031 146 l 1
 931 43 779 -22 619 -22 c 0
 315 -22 90 187 90 516 c 0
 90 797 281 1048 610 1048 c 0
EndSplineSet
EndChar

StartChar: emdash
Encoding: 8212 8212 148
Width: 2171
VWidth: 0
GlyphClass: 2
Flags: HW
LayerCount: 2
UndoRedoHistory
Layer: 1
Undoes
EndUndoes
Redoes
EndRedoes
EndUndoRedoHistory
Fore
SplineSet
-3 489 m 1
 -3 626 l 1
 2160 626 l 1
 2160 489 l 1
 -3 489 l 1
EndSplineSet
EndChar

StartChar: endash
Encoding: 8211 8211 149
Width: 1085
VWidth: 0
GlyphClass: 2
Flags: HW
LayerCount: 2
UndoRedoHistory
Layer: 1
Undoes
EndUndoes
Redoes
EndRedoes
EndUndoRedoHistory
Fore
SplineSet
-6 489 m 1
 -6 626 l 1
 1084 626 l 1
 1084 489 l 1
 -6 489 l 1
EndSplineSet
EndChar

StartChar: eogonek
Encoding: 281 281 150
Width: 1070
VWidth: 0
GlyphClass: 2
Flags: HW
LayerCount: 2
UndoRedoHistory
Layer: 1
Undoes
EndUndoes
Redoes
EndRedoes
EndUndoRedoHistory
Fore
SplineSet
510 -260 m 0
 499 -240 493 -216 493 -189 c 0
 493 -131 527 -86 560 -53 c 0
 571 -42 582 -32 595 -22 c 1
 303 -11 90 196 90 516 c 0
 90 797 281 1048 610 1048 c 0
 826 1048 964 918 964 751 c 0
 964 506 673 425 285 371 c 1
 325 219 471 116 619 116 c 0
 758 116 881 176 948 252 c 1
 1031 146 l 1
 965 78 876 26 777 -1 c 1
 727 -33 679 -68 649 -115 c 0
 639 -131 634 -147 634 -163 c 0
 634 -214 683 -245 734 -245 c 0
 798 -245 842 -232 888 -214 c 1
 888 -325 l 1
 842 -344 775 -354 711 -354 c 0
 617 -354 544 -321 510 -260 c 0
611 907 m 0
 445 907 270 786 270 539 c 0
 270 525 271 506 273 490 c 1
 581 534 801 594 801 755 c 0
 801 846 732 907 611 907 c 0
EndSplineSet
EndChar

StartChar: equal
Encoding: 61 61 151
Width: 1458
VWidth: 0
GlyphClass: 2
Flags: HW
LayerCount: 2
UndoRedoHistory
Layer: 1
Undoes
EndUndoes
Redoes
EndRedoes
EndUndoRedoHistory
Fore
SplineSet
197 689 m 1
 197 827 l 1
 1246 827 l 1
 1246 689 l 1
 197 689 l 1
198 283 m 1
 198 420 l 1
 1247 420 l 1
 1247 283 l 1
 198 283 l 1
EndSplineSet
EndChar

StartChar: eth
Encoding: 240 240 152
Width: 1190
VWidth: 0
GlyphClass: 2
Flags: HW
LayerCount: 2
UndoRedoHistory
Layer: 1
Undoes
EndUndoes
Redoes
EndRedoes
EndUndoRedoHistory
Fore
SplineSet
903 512 m 2
 903 536 l 1
 859 664 742 757 572 757 c 0
 373 757 264 638 264 441 c 0
 264 291 339 188 446 142 c 0
 484 126 526 118 573 118 c 0
 798 118 903 290 903 512 c 2
122 261 m 0
 99 318 88 380 88 446 c 0
 88 662 199 802 356 864 c 0
 412 886 475 897 545 897 c 0
 725 897 846 838 918 723 c 1
 918 733 l 1
 917 847 906 937 882 1026 c 1
 620 1026 l 1
 620 1163 l 1
 826 1163 l 1
 766 1271 684 1344 574 1406 c 1
 653 1490 l 1
 812 1428 920 1315 993 1163 c 1
 1190 1163 l 1
 1190 1026 l 1
 1045 1026 l 1
 1075 921 1093 805 1093 672 c 0
 1093 361 1006 121 798 22 c 0
 734 -8 662 -23 581 -23 c 0
 347 -23 189 93 122 261 c 0
EndSplineSet
EndChar

StartChar: exclam
Encoding: 33 33 153
Width: 737
VWidth: 0
GlyphClass: 2
Flags: HW
LayerCount: 2
UndoRedoHistory
Layer: 1
Undoes
EndUndoes
Redoes
EndRedoes
EndUndoRedoHistory
Fore
SplineSet
305 373 m 1
 254 1456 l 1
 441 1456 l 1
 391 373 l 1
 305 373 l 1
239 106 m 0
 239 176 296 217 353 217 c 0
 426 217 466 165 466 105 c 0
 466 35 409 -6 352 -6 c 0
 279 -6 239 46 239 106 c 0
EndSplineSet
EndChar

StartChar: exclamdown
Encoding: 161 161 154
Width: 737
VWidth: 0
GlyphClass: 2
Flags: HW
LayerCount: 2
UndoRedoHistory
Layer: 1
Undoes
EndUndoes
Redoes
EndRedoes
EndUndoRedoHistory
Fore
SplineSet
305 1077 m 1
 391 1077 l 1
 441 -6 l 1
 254 -6 l 1
 305 1077 l 1
239 1344 m 0
 239 1404 279 1456 352 1456 c 0
 409 1456 466 1415 466 1345 c 0
 466 1285 426 1233 353 1233 c 0
 296 1233 239 1274 239 1344 c 0
EndSplineSet
EndChar

StartChar: f
Encoding: 102 102 155
Width: 699
VWidth: 0
GlyphClass: 2
Flags: HW
LayerCount: 2
UndoRedoHistory
Layer: 1
Undoes
EndUndoes
Redoes
EndRedoes
EndUndoRedoHistory
Fore
SplineSet
541 1532 m 0
 595 1532 655 1521 719 1499 c 1
 695 1392 l 1
 658 1401 620 1409 584 1409 c 0
 467 1409 417 1344 417 1193 c 2
 417 1026 l 1
 665 1026 l 1
 665 919 l 1
 417 919 l 1
 417 -11 l 2
 417 -261 330 -418 91 -449 c 1
 70 -328 l 1
 190 -299 253 -194 253 -34 c 2
 253 919 l 1
 51 919 l 1
 51 1026 l 1
 253 1026 l 1
 253 1170 l 2
 253 1423 339 1532 541 1532 c 0
EndSplineSet
EndChar

StartChar: five
Encoding: 53 53 156
Width: 1190
VWidth: 0
GlyphClass: 2
Flags: HW
LayerCount: 2
UndoRedoHistory
Layer: 1
Undoes
EndUndoes
Redoes
EndRedoes
EndUndoRedoHistory
Fore
SplineSet
147 173 m 1
 228 289 l 1
 295 190 396 119 546 119 c 0
 713 119 823 202 868 324 c 0
 883 364 891 407 891 452 c 0
 891 595 823 690 721 734 c 0
 684 750 641 758 593 758 c 0
 495 758 419 718 379 658 c 1
 203 652 l 1
 203 1425 l 1
 994 1425 l 1
 994 1280 l 1
 366 1280 l 1
 352 839 l 1
 421 879 496 905 599 905 c 0
 824 905 972 793 1036 630 c 0
 1058 574 1068 514 1068 449 c 0
 1068 220 936 78 766 14 c 0
 702 -10 629 -23 548 -23 c 0
 357 -23 223 55 147 173 c 1
EndSplineSet
EndChar

StartChar: florin
Encoding: 402 402 157
Width: 1190
VWidth: 0
GlyphClass: 2
Flags: HW
LayerCount: 2
UndoRedoHistory
Layer: 1
Undoes
EndUndoes
Redoes
EndRedoes
EndUndoRedoHistory
Fore
SplineSet
73 -316 m 1
 85 -178 l 1
 112 -189 138 -194 163 -194 c 0
 275 -194 312 -84 334 7 c 0
 397 260 436 538 487 803 c 1
 332 803 l 1
 342 943 l 1
 511 943 l 1
 534 1094 l 1
 560 1288 643 1436 865 1436 c 0
 915 1436 964 1428 1008 1417 c 1
 1000 1272 l 1
 967 1285 931 1294 891 1294 c 0
 776 1294 736 1236 718 1139 c 2
 682 943 l 1
 882 943 l 1
 872 803 l 1
 659 803 l 1
 532 120 l 1
 499 -52 457 -218 330 -295 c 0
 290 -320 238 -332 177 -332 c 0
 146 -332 111 -327 73 -316 c 1
EndSplineSet
EndChar

StartChar: four
Encoding: 52 52 158
Width: 1189
VWidth: 0
GlyphClass: 2
Flags: HW
LayerCount: 2
UndoRedoHistory
Layer: 1
Undoes
EndUndoes
Redoes
EndRedoes
EndUndoRedoHistory
Fore
SplineSet
196 483 m 1
 726 483 l 1
 726 1292 l 1
 638 1146 l 1
 196 483 l 1
726 0 m 1
 726 351 l 1
 25 351 l 1
 25 475 l 1
 690 1420 l 1
 898 1420 l 1
 898 483 l 1
 1112 483 l 1
 1112 351 l 1
 898 351 l 1
 898 0 l 1
 726 0 l 1
EndSplineSet
EndChar

StartChar: fraction
Encoding: 8260 8260 159
Width: 368
VWidth: 0
GlyphClass: 2
Flags: HW
LayerCount: 2
UndoRedoHistory
Layer: 1
Undoes
EndUndoes
Redoes
EndRedoes
EndUndoRedoHistory
Fore
SplineSet
-337 0 m 1
 568 1436 l 1
 717 1436 l 1
 -186 0 l 1
 -337 0 l 1
EndSplineSet
EndChar

StartChar: g
Encoding: 103 103 160
Width: 1143
VWidth: 0
GlyphClass: 2
Flags: HW
LayerCount: 2
UndoRedoHistory
Layer: 1
Undoes
EndUndoes
Redoes
EndRedoes
EndUndoRedoHistory
Fore
SplineSet
663 907 m 0
 421 907 260 723 260 448 c 0
 260 249 368 116 531 116 c 0
 728 116 859 261 859 453 c 2
 859 872 l 1
 817 893 739 907 663 907 c 0
666 1048 m 0
 800 1048 943 1014 1023 962 c 1
 1023 -23 l 2
 1023 -306 824 -494 525 -494 c 0
 424 -494 290 -470 189 -433 c 1
 208 -280 l 1
 300 -326 422 -357 511 -357 c 0
 720 -357 859 -232 859 -44 c 2
 859 133 l 1
 784 39 648 -22 506 -22 c 0
 256 -22 90 162 90 438 c 0
 90 804 320 1048 666 1048 c 0
EndSplineSet
EndChar

StartChar: gcommaaccent
Encoding: 291 291 161
Width: 1143
VWidth: 0
GlyphClass: 2
Flags: HW
LayerCount: 2
UndoRedoHistory
Layer: 1
Undoes
EndUndoes
Redoes
EndRedoes
EndUndoRedoHistory
Fore
SplineSet
717 1625 m 1
 610 1162 l 1
 423 1162 l 1
 586 1625 l 1
 717 1625 l 1
663 907 m 0
 421 907 260 723 260 448 c 0
 260 249 368 116 531 116 c 0
 728 116 859 261 859 453 c 2
 859 872 l 1
 817 893 739 907 663 907 c 0
666 1048 m 0
 800 1048 943 1014 1023 962 c 1
 1023 -23 l 2
 1023 -306 824 -494 525 -494 c 0
 424 -494 290 -470 189 -433 c 1
 208 -280 l 1
 300 -326 422 -357 511 -357 c 0
 720 -357 859 -232 859 -44 c 2
 859 133 l 1
 784 39 648 -22 506 -22 c 0
 256 -22 90 162 90 438 c 0
 90 804 320 1048 666 1048 c 0
EndSplineSet
EndChar

StartChar: germandbls
Encoding: 223 223 162
Width: 1257
VWidth: 0
GlyphClass: 2
Flags: HW
LayerCount: 2
UndoRedoHistory
Layer: 1
Undoes
EndUndoes
Redoes
EndRedoes
EndUndoRedoHistory
Fore
SplineSet
471 138 m 1
 536 243 l 1
 597 173 679 109 788 109 c 0
 911 109 986 197 986 322 c 0
 986 437 924 512 858 570 c 0
 777 641 672 699 572 756 c 1
 588 892 l 1
 681 934 763 1001 804 1095 c 0
 817 1125 823 1157 823 1191 c 0
 823 1318 731 1382 603 1382 c 0
 413 1382 337 1228 337 1038 c 0
 337 937 338 820 338 711 c 0
 338 587 340 450 340 326 c 0
 340 217 341 101 341 0 c 1
 176 0 l 1
 174 1071 l 2
 174 1282 267 1420 420 1480 c 0
 474 1501 535 1511 604 1511 c 0
 788 1511 925 1440 984 1316 c 0
 1002 1277 1011 1236 1011 1192 c 0
 1011 1093 955 1020 903 968 c 0
 852 916 788 868 719 838 c 0
 710 834 693 827 693 816 c 0
 693 810 703 804 722 798 c 0
 896 747 1054 661 1133 514 c 0
 1160 464 1173 407 1173 341 c 0
 1173 164 1064 52 934 3 c 0
 888 -14 841 -23 792 -23 c 0
 648 -23 543 47 471 138 c 1
EndSplineSet
EndChar

StartChar: grave
Encoding: 96 96 163
Width: 593
VWidth: 0
GlyphClass: 2
Flags: HW
LayerCount: 2
UndoRedoHistory
Layer: 1
Undoes
EndUndoes
Redoes
EndRedoes
EndUndoRedoHistory
Fore
SplineSet
333 1172 m 1
 1 1492 l 1
 215 1492 l 1
 462 1172 l 1
 333 1172 l 1
EndSplineSet
EndChar

StartChar: greater
Encoding: 62 62 164
Width: 1458
VWidth: 0
GlyphClass: 2
Flags: HW
LayerCount: 2
UndoRedoHistory
Layer: 1
Undoes
EndUndoes
Redoes
EndRedoes
EndUndoRedoHistory
Fore
SplineSet
215 58 m 1
 215 212 l 1
 1004 555 l 1
 220 926 l 1
 220 1078 l 1
 1225 594 l 1
 1225 505 l 1
 215 58 l 1
EndSplineSet
EndChar

StartChar: greaterequal
Encoding: 8805 8805 165
Width: 1350
VWidth: 0
GlyphClass: 2
Flags: HW
LayerCount: 2
UndoRedoHistory
Layer: 1
Undoes
EndUndoes
Redoes
EndRedoes
EndUndoRedoHistory
Fore
SplineSet
161 9 m 1
 161 131 l 1
 1171 131 l 1
 1171 9 l 1
 161 9 l 1
192 218 m 1
 192 359 l 1
 974 707 l 1
 196 1081 l 1
 196 1221 l 1
 1152 748 l 1
 1152 668 l 1
 192 218 l 1
EndSplineSet
EndChar

StartChar: guillemotleft
Encoding: 171 171 166
Width: 1156
VWidth: 0
GlyphClass: 2
Flags: HW
LayerCount: 2
UndoRedoHistory
Layer: 1
Undoes
EndUndoes
Redoes
EndRedoes
EndUndoRedoHistory
Fore
SplineSet
885 171 m 1
 616 541 l 1
 890 914 l 1
 1049 914 l 1
 786 541 l 1
 1042 171 l 1
 885 171 l 1
515 171 m 1
 246 541 l 1
 521 914 l 1
 681 914 l 1
 416 541 l 1
 672 171 l 1
 515 171 l 1
EndSplineSet
EndChar

StartChar: guillemotright
Encoding: 187 187 167
Width: 1156
VWidth: 0
GlyphClass: 2
Flags: HW
LayerCount: 2
UndoRedoHistory
Layer: 1
Undoes
EndUndoes
Redoes
EndRedoes
EndUndoRedoHistory
Fore
SplineSet
563 171 m 1
 824 542 l 1
 570 914 l 1
 726 914 l 1
 996 542 l 1
 720 171 l 1
 563 171 l 1
165 171 m 1
 430 542 l 1
 172 914 l 1
 330 914 l 1
 600 542 l 1
 325 171 l 1
 165 171 l 1
EndSplineSet
EndChar

StartChar: guilsinglleft
Encoding: 8249 8249 168
Width: 642
VWidth: 0
GlyphClass: 2
Flags: HW
LayerCount: 2
UndoRedoHistory
Layer: 1
Undoes
EndUndoes
Redoes
EndRedoes
EndUndoRedoHistory
Fore
SplineSet
374 171 m 1
 105 541 l 1
 379 914 l 1
 538 914 l 1
 275 541 l 1
 530 171 l 1
 374 171 l 1
EndSplineSet
EndChar

StartChar: guilsinglright
Encoding: 8250 8250 169
Width: 642
VWidth: 0
GlyphClass: 2
Flags: HW
LayerCount: 2
UndoRedoHistory
Layer: 1
Undoes
EndUndoes
Redoes
EndRedoes
EndUndoRedoHistory
Fore
SplineSet
103 171 m 1
 365 542 l 1
 111 914 l 1
 266 914 l 1
 537 542 l 1
 260 171 l 1
 103 171 l 1
EndSplineSet
EndChar

StartChar: h
Encoding: 104 104 170
Width: 1222
VWidth: 0
GlyphClass: 2
Flags: HW
LayerCount: 2
UndoRedoHistory
Layer: 1
Undoes
EndUndoes
Redoes
EndRedoes
EndUndoRedoHistory
Fore
SplineSet
152 1506 m 1
 316 1526 l 1
 316 875 l 1
 384 980 534 1048 686 1048 c 0
 918 1048 1035 903 1032 565 c 2
 1030 320 l 2
 1029 167 1022 95 1146 119 c 1
 1130 -19 l 1
 912 -51 863 48 865 284 c 2
 867 562 l 1
 867 804 805 907 651 907 c 0
 499 907 316 795 316 532 c 2
 316 0 l 1
 152 0 l 1
 152 1506 l 1
EndSplineSet
EndChar

StartChar: hbar
Encoding: 295 295 171
Width: 1222
VWidth: 0
GlyphClass: 2
Flags: HW
LayerCount: 2
UndoRedoHistory
Layer: 1
Undoes
EndUndoes
Redoes
EndRedoes
EndUndoRedoHistory
Fore
SplineSet
331 1624 m 1
 331 1758 l 1
 903 1758 l 1
 903 1624 l 1
 331 1624 l 1
152 1506 m 1
 316 1526 l 1
 316 875 l 1
 384 980 534 1048 686 1048 c 0
 918 1048 1035 903 1032 565 c 2
 1030 320 l 2
 1029 167 1022 95 1146 119 c 1
 1130 -19 l 1
 912 -51 863 48 865 284 c 2
 867 562 l 1
 867 804 805 907 651 907 c 0
 499 907 316 795 316 532 c 2
 316 0 l 1
 152 0 l 1
 152 1506 l 1
EndSplineSet
EndChar

StartChar: hungarumlaut
Encoding: 733 733 172
Width: 969
VWidth: 0
GlyphClass: 2
Flags: HW
LayerCount: 2
UndoRedoHistory
Layer: 1
Undoes
EndUndoes
Redoes
EndRedoes
EndUndoRedoHistory
Fore
SplineSet
429 1174 m 1
 649 1487 l 1
 825 1487 l 1
 549 1174 l 1
 429 1174 l 1
162 1174 m 1
 379 1487 l 1
 555 1487 l 1
 280 1174 l 1
 162 1174 l 1
EndSplineSet
EndChar

StartChar: hyphen
Encoding: 45 45 173
Width: 728
VWidth: 0
GlyphClass: 2
Flags: HW
LayerCount: 2
UndoRedoHistory
Layer: 1
Undoes
EndUndoes
Redoes
EndRedoes
EndUndoRedoHistory
Fore
SplineSet
79 489 m 1
 79 626 l 1
 651 626 l 1
 651 489 l 1
 79 489 l 1
EndSplineSet
EndChar

StartChar: i
Encoding: 105 105 174
Width: 603
VWidth: 0
GlyphClass: 2
Flags: HW
LayerCount: 2
UndoRedoHistory
Layer: 1
Undoes
EndUndoes
Redoes
EndRedoes
EndUndoRedoHistory
Fore
SplineSet
252 1444 m 0
 306 1444 359 1410 359 1344 c 0
 359 1278 305 1245 251 1245 c 0
 197 1245 144 1279 144 1345 c 0
 144 1411 198 1444 252 1444 c 0
167 1026 m 1
 331 1026 l 1
 331 267 l 2
 331 74 466 96 602 145 c 1
 625 26 l 1
 393 -69 167 -19 167 262 c 2
 167 1026 l 1
EndSplineSet
EndChar

StartChar: iacute
Encoding: 237 237 175
Width: 503
VWidth: 0
GlyphClass: 2
Flags: HW
LayerCount: 2
UndoRedoHistory
Layer: 1
Undoes
EndUndoes
Redoes
EndRedoes
EndUndoRedoHistory
Fore
SplineSet
167 278 m 2
 167 1026 l 1
 332 1026 l 1
 332 283 l 2
 332 143 389 118 457 118 c 0
 487 118 545 128 580 141 c 1
 600 30 l 1
 550 10 481 -5 434 -5 c 0
 292 -5 167 67 167 278 c 2
185 1173 m 1
 411 1493 l 1
 623 1493 l 1
 315 1173 l 1
 185 1173 l 1
EndSplineSet
EndChar

StartChar: icircumflex
Encoding: 238 238 176
Width: 503
VWidth: 0
GlyphClass: 2
Flags: HW
LayerCount: 2
UndoRedoHistory
Layer: 1
Undoes
EndUndoes
Redoes
EndRedoes
EndUndoRedoHistory
Fore
SplineSet
167 278 m 2
 167 1026 l 1
 332 1026 l 1
 332 283 l 2
 332 143 389 118 457 118 c 0
 487 118 545 128 580 141 c 1
 600 30 l 1
 550 10 481 -5 434 -5 c 0
 292 -5 167 67 167 278 c 2
-57 1173 m 1
 171 1497 l 1
 328 1497 l 1
 557 1173 l 1
 425 1173 l 1
 247 1389 l 1
 69 1173 l 1
 -57 1173 l 1
EndSplineSet
EndChar

StartChar: idieresis
Encoding: 239 239 177
Width: 503
VWidth: 0
GlyphClass: 2
Flags: HW
LayerCount: 2
UndoRedoHistory
Layer: 1
Undoes
EndUndoes
Redoes
EndRedoes
EndUndoRedoHistory
Fore
SplineSet
167 278 m 2
 167 1026 l 1
 332 1026 l 1
 332 283 l 2
 332 143 389 118 457 118 c 0
 487 118 545 128 580 141 c 1
 600 30 l 1
 550 10 481 -5 434 -5 c 0
 292 -5 167 67 167 278 c 2
334 1173 m 1
 334 1336 l 1
 498 1336 l 1
 498 1173 l 1
 334 1173 l 1
2 1173 m 1
 2 1336 l 1
 166 1336 l 1
 166 1173 l 1
 2 1173 l 1
EndSplineSet
EndChar

StartChar: igrave
Encoding: 236 236 178
Width: 503
VWidth: 0
GlyphClass: 2
Flags: HW
LayerCount: 2
UndoRedoHistory
Layer: 1
Undoes
EndUndoes
Redoes
EndRedoes
EndUndoRedoHistory
Fore
SplineSet
217 1172 m 1
 -115 1492 l 1
 99 1492 l 1
 346 1172 l 1
 217 1172 l 1
167 278 m 2
 167 1026 l 1
 332 1026 l 1
 332 283 l 2
 332 143 389 118 457 118 c 0
 487 118 545 128 580 141 c 1
 600 30 l 1
 550 10 481 -5 434 -5 c 0
 292 -5 167 67 167 278 c 2
EndSplineSet
EndChar

StartChar: ij
Encoding: 307 307 179
Width: 1142
VWidth: 0
GlyphClass: 2
Flags: HW
LayerCount: 2
UndoRedoHistory
Layer: 1
Undoes
EndUndoes
Redoes
EndRedoes
EndUndoRedoHistory
Fore
SplineSet
894 1444 m 0
 948 1444 1001 1410 1001 1344 c 0
 1001 1278 947 1245 893 1245 c 0
 839 1245 786 1279 786 1345 c 0
 786 1411 840 1444 894 1444 c 0
810 1026 m 1
 974 1026 l 1
 974 35 l 2
 974 -416 729 -523 441 -435 c 1
 460 -307 l 1
 640 -367 810 -340 810 29 c 2
 810 1026 l 1
252 1444 m 0
 306 1444 359 1410 359 1344 c 0
 359 1278 305 1245 251 1245 c 0
 197 1245 144 1279 144 1345 c 0
 144 1411 198 1444 252 1444 c 0
167 1026 m 1
 331 1026 l 1
 331 267 l 2
 331 74 466 96 602 145 c 1
 625 26 l 1
 393 -69 167 -19 167 262 c 2
 167 1026 l 1
EndSplineSet
EndChar

StartChar: imacron
Encoding: 299 299 180
Width: 503
VWidth: 0
GlyphClass: 2
Flags: HW
LayerCount: 2
UndoRedoHistory
Layer: 1
Undoes
EndUndoes
Redoes
EndRedoes
EndUndoRedoHistory
Fore
SplineSet
-34 1183 m 1
 -34 1317 l 1
 538 1317 l 1
 538 1183 l 1
 -34 1183 l 1
167 278 m 2
 167 1026 l 1
 332 1026 l 1
 332 283 l 2
 332 143 389 118 457 118 c 0
 487 118 545 128 580 141 c 1
 600 30 l 1
 550 10 481 -5 434 -5 c 0
 292 -5 167 67 167 278 c 2
EndSplineSet
EndChar

StartChar: infinity
Encoding: 8734 8734 181
Width: 1724
VWidth: 0
GlyphClass: 2
Flags: HW
LayerCount: 2
UndoRedoHistory
Layer: 1
Undoes
EndUndoes
Redoes
EndRedoes
EndUndoRedoHistory
Fore
SplineSet
1482 618 m 0
 1482 717 1420 782 1348 812 c 0
 1320 823 1291 829 1258 829 c 0
 1182 829 1122 793 1075 756 c 0
 1019 712 970 652 929 592 c 1
 982 523 1031 463 1095 415 c 0
 1141 380 1190 355 1263 355 c 0
 1414 355 1482 466 1482 618 c 0
640 424 m 0
 697 468 747 529 791 589 c 1
 729 679 658 768 552 810 c 0
 521 822 488 829 453 829 c 0
 341 829 272 766 242 683 c 0
 232 654 226 624 226 592 c 0
 226 485 290 410 366 375 c 0
 395 362 427 355 463 355 c 0
 538 355 594 388 640 424 c 0
122 467 m 0
 104 512 96 561 96 612 c 0
 96 715 146 795 204 847 c 0
 262 900 350 944 455 944 c 0
 600 944 696 873 772 796 c 0
 803 765 833 730 862 692 c 1
 936 789 1019 884 1144 926 c 0
 1180 938 1219 944 1262 944 c 0
 1434 944 1547 859 1596 735 c 0
 1613 692 1621 646 1621 595 c 0
 1621 425 1522 311 1398 262 c 0
 1354 245 1308 236 1260 236 c 0
 1186 236 1117 257 1054 299 c 0
 991 341 926 404 860 488 c 1
 785 391 698 297 574 254 c 0
 538 242 500 236 460 236 c 0
 285 236 172 339 122 467 c 0
EndSplineSet
EndChar

StartChar: integral
Encoding: 8747 8747 182
Width: 702
VWidth: 0
GlyphClass: 2
Flags: HW
LayerCount: 2
UndoRedoHistory
Layer: 1
Undoes
EndUndoes
Redoes
EndRedoes
EndUndoRedoHistory
Fore
SplineSet
124 -378 m 1
 122 -249 l 1
 148 -259 195 -264 232 -264 c 0
 368 -264 393 -183 393 -47 c 2
 393 1255 l 2
 393 1477 469 1631 692 1631 c 0
 747 1631 784 1620 828 1610 c 1
 830 1481 l 1
 804 1491 757 1496 720 1496 c 0
 584 1496 557 1415 557 1279 c 2
 557 -23 l 2
 557 -245 483 -399 260 -399 c 0
 201 -399 172 -391 124 -378 c 1
EndSplineSet
EndChar

StartChar: iogonek
Encoding: 303 303 183
Width: 603
VWidth: 0
GlyphClass: 2
Flags: HW
LayerCount: 2
UndoRedoHistory
Layer: 1
Undoes
EndUndoes
Redoes
EndRedoes
EndUndoRedoHistory
Fore
SplineSet
69 -296 m 0
 58 -276 52 -252 52 -225 c 0
 52 -167 86 -122 119 -89 c 0
 159 -49 213 -14 267 12 c 1
 295 9 l 1
 217 48 167 129 167 262 c 2
 167 1026 l 1
 331 1026 l 1
 331 267 l 2
 331 74 466 96 602 145 c 1
 625 26 l 1
 536 -11 447 -25 372 -14 c 1
 310 -52 245 -93 208 -151 c 0
 198 -167 193 -183 193 -199 c 0
 193 -250 242 -281 293 -281 c 0
 357 -281 401 -268 447 -250 c 1
 447 -361 l 1
 401 -380 334 -390 270 -390 c 0
 176 -390 103 -357 69 -296 c 0
252 1444 m 0
 306 1444 359 1410 359 1344 c 0
 359 1278 305 1245 251 1245 c 0
 197 1245 144 1279 144 1345 c 0
 144 1411 198 1444 252 1444 c 0
EndSplineSet
EndChar

StartChar: itilde
Encoding: 297 297 184
Width: 503
VWidth: 0
GlyphClass: 2
Flags: HW
LayerCount: 2
UndoRedoHistory
Layer: 1
Undoes
EndUndoes
Redoes
EndRedoes
EndUndoRedoHistory
Fore
SplineSet
129 1413 m 0
 205 1413 262 1377 320 1356 c 0
 340 1349 360 1345 379 1345 c 0
 432 1345 459 1384 466 1435 c 1
 574 1435 l 1
 561 1322 503 1220 379 1220 c 0
 283 1220 221 1288 126 1288 c 0
 72 1288 42 1260 35 1203 c 1
 -70 1203 l 1
 -60 1319 5 1413 129 1413 c 0
167 278 m 2
 167 1026 l 1
 332 1026 l 1
 332 283 l 2
 332 143 389 118 457 118 c 0
 487 118 545 128 580 141 c 1
 600 30 l 1
 550 10 481 -5 434 -5 c 0
 292 -5 167 67 167 278 c 2
EndSplineSet
EndChar

StartChar: j
Encoding: 106 106 185
Width: 539
VWidth: 0
GlyphClass: 2
Flags: HW
LayerCount: 2
UndoRedoHistory
Layer: 1
Undoes
EndUndoes
Redoes
EndRedoes
EndUndoRedoHistory
Fore
SplineSet
291 1444 m 0
 345 1444 398 1410 398 1344 c 0
 398 1278 344 1245 290 1245 c 0
 236 1245 183 1279 183 1345 c 0
 183 1411 237 1444 291 1444 c 0
207 1026 m 1
 371 1026 l 1
 371 35 l 2
 371 -416 126 -523 -162 -435 c 1
 -143 -307 l 1
 37 -367 207 -340 207 29 c 2
 207 1026 l 1
EndSplineSet
EndChar

StartChar: jcircumflex
Encoding: 309 309 186
Width: 503
VWidth: 0
GlyphClass: 2
Flags: HW
LayerCount: 2
UndoRedoHistory
Layer: 1
Undoes
EndUndoes
Redoes
EndRedoes
EndUndoRedoHistory
Fore
SplineSet
-101 -416 m 1
 -102 -273 l 1
 -72 -278 -48 -283 -18 -283 c 0
 138 -283 175 -146 175 31 c 2
 175 1026 l 1
 340 1026 l 1
 340 73 l 2
 340 -150 296 -339 140 -407 c 0
 106 -422 67 -429 21 -429 c 0
 -23 -429 -63 -425 -101 -416 c 1
-50 1173 m 1
 178 1497 l 1
 335 1497 l 1
 564 1173 l 1
 432 1173 l 1
 254 1389 l 1
 76 1173 l 1
 -50 1173 l 1
EndSplineSet
EndChar

StartChar: k
Encoding: 107 107 187
Width: 1107
VWidth: 0
GlyphClass: 2
Flags: HW
LayerCount: 2
UndoRedoHistory
Layer: 1
Undoes
EndUndoes
Redoes
EndRedoes
EndUndoRedoHistory
Fore
SplineSet
152 1496 m 1
 316 1526 l 1
 316 292 l 1
 832 1026 l 1
 981 976 l 1
 694 580 l 1
 891 270 l 2
 962 158 1050 88 1153 89 c 1
 1064 -35 l 1
 960 -16 843 55 763 189 c 2
 602 458 l 1
 297 27 l 1
 243 -39 152 -26 152 60 c 2
 152 1496 l 1
EndSplineSet
EndChar

StartChar: k.alt
Encoding: 65540 -1 188
Width: 1082
VWidth: 0
GlyphClass: 2
Flags: HW
LayerCount: 2
UndoRedoHistory
Layer: 1
Undoes
EndUndoes
Redoes
EndRedoes
EndUndoRedoHistory
Fore
SplineSet
885 0 m 1
 604 445 l 1
 504 297 403 149 303 0 c 1
 178 0 l 1
 178 1526 l 1
 343 1526 l 1
 343 308 l 1
 819 1026 l 1
 998 1026 l 1
 897 877 796 729 695 580 c 1
 1066 0 l 1
 885 0 l 1
EndSplineSet
EndChar

StartChar: kcommaaccent
Encoding: 311 311 189
Width: 1107
VWidth: 0
GlyphClass: 2
Flags: HW
LayerCount: 2
UndoRedoHistory
Layer: 1
Undoes
EndUndoes
Redoes
EndRedoes
EndUndoRedoHistory
Fore
SplineSet
440 -625 m 1
 547 -162 l 1
 734 -162 l 1
 571 -625 l 1
 440 -625 l 1
152 1496 m 1
 316 1526 l 1
 316 292 l 1
 832 1026 l 1
 981 976 l 1
 694 580 l 1
 891 270 l 2
 962 158 1050 88 1153 89 c 1
 1064 -35 l 1
 960 -16 843 55 763 189 c 2
 602 458 l 1
 297 27 l 1
 243 -39 152 -26 152 60 c 2
 152 1496 l 1
EndSplineSet
EndChar

StartChar: kgreenlandic
Encoding: 312 312 190
Width: 1082
VWidth: 0
GlyphClass: 2
Flags: HW
LayerCount: 2
UndoRedoHistory
Layer: 1
Undoes
EndUndoes
Redoes
EndRedoes
EndUndoRedoHistory
Fore
SplineSet
178 0 m 1
 178 1026 l 1
 343 1026 l 1
 343 557 l 1
 809 1026 l 1
 1034 1026 l 1
 504 512 l 1
 695 338 881 174 1072 0 c 1
 853 0 l 1
 343 471 l 1
 343 0 l 1
 178 0 l 1
EndSplineSet
EndChar

StartChar: l
Encoding: 108 108 191
Width: 686
VWidth: 0
GlyphClass: 2
Flags: HW
LayerCount: 2
UndoRedoHistory
Layer: 1
Undoes
EndUndoes
Redoes
EndRedoes
EndUndoRedoHistory
Fore
SplineSet
168 1496 m 1
 332 1526 l 1
 332 292 l 2
 332 84 519 77 695 152 c 1
 720 35 l 1
 450 -82 168 -9 168 300 c 2
 168 1496 l 1
EndSplineSet
EndChar

StartChar: ldot
Encoding: 320 320 192
Width: 686
VWidth: 0
GlyphClass: 2
Flags: HW
LayerCount: 2
UndoRedoHistory
Layer: 1
Undoes
EndUndoes
Redoes
EndRedoes
EndUndoRedoHistory
Fore
SplineSet
518 1132 m 1
 518 1342 l 1
 735 1342 l 1
 735 1132 l 1
 518 1132 l 1
168 1496 m 1
 332 1526 l 1
 332 292 l 2
 332 84 519 77 695 152 c 1
 720 35 l 1
 450 -82 168 -9 168 300 c 2
 168 1496 l 1
EndSplineSet
EndChar

StartChar: less
Encoding: 60 60 193
Width: 1458
VWidth: 0
GlyphClass: 2
Flags: HW
LayerCount: 2
UndoRedoHistory
Layer: 1
Undoes
EndUndoes
Redoes
EndRedoes
EndUndoRedoHistory
Fore
SplineSet
1223 48 m 1
 219 508 l 1
 219 595 l 1
 1227 1067 l 1
 1227 914 l 1
 438 552 l 1
 1223 200 l 1
 1223 48 l 1
EndSplineSet
EndChar

StartChar: lessequal
Encoding: 8804 8804 194
Width: 1351
VWidth: 0
GlyphClass: 2
Flags: HW
LayerCount: 2
UndoRedoHistory
Layer: 1
Undoes
EndUndoes
Redoes
EndRedoes
EndUndoRedoHistory
Fore
SplineSet
161 9 m 1
 161 131 l 1
 1175 131 l 1
 1175 9 l 1
 161 9 l 1
1146 216 m 1
 197 666 l 1
 197 747 l 1
 1146 1219 l 1
 1146 1079 l 1
 372 710 l 1
 1146 357 l 1
 1146 216 l 1
EndSplineSet
EndChar

StartChar: logicalnot
Encoding: 172 172 195
Width: 1458
VWidth: 0
GlyphClass: 2
Flags: HW
LayerCount: 2
UndoRedoHistory
Layer: 1
Undoes
EndUndoes
Redoes
EndRedoes
EndUndoRedoHistory
Fore
SplineSet
1098 238 m 1
 1098 659 l 1
 200 659 l 1
 200 798 l 1
 1248 798 l 1
 1248 238 l 1
 1098 238 l 1
EndSplineSet
EndChar

StartChar: lozenge
Encoding: 9674 9674 196
Width: 1248
VWidth: 0
GlyphClass: 2
Flags: HW
LayerCount: 2
UndoRedoHistory
Layer: 1
Undoes
EndUndoes
Redoes
EndRedoes
EndUndoRedoHistory
Fore
SplineSet
979 711 m 1
 861 916 739 1116 625 1324 c 1
 510 1114 382 917 261 713 c 1
 379 508 500 306 615 98 c 1
 731 307 858 506 979 711 c 1
562 -45 m 1
 112 711 l 1
 570 1470 l 1
 677 1470 l 1
 1130 712 l 1
 668 -45 l 1
 562 -45 l 1
EndSplineSet
EndChar

StartChar: lslash
Encoding: 322 322 197
Width: 503
VWidth: 0
GlyphClass: 2
Flags: HW
LayerCount: 2
UndoRedoHistory
Layer: 1
Undoes
EndUndoes
Redoes
EndRedoes
EndUndoRedoHistory
Fore
SplineSet
168 0 m 1
 168 689 l 1
 0 589 l 1
 0 726 l 1
 168 826 l 1
 168 1492 l 1
 333 1492 l 1
 333 925 l 1
 504 1027 l 1
 504 890 l 1
 333 788 l 1
 333 0 l 1
 168 0 l 1
EndSplineSet
EndChar

StartChar: m
Encoding: 109 109 198
Width: 1964
VWidth: 0
GlyphClass: 2
Flags: HW
LayerCount: 2
UndoRedoHistory
Layer: 1
Undoes
EndUndoes
Redoes
EndRedoes
EndUndoRedoHistory
Fore
SplineSet
84 974 m 1
 249 1026 l 1
 285 971 318 917 328 851 c 1
 388 969 549 1048 712 1048 c 0
 877 1048 984 975 1031 811 c 1
 1085 863 1285 1048 1428 1048 c 0
 1660 1048 1777 903 1774 565 c 2
 1772 320 l 2
 1771 167 1764 95 1888 119 c 1
 1872 -19 l 1
 1654 -51 1605 48 1607 284 c 2
 1609 562 l 1
 1609 804 1547 907 1393 907 c 0
 1241 907 1058 795 1058 532 c 1
 1058 533 l 1
 1056 0 l 1
 891 0 l 1
 893 562 l 2
 893 804 831 907 677 907 c 0
 532 907 358 804 343 565 c 1
 343 0 l 1
 179 0 l 1
 179 699 l 2
 179 815 130 897 84 974 c 1
EndSplineSet
EndChar

StartChar: macron
Encoding: 175 175 199
Width: 728
VWidth: 0
GlyphClass: 2
Flags: HW
LayerCount: 2
UndoRedoHistory
Layer: 1
Undoes
EndUndoes
Redoes
EndRedoes
EndUndoRedoHistory
Fore
SplineSet
79 1183 m 1
 79 1317 l 1
 651 1317 l 1
 651 1183 l 1
 79 1183 l 1
EndSplineSet
EndChar

StartChar: minus
Encoding: 8722 8722 200
Width: 1458
VWidth: 0
GlyphClass: 2
Flags: HW
LayerCount: 2
UndoRedoHistory
Layer: 1
Undoes
EndUndoes
Redoes
EndRedoes
EndUndoRedoHistory
Fore
SplineSet
198 496 m 1
 198 633 l 1
 1247 633 l 1
 1247 496 l 1
 198 496 l 1
EndSplineSet
EndChar

StartChar: multiply
Encoding: 215 215 201
Width: 1458
VWidth: 0
GlyphClass: 2
Flags: HW
LayerCount: 2
UndoRedoHistory
Layer: 1
Undoes
EndUndoes
Redoes
EndRedoes
EndUndoRedoHistory
Fore
SplineSet
425 154 m 1
 322 257 l 1
 618 554 l 1
 322 851 l 1
 425 954 l 1
 722 657 l 1
 1018 954 l 1
 1122 850 l 1
 825 554 l 1
 1122 258 l 1
 1018 154 l 1
 722 450 l 1
 425 154 l 1
EndSplineSet
EndChar

StartChar: n
Encoding: 110 110 202
Width: 1248
VWidth: 0
GlyphClass: 2
Flags: HW
LayerCount: 2
UndoRedoHistory
Layer: 1
Undoes
EndUndoes
Redoes
EndRedoes
EndUndoRedoHistory
Fore
SplineSet
84 974 m 1
 249 1026 l 1
 285 971 318 917 328 851 c 1
 388 969 549 1048 712 1048 c 0
 944 1048 1061 903 1058 565 c 2
 1056 320 l 2
 1055 167 1048 95 1172 119 c 1
 1156 -19 l 1
 938 -51 889 48 891 284 c 2
 893 562 l 1
 893 804 831 907 677 907 c 0
 532 907 358 804 343 565 c 1
 343 0 l 1
 179 0 l 1
 179 699 l 2
 179 815 130 897 84 974 c 1
EndSplineSet
EndChar

StartChar: n.alt
Encoding: 65541 -1 203
Width: 1263
VWidth: 0
GlyphClass: 2
Flags: HW
LayerCount: 2
UndoRedoHistory
Layer: 1
Undoes
EndUndoes
Redoes
EndRedoes
EndUndoRedoHistory
Fore
SplineSet
881 248 m 2
 881 265 l 1
 883 572 l 1
 883 585 l 2
 883 790 850 911 639 911 c 0
 485 911 345 799 345 652 c 2
 345 0 l 1
 180 0 l 1
 180 699 l 2
 180 784 160 977 154 1026 c 1
 321 1026 l 1
 343 884 l 1
 416 988 499 1051 667 1051 c 0
 960 1051 1048 867 1048 577 c 2
 1048 567 l 1
 1046 270 l 1
 1046 255 l 2
 1046 142 1057 117 1132 102 c 1
 1096 -24 l 1
 908 -2 881 62 881 248 c 2
EndSplineSet
EndChar

StartChar: nacute
Encoding: 324 324 204
Width: 1248
VWidth: 0
GlyphClass: 2
Flags: HW
LayerCount: 2
UndoRedoHistory
Layer: 1
Undoes
EndUndoes
Redoes
EndRedoes
EndUndoRedoHistory
Fore
SplineSet
84 974 m 1
 249 1026 l 1
 285 971 318 917 328 851 c 1
 388 969 549 1048 712 1048 c 0
 944 1048 1061 903 1058 565 c 2
 1056 320 l 2
 1055 167 1048 95 1172 119 c 1
 1156 -19 l 1
 938 -51 889 48 891 284 c 2
 893 562 l 1
 893 804 831 907 677 907 c 0
 532 907 358 804 343 565 c 1
 343 0 l 1
 179 0 l 1
 179 699 l 2
 179 815 130 897 84 974 c 1
608 1173 m 1
 834 1493 l 1
 1046 1493 l 1
 738 1173 l 1
 608 1173 l 1
EndSplineSet
EndChar

StartChar: nine
Encoding: 57 57 205
Width: 1248
VWidth: 0
GlyphClass: 2
Flags: HW
LayerCount: 2
UndoRedoHistory
Layer: 1
Undoes
EndUndoes
Redoes
EndRedoes
EndUndoRedoHistory
Fore
SplineSet
967 992 m 0
 967 1202 867 1334 632 1334 c 0
 418 1334 289 1205 289 994 c 0
 289 821 373 651 627 651 c 0
 855 651 967 791 967 992 c 0
527 -76 m 1
 391 0 l 1
 800 575 l 1
 792 569 717 515 607 515 c 0
 299 515 117 724 117 995 c 0
 117 1282 331 1483 620 1483 c 0
 975 1483 1134 1243 1134 991 c 0
 1134 865 1086 729 995 598 c 2
 527 -76 l 1
EndSplineSet
EndChar

StartChar: nine.alt
Encoding: 65542 -1 206
Width: 1190
VWidth: 0
GlyphClass: 2
Flags: HW
LayerCount: 2
UndoRedoHistory
Layer: 1
Undoes
EndUndoes
Redoes
EndRedoes
EndUndoRedoHistory
Fore
SplineSet
879 847 m 0
 897 884 906 925 906 971 c 0
 906 1125 821 1232 714 1283 c 0
 673 1302 626 1312 573 1312 c 0
 423 1312 327 1228 286 1117 c 0
 271 1078 264 1035 264 989 c 0
 264 792 373 673 572 673 c 0
 722 673 829 744 879 847 c 0
183 121 m 1
 237 234 l 1
 308 157 401 119 517 119 c 0
 659 119 754 196 813 288 c 0
 877 386 915 527 918 683 c 1
 918 707 l 1
 846 592 725 533 545 533 c 0
 326 533 182 642 120 802 c 0
 99 857 88 918 88 984 c 0
 88 1208 211 1352 376 1417 c 0
 437 1441 506 1453 581 1453 c 0
 859 1453 1000 1282 1059 1056 c 0
 1082 970 1093 870 1093 758 c 0
 1093 416 984 152 761 34 c 0
 689 -4 607 -23 514 -23 c 0
 362 -23 251 34 183 121 c 1
EndSplineSet
EndChar

StartChar: notequal
Encoding: 8800 8800 207
Width: 1351
VWidth: 0
GlyphClass: 2
Flags: HW
LayerCount: 2
UndoRedoHistory
Layer: 1
Undoes
EndUndoes
Redoes
EndRedoes
EndUndoRedoHistory
Fore
SplineSet
457 46 m 1
 335 64 l 1
 463 325 l 1
 170 325 l 1
 161 445 l 1
 524 445 l 1
 671 728 l 1
 170 728 l 1
 160 849 l 1
 728 849 l 1
 864 1123 l 1
 989 1105 l 1
 862 849 l 1
 1172 849 l 1
 1182 728 l 1
 804 728 l 1
 656 445 l 1
 1173 445 l 1
 1182 325 l 1
 597 325 l 1
 457 46 l 1
EndSplineSet
EndChar

StartChar: ntilde
Encoding: 241 241 208
Width: 1248
VWidth: 0
GlyphClass: 2
Flags: HW
LayerCount: 2
UndoRedoHistory
Layer: 1
Undoes
EndUndoes
Redoes
EndRedoes
EndUndoRedoHistory
Fore
SplineSet
554 1413 m 0
 630 1413 687 1377 745 1356 c 0
 765 1349 785 1345 804 1345 c 0
 857 1345 884 1384 891 1435 c 1
 999 1435 l 1
 986 1322 928 1220 804 1220 c 0
 708 1220 646 1288 551 1288 c 0
 497 1288 467 1260 460 1203 c 1
 355 1203 l 1
 365 1319 430 1413 554 1413 c 0
84 974 m 1
 249 1026 l 1
 285 971 318 917 328 851 c 1
 388 969 549 1048 712 1048 c 0
 944 1048 1061 903 1058 565 c 2
 1056 320 l 2
 1055 167 1048 95 1172 119 c 1
 1156 -19 l 1
 938 -51 889 48 891 284 c 2
 893 562 l 1
 893 804 831 907 677 907 c 0
 532 907 358 804 343 565 c 1
 343 0 l 1
 179 0 l 1
 179 699 l 2
 179 815 130 897 84 974 c 1
EndSplineSet
EndChar

StartChar: numbersign
Encoding: 35 35 209
Width: 1242
VWidth: 0
GlyphClass: 2
Flags: HW
LayerCount: 2
UndoRedoHistory
Layer: 1
Undoes
EndUndoes
Redoes
EndRedoes
EndUndoRedoHistory
Fore
SplineSet
460 611 m 1
 724 611 l 1
 775 886 l 1
 514 886 l 1
 460 611 l 1
210 60 m 1
 294 485 l 1
 42 485 l 1
 53 611 l 1
 318 611 l 1
 334 705 351 793 368 886 c 1
 107 886 l 1
 120 1010 l 1
 390 1010 l 1
 469 1420 l 1
 615 1420 l 1
 538 1010 l 1
 799 1010 l 1
 875 1420 l 1
 1021 1420 l 1
 943 1010 l 1
 1184 1010 l 1
 1170 886 l 1
 920 886 l 1
 869 611 l 1
 1121 611 l 1
 1107 485 l 1
 847 485 l 1
 764 60 l 1
 619 60 l 1
 699 485 l 1
 438 485 l 1
 356 60 l 1
 210 60 l 1
EndSplineSet
EndChar

StartChar: o
Encoding: 111 111 210
Width: 1230
VWidth: 0
GlyphClass: 2
Flags: HW
LayerCount: 2
UndoRedoHistory
Layer: 1
Undoes
EndUndoes
Redoes
EndRedoes
EndUndoRedoHistory
Fore
SplineSet
621 907 m 0
 406 907 262 748 262 509 c 0
 262 273 406 116 622 116 c 0
 832 116 972 274 972 511 c 0
 972 749 832 907 621 907 c 0
621 1048 m 0
 934 1048 1142 834 1142 513 c 0
 1142 192 934 -22 622 -22 c 0
 304 -22 92 191 92 511 c 0
 92 833 304 1048 621 1048 c 0
EndSplineSet
EndChar

StartChar: oacute
Encoding: 243 243 211
Width: 1230
VWidth: 0
GlyphClass: 2
Flags: HW
LayerCount: 2
UndoRedoHistory
Layer: 1
Undoes
EndUndoes
Redoes
EndRedoes
EndUndoRedoHistory
Fore
SplineSet
621 907 m 0
 406 907 262 748 262 509 c 0
 262 273 406 116 622 116 c 0
 832 116 972 274 972 511 c 0
 972 749 832 907 621 907 c 0
621 1048 m 0
 934 1048 1142 834 1142 513 c 0
 1142 192 934 -22 622 -22 c 0
 304 -22 92 191 92 511 c 0
 92 833 304 1048 621 1048 c 0
559 1173 m 1
 785 1493 l 1
 997 1493 l 1
 689 1173 l 1
 559 1173 l 1
EndSplineSet
EndChar

StartChar: ocircumflex
Encoding: 244 244 212
Width: 1230
VWidth: 0
GlyphClass: 2
Flags: HW
LayerCount: 2
UndoRedoHistory
Layer: 1
Undoes
EndUndoes
Redoes
EndRedoes
EndUndoRedoHistory
Fore
SplineSet
621 907 m 0
 406 907 262 748 262 509 c 0
 262 273 406 116 622 116 c 0
 832 116 972 274 972 511 c 0
 972 749 832 907 621 907 c 0
621 1048 m 0
 934 1048 1142 834 1142 513 c 0
 1142 192 934 -22 622 -22 c 0
 304 -22 92 191 92 511 c 0
 92 833 304 1048 621 1048 c 0
317 1173 m 1
 545 1497 l 1
 702 1497 l 1
 931 1173 l 1
 799 1173 l 1
 621 1389 l 1
 443 1173 l 1
 317 1173 l 1
EndSplineSet
EndChar

StartChar: odieresis
Encoding: 246 246 213
Width: 1230
VWidth: 0
GlyphClass: 2
Flags: HW
LayerCount: 2
UndoRedoHistory
Layer: 1
Undoes
EndUndoes
Redoes
EndRedoes
EndUndoRedoHistory
Fore
SplineSet
621 907 m 0
 406 907 262 748 262 509 c 0
 262 273 406 116 622 116 c 0
 832 116 972 274 972 511 c 0
 972 749 832 907 621 907 c 0
621 1048 m 0
 934 1048 1142 834 1142 513 c 0
 1142 192 934 -22 622 -22 c 0
 304 -22 92 191 92 511 c 0
 92 833 304 1048 621 1048 c 0
708 1173 m 1
 708 1336 l 1
 872 1336 l 1
 872 1173 l 1
 708 1173 l 1
376 1173 m 1
 376 1336 l 1
 540 1336 l 1
 540 1173 l 1
 376 1173 l 1
EndSplineSet
EndChar

StartChar: oe
Encoding: 339 339 214
Width: 1970
VWidth: 0
GlyphClass: 2
Flags: HW
LayerCount: 2
UndoRedoHistory
Layer: 1
Undoes
EndUndoes
Redoes
EndRedoes
EndUndoRedoHistory
Fore
SplineSet
1113 609 m 1
 1695 609 l 1
 1695 793 1607 917 1423 917 c 0
 1277 917 1183 830 1140 725 c 0
 1125 688 1116 649 1113 609 c 1
945 511 m 0
 945 745 846 917 612 917 c 0
 433 917 330 802 288 663 c 0
 273 614 265 562 265 507 c 0
 265 327 338 200 462 141 c 0
 506 120 559 109 620 109 c 0
 845 109 945 287 945 511 c 0
127 300 m 0
 104 365 92 435 92 509 c 0
 92 761 217 932 396 1010 c 0
 462 1039 536 1053 620 1053 c 0
 830 1053 952 964 1027 821 c 1
 1095 963 1216 1053 1417 1053 c 0
 1726 1053 1868 835 1868 525 c 2
 1868 472 l 1
 1113 470 l 1
 1113 450 l 1
 1117 296 1181 185 1290 135 c 0
 1328 118 1371 109 1421 109 c 0
 1574 109 1685 192 1748 292 c 1
 1836 206 l 1
 1757 63 1616 -28 1410 -28 c 0
 1213 -28 1082 62 1022 209 c 1
 961 57 821 -28 610 -28 c 0
 354 -28 195 110 127 300 c 0
EndSplineSet
EndChar

StartChar: ogonek
Encoding: 731 731 215
Width: 508
VWidth: 0
GlyphClass: 2
Flags: HW
LayerCount: 2
UndoRedoHistory
Layer: 1
Undoes
EndUndoes
Redoes
EndRedoes
EndUndoRedoHistory
Fore
SplineSet
65 -296 m 0
 54 -276 48 -252 48 -225 c 0
 48 -167 82 -122 115 -89 c 0
 155 -49 209 -14 263 12 c 1
 392 0 l 1
 323 -42 246 -86 204 -151 c 0
 194 -167 189 -183 189 -199 c 0
 189 -250 238 -281 289 -281 c 0
 353 -281 397 -268 443 -250 c 1
 443 -361 l 1
 397 -380 330 -390 266 -390 c 0
 172 -390 99 -357 65 -296 c 0
EndSplineSet
EndChar

StartChar: ograve
Encoding: 242 242 216
Width: 1230
VWidth: 0
GlyphClass: 2
Flags: HW
LayerCount: 2
UndoRedoHistory
Layer: 1
Undoes
EndUndoes
Redoes
EndRedoes
EndUndoRedoHistory
Fore
SplineSet
621 907 m 0
 406 907 262 748 262 509 c 0
 262 273 406 116 622 116 c 0
 832 116 972 274 972 511 c 0
 972 749 832 907 621 907 c 0
621 1048 m 0
 934 1048 1142 834 1142 513 c 0
 1142 192 934 -22 622 -22 c 0
 304 -22 92 191 92 511 c 0
 92 833 304 1048 621 1048 c 0
560 1173 m 1
 228 1493 l 1
 442 1493 l 1
 689 1173 l 1
 560 1173 l 1
EndSplineSet
EndChar

StartChar: one
Encoding: 49 49 217
Width: 1190
VWidth: 0
GlyphClass: 2
Flags: HW
LayerCount: 2
UndoRedoHistory
Layer: 1
Undoes
EndUndoes
Redoes
EndRedoes
EndUndoRedoHistory
Fore
SplineSet
552 0 m 1
 552 1270 l 1
 486 1220 400 1172 294 1128 c 1
 253 1259 l 1
 369 1312 491 1385 559 1436 c 1
 724 1438 l 1
 724 0 l 1
 552 0 l 1
EndSplineSet
EndChar

StartChar: onehalf
Encoding: 189 189 218
Width: 2748
VWidth: 0
GlyphClass: 2
Flags: HW
LayerCount: 2
UndoRedoHistory
Layer: 1
Undoes
EndUndoes
Redoes
EndRedoes
EndUndoRedoHistory
Fore
SplineSet
1828 604 m 1
 1828 723 l 1
 1950 723 l 1
 1950 1008 l 2
 1950 1067 1949 1116 1949 1168 c 2
 1949 1271 l 1
 1905 1248 1847 1222 1797 1203 c 1
 1798 1333 l 1
 1865 1354 1914 1381 1966 1412 c 1
 2071 1427 l 1
 2071 720 l 1
 2193 720 l 1
 2193 604 l 1
 1828 604 l 1
651 604 m 1
 651 715 l 1
 757 812 863 908 952 1006 c 0
 989 1047 1017 1084 1038 1118 c 0
 1059 1152 1069 1183 1069 1211 c 0
 1069 1286 1008 1323 929 1323 c 0
 834 1323 777 1262 744 1192 c 1
 659 1270 l 1
 702 1370 797 1440 935 1440 c 0
 1053 1440 1139 1388 1178 1307 c 0
 1191 1279 1198 1248 1198 1213 c 0
 1198 1108 1146 1033 1092 968 c 0
 1018 879 925 802 833 722 c 1
 1197 722 l 1
 1197 604 l 1
 651 604 l 1
-337 0 m 1
 568 1436 l 1
 717 1436 l 1
 -186 0 l 1
 -337 0 l 1
EndSplineSet
EndChar

StartChar: onequarter
Encoding: 188 188 219
Width: 2455
VWidth: 0
GlyphClass: 2
Flags: HW
LayerCount: 2
UndoRedoHistory
Layer: 1
Undoes
EndUndoes
Redoes
EndRedoes
EndUndoRedoHistory
Fore
SplineSet
1675 910 m 1
 1914 910 l 1
 1914 1244 l 1
 1675 910 l 1
1914 615 m 1
 1914 803 l 1
 1536 803 l 1
 1536 894 l 1
 1902 1412 l 1
 2036 1412 l 1
 2036 910 l 1
 2145 910 l 1
 2155 803 l 1
 2034 803 l 1
 2034 615 l 1
 1914 615 l 1
638 604 m 1
 638 723 l 1
 760 723 l 1
 760 1008 l 2
 760 1067 759 1116 759 1168 c 2
 759 1271 l 1
 715 1248 657 1222 607 1203 c 1
 607 1262 l 1
 -186 0 l 1
 -337 0 l 1
 568 1436 l 1
 717 1436 l 1
 665 1354 l 1
 705 1371 740 1391 776 1412 c 1
 881 1427 l 1
 881 720 l 1
 1003 720 l 1
 1003 604 l 1
 638 604 l 1
EndSplineSet
EndChar

StartChar: ordfeminine
Encoding: 170 170 220
Width: 745
VWidth: 0
GlyphClass: 2
Flags: HW
LayerCount: 2
UndoRedoHistory
Layer: 1
Undoes
EndUndoes
Redoes
EndRedoes
EndUndoRedoHistory
Fore
SplineSet
536 1085 m 1
 536 1110 l 1
 424 1088 202 1115 202 977 c 0
 202 899 260 871 338 871 c 0
 468 871 530 962 536 1085 c 1
85 890 m 0
 72 916 66 944 66 975 c 0
 66 1112 189 1174 309 1192 c 1
 383 1202 462 1201 536 1211 c 1
 536 1219 l 2
 536 1329 498 1369 388 1369 c 0
 289 1369 222 1340 178 1275 c 1
 111 1350 l 1
 162 1436 262 1477 394 1477 c 0
 558 1477 669 1400 669 1235 c 1
 667 914 l 2
 667 870 669 846 674 786 c 1
 543 786 l 1
 537 860 l 1
 492 805 417 768 317 768 c 0
 205 768 122 814 85 890 c 0
EndSplineSet
EndChar

StartChar: ordmasculine
Encoding: 186 186 221
Width: 824
VWidth: 0
GlyphClass: 2
Flags: HW
LayerCount: 2
UndoRedoHistory
Layer: 1
Undoes
EndUndoes
Redoes
EndRedoes
EndUndoRedoHistory
Fore
SplineSet
636 1119 m 0
 636 1264 558 1369 413 1369 c 0
 271 1369 193 1264 193 1123 c 0
 193 977 269 875 416 875 c 0
 557 875 636 979 636 1119 c 0
53 1124 m 0
 53 1291 140 1398 261 1448 c 0
 306 1466 357 1476 415 1476 c 0
 591 1476 705 1390 751 1260 c 0
 766 1217 774 1171 774 1121 c 0
 774 954 690 845 570 795 c 0
 526 776 474 767 416 767 c 0
 191 767 53 901 53 1124 c 0
EndSplineSet
EndChar

StartChar: oslash
Encoding: 248 248 222
Width: 1238
VWidth: 0
GlyphClass: 2
Flags: HW
LayerCount: 2
UndoRedoHistory
Layer: 1
Undoes
EndUndoes
Redoes
EndRedoes
EndUndoRedoHistory
Fore
SplineSet
621 1048 m 0
 677 1048 730 1041 779 1028 c 1
 884 1277 l 1
 987 1245 l 1
 878 990 l 1
 1042 906 1142 735 1142 513 c 0
 1142 192 934 -22 622 -22 c 0
 563 -22 508 -15 457 -1 c 1
 346 -261 l 1
 247 -229 l 1
 359 37 l 1
 192 121 92 290 92 511 c 0
 92 833 304 1048 621 1048 c 0
722 894 m 1
 691 903 657 907 621 907 c 0
 406 907 262 748 262 509 c 0
 262 359 320 241 418 175 c 1
 722 894 l 1
818 849 m 1
 513 131 l 1
 547 121 583 116 622 116 c 0
 832 116 972 274 972 511 c 0
 972 663 914 783 818 849 c 1
EndSplineSet
EndChar

StartChar: otilde
Encoding: 245 245 223
Width: 1230
VWidth: 0
GlyphClass: 2
Flags: HW
LayerCount: 2
UndoRedoHistory
Layer: 1
Undoes
EndUndoes
Redoes
EndRedoes
EndUndoRedoHistory
Fore
SplineSet
498 1413 m 0
 574 1413 631 1377 689 1356 c 0
 709 1349 729 1345 748 1345 c 0
 801 1345 828 1384 835 1435 c 1
 943 1435 l 1
 930 1322 872 1220 748 1220 c 0
 652 1220 590 1288 495 1288 c 0
 441 1288 411 1260 404 1203 c 1
 299 1203 l 1
 309 1319 374 1413 498 1413 c 0
621 907 m 0
 406 907 262 748 262 509 c 0
 262 273 406 116 622 116 c 0
 832 116 972 274 972 511 c 0
 972 749 832 907 621 907 c 0
621 1048 m 0
 934 1048 1142 834 1142 513 c 0
 1142 192 934 -22 622 -22 c 0
 304 -22 92 191 92 511 c 0
 92 833 304 1048 621 1048 c 0
EndSplineSet
EndChar

StartChar: p
Encoding: 112 112 224
Width: 1253
VWidth: 0
GlyphClass: 2
Flags: HW
LayerCount: 2
UndoRedoHistory
Layer: 1
Undoes
EndUndoes
Redoes
EndRedoes
EndUndoRedoHistory
Fore
SplineSet
695 907 m 0
 477 907 336 731 336 434 c 2
 336 268 l 1
 405 172 536 116 670 116 c 0
 872 116 991 266 991 521 c 0
 991 764 881 907 695 907 c 0
704 1048 m 0
 991 1048 1161 854 1161 527 c 0
 1161 182 988 -22 694 -22 c 0
 553 -22 413 21 337 95 c 1
 337 -439 l 1
 173 -457 l 1
 173 718 l 2
 173 814 133 893 82 948 c 1
 221 1026 l 1
 273 988 309 919 317 840 c 1
 390 971 541 1048 704 1048 c 0
EndSplineSet
EndChar

StartChar: paragraph
Encoding: 182 182 225
Width: 1214
VWidth: 0
GlyphClass: 2
Flags: HW
LayerCount: 2
UndoRedoHistory
Layer: 1
Undoes
EndUndoes
Redoes
EndRedoes
EndUndoRedoHistory
Fore
SplineSet
442 -148 m 1
 442 786 l 1
 286 788 182 877 134 990 c 0
 116 1032 107 1079 107 1130 c 0
 107 1394 359 1451 623 1451 c 2
 1009 1451 l 1
 1009 1327 l 1
 922 1327 l 1
 922 -148 l 1
 793 -148 l 1
 793 1327 l 1
 585 1327 l 1
 585 -148 l 1
 442 -148 l 1
EndSplineSet
EndChar

StartChar: parenleft
Encoding: 40 40 226
Width: 626
VWidth: 0
GlyphClass: 2
Flags: HW
LayerCount: 2
UndoRedoHistory
Layer: 1
Undoes
EndUndoes
Redoes
EndRedoes
EndUndoRedoHistory
Fore
SplineSet
570 -214 m 1
 421 -214 l 1
 60 355 48 956 427 1551 c 1
 574 1551 l 1
 219 993 235 320 570 -214 c 1
EndSplineSet
EndChar

StartChar: parenright
Encoding: 41 41 227
Width: 626
VWidth: 0
GlyphClass: 2
Flags: HW
LayerCount: 2
UndoRedoHistory
Layer: 1
Undoes
EndUndoes
Redoes
EndRedoes
EndUndoRedoHistory
Fore
SplineSet
52 1551 m 1
 199 1551 l 1
 578 956 566 355 205 -214 c 1
 56 -214 l 1
 391 320 407 993 52 1551 c 1
EndSplineSet
EndChar

StartChar: partialdiff
Encoding: 8706 8706 228
Width: 1167
VWidth: 0
GlyphClass: 2
Flags: HW
LayerCount: 2
UndoRedoHistory
Layer: 1
Undoes
EndUndoes
Redoes
EndRedoes
EndUndoRedoHistory
Fore
SplineSet
755 271 m 0
 821 369 868 507 885 655 c 1
 853 744 792 817 705 852 c 0
 676 864 644 869 609 869 c 0
 494 869 409 804 355 734 c 0
 296 658 252 547 252 417 c 0
 252 280 302 178 394 133 c 0
 424 118 458 111 495 111 c 0
 618 111 700 190 755 271 c 0
109 245 m 0
 92 299 83 357 83 420 c 0
 83 681 213 870 390 957 c 0
 451 987 516 1002 586 1002 c 0
 736 1002 832 927 902 836 c 1
 902 856 903 890 903 911 c 0
 903 1123 842 1293 706 1366 c 0
 664 1388 618 1399 565 1399 c 0
 451 1399 361 1351 291 1304 c 1
 280 1442 l 1
 355 1492 466 1533 588 1533 c 0
 853 1533 983 1373 1040 1156 c 0
 1063 1070 1074 969 1074 852 c 0
 1074 611 1020 407 931 252 c 0
 870 146 786 60 672 11 c 0
 618 -12 557 -24 492 -24 c 0
 284 -24 160 87 109 245 c 0
EndSplineSet
EndChar

StartChar: percent
Encoding: 37 37 229
Width: 1985
VWidth: 0
GlyphClass: 2
Flags: HW
LayerCount: 2
UndoRedoHistory
Layer: 1
Undoes
EndUndoes
Redoes
EndRedoes
EndUndoRedoHistory
Fore
SplineSet
440 -5 m 1
 1344 1436 l 1
 1499 1436 l 1
 594 -5 l 1
 440 -5 l 1
1662 357 m 0
 1662 504 1600 622 1454 622 c 0
 1306 622 1241 497 1241 350 c 0
 1241 234 1281 148 1358 107 c 0
 1384 93 1416 86 1452 86 c 0
 1599 86 1662 211 1662 357 c 0
734 1069 m 0
 734 1186 695 1273 618 1314 c 0
 592 1328 560 1335 525 1335 c 0
 377 1335 312 1212 312 1065 c 0
 312 917 376 799 524 799 c 0
 670 799 734 923 734 1069 c 0
1121 202 m 0
 1105 248 1097 298 1097 351 c 0
 1097 528 1182 649 1306 705 c 0
 1350 725 1400 735 1455 735 c 0
 1682 735 1806 582 1806 356 c 0
 1806 180 1720 59 1597 3 c 0
 1553 -17 1504 -27 1449 -27 c 0
 1273 -27 1167 70 1121 202 c 0
192 915 m 0
 176 961 168 1011 168 1064 c 0
 168 1240 253 1363 377 1418 c 0
 421 1438 471 1447 526 1447 c 0
 753 1447 877 1294 877 1068 c 0
 877 892 791 772 668 716 c 0
 624 696 575 686 520 686 c 0
 344 686 237 783 192 915 c 0
EndSplineSet
EndChar

StartChar: period
Encoding: 46 46 230
Width: 540
VWidth: 0
GlyphClass: 2
Flags: HW
LayerCount: 2
UndoRedoHistory
Layer: 1
Undoes
EndUndoes
Redoes
EndRedoes
EndUndoRedoHistory
Fore
SplineSet
144 106 m 0
 144 172 198 211 252 211 c 0
 321 211 359 162 359 105 c 0
 359 39 305 0 251 0 c 0
 182 0 144 49 144 106 c 0
EndSplineSet
EndChar

StartChar: periodcentered
Encoding: 183 183 231
Width: 444
VWidth: 0
GlyphClass: 2
Flags: HW
LayerCount: 2
UndoRedoHistory
Layer: 1
Undoes
EndUndoes
Redoes
EndRedoes
EndUndoRedoHistory
Fore
SplineSet
76 513 m 1
 76 723 l 1
 293 723 l 1
 293 513 l 1
 76 513 l 1
EndSplineSet
EndChar

StartChar: perthousand
Encoding: 8240 8240 232
Width: 2386
VWidth: 0
GlyphClass: 2
Flags: HW
LayerCount: 2
UndoRedoHistory
Layer: 1
Undoes
EndUndoes
Redoes
EndRedoes
EndUndoRedoHistory
Fore
SplineSet
2156 327 m 0
 2156 461 2096 567 1962 567 c 0
 1829 567 1768 461 1768 328 c 0
 1768 192 1828 86 1963 86 c 0
 2095 86 2156 195 2156 327 c 0
1367 327 m 0
 1367 463 1309 567 1174 567 c 0
 1041 567 980 461 980 328 c 0
 980 192 1040 86 1175 86 c 0
 1306 86 1367 196 1367 327 c 0
245 -21 m 1
 1183 1436 l 1
 1332 1436 l 1
 398 -21 l 1
 245 -21 l 1
604 1093 m 0
 604 1228 545 1335 411 1335 c 0
 280 1335 219 1227 219 1096 c 0
 219 960 278 853 414 853 c 0
 545 853 604 963 604 1093 c 0
1623 328 m 0
 1623 494 1699 604 1818 654 c 0
 1860 672 1909 681 1964 681 c 0
 2184 681 2299 545 2299 325 c 0
 2299 161 2220 49 2103 0 c 0
 2061 -18 2013 -27 1959 -27 c 0
 1742 -27 1623 112 1623 328 c 0
835 328 m 0
 835 494 911 604 1030 654 c 0
 1072 672 1121 681 1176 681 c 0
 1395 681 1511 544 1511 325 c 0
 1511 160 1434 50 1316 0 c 0
 1274 -18 1226 -27 1172 -27 c 0
 954 -27 835 111 835 328 c 0
73 1095 m 0
 73 1260 150 1371 268 1420 c 0
 310 1438 358 1447 412 1447 c 0
 632 1447 749 1312 749 1092 c 0
 749 928 670 815 553 766 c 0
 511 748 463 740 410 740 c 0
 192 740 73 878 73 1095 c 0
EndSplineSet
EndChar

StartChar: pi
Encoding: 960 960 233
Width: 1288
VWidth: 0
GlyphClass: 2
Flags: HW
LayerCount: 2
UndoRedoHistory
Layer: 1
Undoes
EndUndoes
Redoes
EndRedoes
EndUndoRedoHistory
Fore
SplineSet
851 279 m 2
 851 907 l 1
 480 907 l 1
 458 619 439 335 374 88 c 0
 364 51 353 21 341 0 c 1
 172 0 l 1
 232 105 257 263 276 411 c 0
 296 567 306 739 311 907 c 1
 194 904 111 887 34 846 c 1
 17 977 l 1
 96 1037 227 1040 369 1040 c 2
 1214 1040 l 1
 1214 907 l 1
 1010 907 l 1
 1010 288 l 2
 1010 206 1024 147 1108 147 c 0
 1133 147 1159 151 1188 160 c 1
 1186 130 l 2
 1185 120 1185 110 1185 100 c 0
 1185 65 1188 35 1198 6 c 1
 1153 -2 1108 -8 1061 -8 c 0
 888 -8 851 104 851 279 c 2
EndSplineSet
EndChar

StartChar: plus
Encoding: 43 43 234
Width: 1458
VWidth: 0
GlyphClass: 2
Flags: HW
LayerCount: 2
UndoRedoHistory
Layer: 1
Undoes
EndUndoes
Redoes
EndRedoes
EndUndoRedoHistory
Fore
SplineSet
646 62 m 1
 646 485 l 1
 198 485 l 1
 198 624 l 1
 649 624 l 1
 649 1047 l 1
 797 1047 l 1
 797 624 l 1
 1246 624 l 1
 1246 485 l 1
 795 485 l 1
 795 62 l 1
 646 62 l 1
EndSplineSet
EndChar

StartChar: plusminus
Encoding: 177 177 235
Width: 1458
VWidth: 0
GlyphClass: 2
Flags: HW
LayerCount: 2
UndoRedoHistory
Layer: 1
Undoes
EndUndoes
Redoes
EndRedoes
EndUndoRedoHistory
Fore
SplineSet
200 0 m 1
 200 138 l 1
 1249 138 l 1
 1249 0 l 1
 200 0 l 1
647 223 m 1
 647 595 l 1
 200 595 l 1
 188 733 l 1
 645 733 l 1
 645 1107 l 1
 794 1107 l 1
 794 733 l 1
 1245 733 l 1
 1245 595 l 1
 798 595 l 1
 798 223 l 1
 647 223 l 1
EndSplineSet
EndChar

StartChar: product
Encoding: 8719 8719 236
Width: 1568
VWidth: 0
GlyphClass: 2
Flags: HW
LayerCount: 2
UndoRedoHistory
Layer: 1
Undoes
EndUndoes
Redoes
EndRedoes
EndUndoRedoHistory
Fore
SplineSet
251 -329 m 1
 251 1278 l 1
 126 1278 l 1
 110 1423 l 1
 1456 1423 l 1
 1440 1278 l 1
 1327 1278 l 1
 1327 -329 l 1
 1149 -329 l 1
 1149 1278 l 1
 426 1278 l 1
 426 -329 l 1
 251 -329 l 1
EndSplineSet
EndChar

StartChar: q
Encoding: 113 113 237
Width: 1241
VWidth: 0
GlyphClass: 2
Flags: HW
LayerCount: 2
UndoRedoHistory
Layer: 1
Undoes
EndUndoes
Redoes
EndRedoes
EndUndoRedoHistory
Fore
SplineSet
589 907 m 0
 360 907 262 736 262 507 c 0
 262 284 365 116 588 116 c 0
 722 116 858 212 909 302 c 1
 909 543 l 2
 909 759 804 907 589 907 c 0
583 1048 m 0
 771 1048 852 985 909 888 c 1
 924 1026 l 1
 1091 1026 l 1
 1086 992 1073 916 1073 813 c 2
 1073 -355 l 1
 1113 -335 1325 -221 1325 -221 c 1
 1397 -343 l 1
 1360 -363 1072 -515 1023 -539 c 1
 909 -426 l 1
 909 128 l 1
 831 33 713 -22 571 -22 c 0
 267 -22 92 203 92 506 c 0
 92 815 273 1048 583 1048 c 0
EndSplineSet
EndChar

StartChar: question
Encoding: 63 63 238
Width: 1032
VWidth: 0
GlyphClass: 2
Flags: HW
LayerCount: 2
UndoRedoHistory
Layer: 1
Undoes
EndUndoes
Redoes
EndRedoes
EndUndoRedoHistory
Fore
SplineSet
318 106 m 0
 318 172 372 211 426 211 c 0
 495 211 533 162 533 105 c 0
 533 39 479 0 425 0 c 0
 356 0 318 49 318 106 c 0
346 530 m 0
 346 784 730 845 730 1125 c 0
 730 1377 364 1364 183 1262 c 1
 183 1413 l 1
 263 1452 358 1483 464 1483 c 0
 748 1483 899 1338 899 1133 c 0
 899 787 475 744 475 447 c 0
 475 424 477 398 481 368 c 1
 356 368 l 1
 351 416 346 480 346 530 c 0
EndSplineSet
EndChar

StartChar: questiondown
Encoding: 191 191 239
Width: 1032
VWidth: 0
GlyphClass: 2
Flags: HW
LayerCount: 2
UndoRedoHistory
Layer: 1
Undoes
EndUndoes
Redoes
EndRedoes
EndUndoRedoHistory
Fore
SplineSet
764 1361 m 0
 764 1295 710 1256 656 1256 c 0
 587 1256 549 1305 549 1362 c 0
 549 1428 603 1467 657 1467 c 0
 726 1467 764 1418 764 1361 c 0
736 937 m 0
 736 683 352 622 352 342 c 0
 352 90 718 103 899 205 c 1
 899 54 l 1
 819 15 724 -16 618 -16 c 0
 334 -16 183 129 183 334 c 0
 183 680 607 723 607 1020 c 0
 607 1043 605 1069 601 1099 c 1
 726 1099 l 1
 731 1051 736 987 736 937 c 0
EndSplineSet
EndChar

StartChar: quotedbl
Encoding: 34 34 240
Width: 720
VWidth: 0
GlyphClass: 2
Flags: HW
LayerCount: 2
UndoRedoHistory
Layer: 1
Undoes
EndUndoes
Redoes
EndRedoes
EndUndoRedoHistory
Fore
SplineSet
439 989 m 1
 403 1451 l 1
 569 1451 l 1
 569 989 l 1
 439 989 l 1
150 989 m 1
 114 1451 l 1
 281 1451 l 1
 281 989 l 1
 150 989 l 1
EndSplineSet
EndChar

StartChar: quotedblbase
Encoding: 8222 8222 241
Width: 1024
VWidth: 0
GlyphClass: 2
Flags: HW
LayerCount: 2
UndoRedoHistory
Layer: 1
Undoes
EndUndoes
Redoes
EndRedoes
EndUndoRedoHistory
Fore
SplineSet
537 -238 m 1
 641 201 l 1
 824 201 l 1
 670 -238 l 1
 537 -238 l 1
178 -238 m 1
 283 201 l 1
 465 201 l 1
 312 -238 l 1
 178 -238 l 1
EndSplineSet
EndChar

StartChar: quotedblleft
Encoding: 8220 8220 242
Width: 1024
VWidth: 0
GlyphClass: 2
Flags: HW
LayerCount: 2
UndoRedoHistory
Layer: 1
Undoes
EndUndoes
Redoes
EndRedoes
EndUndoRedoHistory
Fore
SplineSet
528 1023 m 1
 682 1463 l 1
 815 1463 l 1
 711 1023 l 1
 528 1023 l 1
179 1023 m 1
 333 1463 l 1
 466 1463 l 1
 361 1023 l 1
 179 1023 l 1
EndSplineSet
EndChar

StartChar: quotedblright
Encoding: 8221 8221 243
Width: 1024
VWidth: 0
GlyphClass: 2
Flags: HW
LayerCount: 2
UndoRedoHistory
Layer: 1
Undoes
EndUndoes
Redoes
EndRedoes
EndUndoRedoHistory
Fore
SplineSet
534 1023 m 1
 639 1463 l 1
 821 1463 l 1
 667 1023 l 1
 534 1023 l 1
208 1023 m 1
 312 1463 l 1
 494 1463 l 1
 341 1023 l 1
 208 1023 l 1
EndSplineSet
EndChar

StartChar: quoteleft
Encoding: 8216 8216 244
Width: 553
VWidth: 0
GlyphClass: 2
Flags: HW
LayerCount: 2
UndoRedoHistory
Layer: 1
Undoes
EndUndoes
Redoes
EndRedoes
EndUndoRedoHistory
Fore
SplineSet
130 1023 m 1
 284 1463 l 1
 416 1463 l 1
 312 1023 l 1
 130 1023 l 1
EndSplineSet
EndChar

StartChar: quoteright
Encoding: 8217 8217 245
Width: 553
VWidth: 0
GlyphClass: 2
Flags: HW
LayerCount: 2
UndoRedoHistory
Layer: 1
Undoes
EndUndoes
Redoes
EndRedoes
EndUndoRedoHistory
Fore
SplineSet
140 1023 m 1
 245 1463 l 1
 426 1463 l 1
 272 1023 l 1
 140 1023 l 1
EndSplineSet
EndChar

StartChar: quotesinglbase
Encoding: 8218 8218 246
Width: 553
VWidth: 0
GlyphClass: 2
Flags: HW
LayerCount: 2
UndoRedoHistory
Layer: 1
Undoes
EndUndoes
Redoes
EndRedoes
EndUndoRedoHistory
Fore
SplineSet
125 -238 m 1
 231 201 l 1
 412 201 l 1
 258 -238 l 1
 125 -238 l 1
EndSplineSet
EndChar

StartChar: quotesingle
Encoding: 39 39 247
Width: 554
VWidth: 0
GlyphClass: 2
Flags: HW
LayerCount: 2
UndoRedoHistory
Layer: 1
Undoes
EndUndoes
Redoes
EndRedoes
EndUndoRedoHistory
Fore
SplineSet
212 989 m 1
 176 1451 l 1
 342 1451 l 1
 342 989 l 1
 212 989 l 1
EndSplineSet
EndChar

StartChar: r
Encoding: 114 114 248
Width: 792
VWidth: 0
GlyphClass: 2
Flags: HW
LayerCount: 2
UndoRedoHistory
Layer: 1
Undoes
EndUndoes
Redoes
EndRedoes
EndUndoRedoHistory
Fore
SplineSet
90 974 m 1
 255 1026 l 1
 290 972 324 918 334 854 c 1
 388 961 497 1048 624 1048 c 0
 707 1048 742 1038 778 1028 c 1
 764 883 l 1
 747 889 704 907 619 907 c 0
 473 907 349 803 349 568 c 2
 349 0 l 1
 185 0 l 1
 185 699 l 2
 185 815 136 897 90 974 c 1
EndSplineSet
EndChar

StartChar: radical
Encoding: 8730 8730 249
Width: 1314
VWidth: 0
GlyphClass: 2
Flags: HW
LayerCount: 2
UndoRedoHistory
Layer: 1
Undoes
EndUndoes
Redoes
EndRedoes
EndUndoRedoHistory
Fore
SplineSet
611 -153 m 1
 279 690 l 1
 107 662 l 1
 87 774 l 1
 382 825 l 1
 611 214 l 1
 669 41 l 1
 709 217 l 1
 1082 1596 l 1
 1212 1596 l 1
 746 -153 l 1
 611 -153 l 1
EndSplineSet
EndChar

StartChar: rcaron
Encoding: 345 345 250
Width: 792
VWidth: 0
GlyphClass: 2
Flags: HW
LayerCount: 2
UndoRedoHistory
Layer: 1
Undoes
EndUndoes
Redoes
EndRedoes
EndUndoRedoHistory
Fore
SplineSet
90 974 m 1
 255 1026 l 1
 290 972 324 918 334 854 c 1
 388 961 497 1048 624 1048 c 0
 707 1048 742 1038 778 1028 c 1
 764 883 l 1
 747 889 704 907 619 907 c 0
 473 907 349 803 349 568 c 2
 349 0 l 1
 185 0 l 1
 185 699 l 2
 185 815 136 897 90 974 c 1
366 1173 m 1
 127 1496 l 1
 274 1496 l 1
 438 1281 l 1
 606 1496 l 1
 760 1496 l 1
 522 1173 l 1
 366 1173 l 1
EndSplineSet
EndChar

StartChar: rcommaaccent
Encoding: 343 343 251
Width: 792
VWidth: 0
GlyphClass: 2
Flags: HW
LayerCount: 2
UndoRedoHistory
Layer: 1
Undoes
EndUndoes
Redoes
EndRedoes
EndUndoRedoHistory
Fore
SplineSet
254 -625 m 1
 361 -162 l 1
 548 -162 l 1
 385 -625 l 1
 254 -625 l 1
90 974 m 1
 255 1026 l 1
 290 972 324 918 334 854 c 1
 388 961 497 1048 624 1048 c 0
 707 1048 742 1038 778 1028 c 1
 764 883 l 1
 747 889 704 907 619 907 c 0
 473 907 349 803 349 568 c 2
 349 0 l 1
 185 0 l 1
 185 699 l 2
 185 815 136 897 90 974 c 1
EndSplineSet
EndChar

StartChar: registered
Encoding: 174 174 252
Width: 1829
VWidth: 0
GlyphClass: 2
Flags: HW
LayerCount: 2
UndoRedoHistory
Layer: 1
Undoes
EndUndoes
Redoes
EndRedoes
EndUndoRedoHistory
Fore
SplineSet
743 783 m 1
 868 783 l 2
 1006 783 1146 784 1146 920 c 0
 1146 1071 1019 1072 866 1072 c 2
 742 1072 l 1
 743 783 l 1
1396 270 m 0
 1505 372 1590 519 1590 724 c 0
 1590 924 1503 1077 1394 1180 c 0
 1283 1285 1116 1366 909 1366 c 0
 703 1366 537 1287 426 1182 c 0
 317 1079 230 926 230 727 c 0
 230 527 317 373 426 270 c 0
 538 164 705 85 913 85 c 0
 1126 85 1284 165 1396 270 c 0
340 192 m 0
 246 280 173 391 132 526 c 0
 113 590 103 657 103 726 c 0
 103 967 213 1139 341 1260 c 0
 474 1385 659 1483 908 1483 c 0
 1160 1483 1347 1383 1480 1258 c 0
 1573 1170 1647 1059 1688 924 c 0
 1707 860 1717 794 1717 725 c 0
 1717 485 1608 313 1480 192 c 0
 1348 67 1163 -32 914 -32 c 0
 662 -32 473 67 340 192 c 0
597 273 m 1
 597 1192 l 1
 870 1192 l 2
 1016 1192 1124 1170 1195 1126 c 0
 1266 1082 1301 1018 1301 935 c 0
 1301 775 1182 700 1036 681 c 1
 1113 609 1170 515 1231 418 c 0
 1258 375 1287 327 1320 273 c 1
 1152 273 l 1
 1029 485 l 2
 987 557 943 625 882 664 c 1
 745 664 l 1
 745 273 l 1
 597 273 l 1
EndSplineSet
EndChar

StartChar: ring
Encoding: 730 730 253
Width: 605
VWidth: 0
GlyphClass: 2
Flags: HW
LayerCount: 2
UndoRedoHistory
Layer: 1
Undoes
EndUndoes
Redoes
EndRedoes
EndUndoRedoHistory
Fore
SplineSet
410 1340 m 0
 410 1402 361 1445 299 1445 c 0
 239 1445 189 1400 189 1340 c 0
 189 1276 234 1235 299 1235 c 0
 359 1235 410 1280 410 1340 c 0
106 1264 m 0
 95 1287 90 1312 90 1339 c 0
 90 1431 150 1490 218 1516 c 0
 243 1526 271 1530 300 1530 c 0
 395 1530 464 1480 494 1414 c 0
 505 1391 510 1366 510 1340 c 0
 510 1249 448 1190 381 1164 c 0
 356 1154 329 1149 301 1149 c 0
 206 1149 137 1199 106 1264 c 0
EndSplineSet
EndChar

StartChar: s
Encoding: 115 115 254
Width: 896
VWidth: 0
GlyphClass: 2
Flags: HW
LayerCount: 2
UndoRedoHistory
Layer: 1
Undoes
EndUndoes
Redoes
EndRedoes
EndUndoRedoHistory
Fore
SplineSet
451 1048 m 0
 582 1048 691 1011 775 967 c 1
 731 832 l 1
 647 877 546 907 461 907 c 0
 345 907 273 859 273 776 c 0
 273 587 820 593 812 275 c 0
 808 99 674 -22 464 -22 c 0
 309 -22 182 30 108 71 c 1
 158 212 l 1
 235 153 352 116 452 116 c 0
 562 116 652 157 652 260 c 0
 652 470 105 451 111 771 c 0
 114 941 245 1048 451 1048 c 0
EndSplineSet
EndChar

StartChar: s.alt
Encoding: 65543 -1 255
Width: 1001
VWidth: 0
GlyphClass: 2
Flags: HW
LayerCount: 2
UndoRedoHistory
Layer: 1
Undoes
EndUndoes
Redoes
EndRedoes
EndUndoRedoHistory
Fore
SplineSet
114 90 m 1
 161 227 l 1
 236 170 396 112 529 112 c 0
 644 112 739 150 739 272 c 0
 739 404 555 431 448 463 c 0
 283 512 114 570 114 771 c 0
 114 967 294 1056 494 1056 c 0
 612 1056 736 1025 834 966 c 1
 787 844 l 1
 732 880 606 917 493 917 c 0
 382 917 285 881 285 774 c 0
 285 653 455 625 550 596 c 0
 710 547 902 492 902 284 c 0
 902 52 739 -26 552 -26 c 0
 396 -26 220 25 114 90 c 1
EndSplineSet
EndChar

StartChar: sacute
Encoding: 347 347 256
Width: 896
VWidth: 0
GlyphClass: 2
Flags: HW
LayerCount: 2
UndoRedoHistory
Layer: 1
Undoes
EndUndoes
Redoes
EndRedoes
EndUndoRedoHistory
Fore
SplineSet
451 1048 m 0
 582 1048 691 1011 775 967 c 1
 731 832 l 1
 647 877 546 907 461 907 c 0
 345 907 273 859 273 776 c 0
 273 587 820 593 812 275 c 0
 808 99 674 -22 464 -22 c 0
 309 -22 182 30 108 71 c 1
 158 212 l 1
 235 153 352 116 452 116 c 0
 562 116 652 157 652 260 c 0
 652 470 105 451 111 771 c 0
 114 941 245 1048 451 1048 c 0
429 1178 m 1
 655 1498 l 1
 867 1498 l 1
 559 1178 l 1
 429 1178 l 1
EndSplineSet
EndChar

StartChar: scaron
Encoding: 353 353 257
Width: 896
VWidth: 0
GlyphClass: 2
Flags: HW
LayerCount: 2
UndoRedoHistory
Layer: 1
Undoes
EndUndoes
Redoes
EndRedoes
EndUndoRedoHistory
Fore
SplineSet
451 1048 m 0
 582 1048 691 1011 775 967 c 1
 731 832 l 1
 647 877 546 907 461 907 c 0
 345 907 273 859 273 776 c 0
 273 587 820 593 812 275 c 0
 808 99 674 -22 464 -22 c 0
 309 -22 182 30 108 71 c 1
 158 212 l 1
 235 153 352 116 452 116 c 0
 562 116 652 157 652 260 c 0
 652 470 105 451 111 771 c 0
 114 941 245 1048 451 1048 c 0
417 1178 m 1
 178 1501 l 1
 325 1501 l 1
 489 1286 l 1
 657 1501 l 1
 811 1501 l 1
 573 1178 l 1
 417 1178 l 1
EndSplineSet
EndChar

StartChar: scommaaccent
Encoding: 537 537 258
Width: 896
VWidth: 0
GlyphClass: 2
Flags: HW
LayerCount: 2
UndoRedoHistory
Layer: 1
Undoes
EndUndoes
Redoes
EndRedoes
EndUndoRedoHistory
Fore
SplineSet
308 -625 m 1
 415 -162 l 1
 602 -162 l 1
 439 -625 l 1
 308 -625 l 1
451 1048 m 0
 582 1048 691 1011 775 967 c 1
 731 832 l 1
 647 877 546 907 461 907 c 0
 345 907 273 859 273 776 c 0
 273 587 820 593 812 275 c 0
 808 99 674 -22 464 -22 c 0
 309 -22 182 30 108 71 c 1
 158 212 l 1
 235 153 352 116 452 116 c 0
 562 116 652 157 652 260 c 0
 652 470 105 451 111 771 c 0
 114 941 245 1048 451 1048 c 0
EndSplineSet
EndChar

StartChar: section
Encoding: 167 167 259
Width: 1097
VWidth: 0
GlyphClass: 2
Flags: HW
LayerCount: 2
UndoRedoHistory
Layer: 1
Undoes
EndUndoes
Redoes
EndRedoes
EndUndoRedoHistory
Fore
SplineSet
720 668 m 0
 729 685 733 703 733 723 c 0
 733 846 575 868 495 912 c 1
 435 880 362 831 362 741 c 0
 362 653 434 616 498 587 c 0
 526 574 557 561 591 547 c 1
 640 578 693 615 720 668 c 0
212 4 m 1
 210 153 l 1
 293 116 373 89 477 89 c 0
 578 89 663 119 699 182 c 0
 710 201 715 221 715 243 c 0
 715 322 652 352 594 379 c 0
 568 391 538 404 505 418 c 2
 421 454 l 2
 327 494 240 547 202 640 c 0
 191 667 185 697 185 729 c 0
 185 859 286 931 374 975 c 1
 289 1027 221 1090 221 1217 c 0
 221 1416 403 1493 603 1493 c 0
 696 1493 757 1475 832 1452 c 1
 834 1304 l 1
 774 1332 692 1356 608 1356 c 0
 499 1356 393 1328 393 1221 c 0
 393 1140 448 1104 506 1072 c 0
 636 1001 812 957 886 832 c 0
 902 804 911 772 911 737 c 0
 911 606 808 531 725 480 c 1
 810 437 888 378 888 252 c 0
 888 146 831 76 765 30 c 0
 696 -18 595 -48 482 -48 c 0
 380 -48 288 -27 212 4 c 1
EndSplineSet
EndChar

StartChar: semicolon
Encoding: 59 59 260
Width: 540
VWidth: 0
GlyphClass: 2
Flags: HW
LayerCount: 2
UndoRedoHistory
Layer: 1
Undoes
EndUndoes
Redoes
EndRedoes
EndUndoRedoHistory
Fore
SplineSet
159 841 m 1
 206 1051 l 1
 376 1051 l 1
 376 841 l 1
 159 841 l 1
100 -256 m 1
 206 207 l 1
 394 207 l 1
 231 -256 l 1
 100 -256 l 1
EndSplineSet
EndChar

StartChar: seven
Encoding: 55 55 261
Width: 1196
VWidth: 0
GlyphClass: 2
Flags: HW
LayerCount: 2
UndoRedoHistory
Layer: 1
Undoes
EndUndoes
Redoes
EndRedoes
EndUndoRedoHistory
Fore
SplineSet
315 0 m 1
 895 1275 l 1
 117 1275 l 1
 117 1420 l 1
 1087 1420 l 1
 1087 1329 l 1
 501 0 l 1
 315 0 l 1
EndSplineSet
EndChar

StartChar: six
Encoding: 54 54 262
Width: 1248
VWidth: 0
GlyphClass: 2
Flags: HW
LayerCount: 2
UndoRedoHistory
Layer: 1
Undoes
EndUndoes
Redoes
EndRedoes
EndUndoRedoHistory
Fore
SplineSet
977 461 m 0
 977 634 899 822 645 821 c 0
 432 820 294 670 294 469 c 0
 294 292 404 127 639 127 c 0
 853 127 977 256 977 461 c 0
127 501 m 0
 99 890 262 1391 874 1484 c 1
 910 1338 l 1
 559 1291 361 1052 301 779 c 1
 366 901 555 957 665 957 c 0
 973 957 1144 737 1144 466 c 0
 1144 177 930 -22 641 -22 c 0
 286 -22 146 240 127 501 c 0
EndSplineSet
EndChar

StartChar: slash
Encoding: 47 47 263
Width: 717
VWidth: 0
GlyphClass: 2
Flags: HW
LayerCount: 2
UndoRedoHistory
Layer: 1
Undoes
EndUndoes
Redoes
EndRedoes
EndUndoRedoHistory
Fore
SplineSet
-47 -215 m 1
 590 1451 l 1
 757 1451 l 1
 116 -215 l 1
 -47 -215 l 1
EndSplineSet
EndChar

StartChar: sterling
Encoding: 163 163 265
Width: 1189
VWidth: 0
GlyphClass: 2
Flags: HW
LayerCount: 2
UndoRedoHistory
Layer: 1
Undoes
EndUndoes
Redoes
EndRedoes
EndUndoRedoHistory
Fore
SplineSet
115 0 m 1
 114 138 l 1
 218 199 297 272 297 440 c 2
 297 690 l 1
 114 690 l 1
 114 832 l 1
 296 832 l 1
 295 842 294 851 294 861 c 0
 294 1211 380 1448 733 1448 c 0
 876 1448 985 1418 1062 1357 c 1
 1010 1237 l 1
 940 1280 847 1307 736 1307 c 0
 528 1307 463 1156 463 947 c 1
 466 832 l 1
 798 832 l 1
 798 690 l 1
 468 690 l 1
 468 641 l 2
 468 476 466 305 411 194 c 0
 400 171 386 154 370 141 c 1
 1081 141 l 1
 1081 0 l 1
 115 0 l 1
EndSplineSet
EndChar

StartChar: summation
Encoding: 8721 8721 266
Width: 1264
VWidth: 0
GlyphClass: 2
Flags: HW
LayerCount: 2
UndoRedoHistory
Layer: 1
Undoes
EndUndoes
Redoes
EndRedoes
EndUndoRedoHistory
Fore
SplineSet
57 -329 m 1
 57 -239 l 1
 697 552 l 1
 79 1328 l 1
 79 1423 l 1
 1175 1423 l 1
 1175 1281 l 1
 325 1281 l 1
 898 561 l 1
 294 -181 l 1
 1220 -181 l 1
 1220 -329 l 1
 57 -329 l 1
EndSplineSet
EndChar

StartChar: t
Encoding: 116 116 267
Width: 821
VWidth: 0
GlyphClass: 2
Flags: HW
LayerCount: 2
UndoRedoHistory
Layer: 1
Undoes
EndUndoes
Redoes
EndRedoes
EndUndoRedoHistory
Fore
SplineSet
233 1298 m 1
 392 1345 l 1
 392 1026 l 1
 729 1026 l 1
 729 919 l 1
 392 919 l 1
 392 298 l 2
 392 173 449 119 579 119 c 0
 625 119 725 140 772 158 c 1
 791 35 l 1
 728 13 617 -8 560 -8 c 0
 328 -8 228 84 228 300 c 2
 228 919 l 1
 25 919 l 1
 25 1026 l 1
 233 1026 l 1
 233 1298 l 1
EndSplineSet
EndChar

StartChar: thorn
Encoding: 254 254 268
Width: 1239
VWidth: 0
GlyphClass: 2
Flags: HW
LayerCount: 2
UndoRedoHistory
Layer: 1
Undoes
EndUndoes
Redoes
EndRedoes
EndUndoRedoHistory
Fore
SplineSet
963 521 m 0
 963 745 875 917 650 917 c 0
 411 917 323 732 323 494 c 0
 323 321 389 195 506 138 c 0
 546 119 592 109 644 109 c 0
 870 109 963 296 963 521 c 0
158 -427 m 1
 158 1455 l 1
 325 1455 l 1
 325 882 l 1
 399 982 507 1051 668 1051 c 0
 912 1051 1054 916 1110 728 c 0
 1129 664 1139 598 1139 527 c 0
 1139 284 1037 106 874 22 c 0
 815 -8 747 -23 668 -23 c 0
 524 -23 409 30 323 135 c 1
 323 -427 l 1
 158 -427 l 1
EndSplineSet
EndChar

StartChar: three
Encoding: 51 51 269
Width: 1190
VWidth: 0
GlyphClass: 2
Flags: HW
LayerCount: 2
UndoRedoHistory
Layer: 1
Undoes
EndUndoes
Redoes
EndRedoes
EndUndoRedoHistory
Fore
SplineSet
108 223 m 1
 191 324 l 1
 239 199 357 119 528 119 c 0
 714 119 871 210 871 394 c 0
 871 615 686 678 462 672 c 2
 385 670 l 1
 383 813 l 1
 446 813 l 2
 664 813 826 869 826 1085 c 0
 826 1243 703 1306 544 1306 c 0
 384 1306 283 1236 219 1128 c 1
 121 1217 l 1
 181 1364 345 1449 550 1449 c 0
 793 1449 1010 1327 1010 1086 c 0
 1010 889 876 790 721 746 c 1
 900 710 1049 604 1049 391 c 0
 1049 115 796 -23 519 -23 c 0
 314 -23 145 55 108 223 c 1
EndSplineSet
EndChar

StartChar: threequarters
Encoding: 190 190 270
Width: 2455
VWidth: 0
GlyphClass: 2
Flags: HW
LayerCount: 2
UndoRedoHistory
Layer: 1
Undoes
EndUndoes
Redoes
EndRedoes
EndUndoRedoHistory
Fore
SplineSet
1675 910 m 1
 1914 910 l 1
 1914 1244 l 1
 1675 910 l 1
1914 615 m 1
 1914 803 l 1
 1536 803 l 1
 1536 894 l 1
 1902 1412 l 1
 2036 1412 l 1
 2036 910 l 1
 2145 910 l 1
 2155 803 l 1
 2034 803 l 1
 2034 615 l 1
 1914 615 l 1
603 683 m 1
 663 779 l 1
 719 727 779 701 844 701 c 0
 938 701 1019 745 1019 837 c 0
 1019 948 917 971 804 971 c 0
 797 971 783 970 774 970 c 2
 748 970 l 1
 748 1089 l 1
 797 1089 l 2
 898 1089 994 1110 994 1210 c 0
 994 1291 934 1322 853 1322 c 0
 771 1322 710 1284 661 1244 c 1
 629 1297 l 1
 -186 0 l 1
 -337 0 l 1
 568 1436 l 1
 717 1436 l 1
 697 1405 l 1
 743 1427 798 1441 855 1441 c 0
 974 1441 1062 1388 1104 1310 c 0
 1119 1282 1127 1250 1127 1213 c 0
 1127 1124 1082 1065 1020 1032 c 1
 1094 999 1148 937 1148 834 c 0
 1148 708 1062 634 964 603 c 0
 928 592 889 586 849 586 c 0
 742 586 660 626 603 683 c 1
EndSplineSet
EndChar

StartChar: tilde
Encoding: 732 732 271
Width: 663
VWidth: 0
GlyphClass: 2
Flags: HW
LayerCount: 2
UndoRedoHistory
Layer: 1
Undoes
EndUndoes
Redoes
EndRedoes
EndUndoRedoHistory
Fore
SplineSet
213 1413 m 0
 289 1413 346 1377 404 1356 c 0
 424 1349 444 1345 463 1345 c 0
 516 1345 543 1384 550 1435 c 1
 658 1435 l 1
 645 1322 587 1220 463 1220 c 0
 367 1220 305 1288 210 1288 c 0
 156 1288 126 1260 119 1203 c 1
 14 1203 l 1
 24 1319 89 1413 213 1413 c 0
EndSplineSet
EndChar

StartChar: trademark
Encoding: 8482 8482 272
Width: 1869
VWidth: 0
GlyphClass: 2
Flags: HW
LayerCount: 2
UndoRedoHistory
Layer: 1
Undoes
EndUndoes
Redoes
EndRedoes
EndUndoRedoHistory
Fore
SplineSet
323 686 m 1
 323 1350 l 1
 70 1350 l 1
 70 1451 l 1
 707 1451 l 1
 707 1350 l 1
 447 1350 l 1
 447 686 l 1
 323 686 l 1
819 686 m 1
 819 1451 l 1
 1009 1451 l 1
 1245 900 l 1
 1495 1451 l 1
 1675 1451 l 1
 1675 686 l 1
 1553 686 l 1
 1553 1281 l 1
 1279 686 l 1
 1199 686 l 1
 940 1280 l 1
 940 686 l 1
 819 686 l 1
EndSplineSet
EndChar

StartChar: two
Encoding: 50 50 273
Width: 1248
VWidth: 0
GlyphClass: 2
Flags: HW
LayerCount: 2
UndoRedoHistory
Layer: 1
Undoes
EndUndoes
Redoes
EndRedoes
EndUndoRedoHistory
Fore
SplineSet
99 0 m 1
 98 147 l 1
 255 297 432 456 583 616 c 0
 687 726 857 885 857 1071 c 0
 857 1228 731 1307 573 1307 c 0
 395 1307 285 1204 230 1078 c 1
 133 1175 l 1
 195 1342 357 1448 584 1448 c 0
 832 1448 1032 1323 1032 1078 c 0
 1032 806 773 590 623 442 c 0
 521 341 407 239 305 145 c 1
 1035 145 l 1
 1035 0 l 1
 99 0 l 1
EndSplineSet
EndChar

StartChar: u
Encoding: 117 117 274
Width: 1199
VWidth: 0
GlyphClass: 2
Flags: HW
LayerCount: 2
UndoRedoHistory
Layer: 1
Undoes
EndUndoes
Redoes
EndRedoes
EndUndoRedoHistory
Fore
SplineSet
850 1026 m 1
 1014 1026 l 1
 1014 302 l 2
 1014 156 1063 115 1155 135 c 1
 1139 -3 l 1
 982 -33 887 43 875 164 c 1
 798 40 680 -22 522 -22 c 0
 328 -22 137 80 145 365 c 2
 151 582 l 2
 160 901 92 1000 92 1000 c 1
 257 1026 l 1
 257 1026 325 941 316 595 c 2
 310 365 l 2
 305 169 426 116 547 116 c 0
 712 116 850 231 850 427 c 2
 850 1026 l 1
EndSplineSet
EndChar

StartChar: u.alt
Encoding: 65544 -1 275
Width: 1215
VWidth: 0
GlyphClass: 2
Flags: HW
LayerCount: 2
UndoRedoHistory
Layer: 1
Undoes
EndUndoes
Redoes
EndRedoes
EndUndoRedoHistory
Fore
SplineSet
159 379 m 2
 159 582 l 2
 159 871 120 1026 120 1026 c 1
 285 1026 l 1
 285 1026 324 911 324 595 c 2
 324 379 l 2
 324 183 434 118 555 118 c 0
 699 118 857 222 857 418 c 2
 857 1026 l 1
 1022 1026 l 1
 1022 286 l 2
 1022 170 1094 139 1146 139 c 1
 1111 -4 l 1
 1014 -4 916 44 889 155 c 1
 807 38 688 -24 530 -24 c 0
 336 -24 159 94 159 379 c 2
EndSplineSet
EndChar

StartChar: uacute
Encoding: 250 250 276
Width: 1199
VWidth: 0
GlyphClass: 2
Flags: HW
LayerCount: 2
UndoRedoHistory
Layer: 1
Undoes
EndUndoes
Redoes
EndRedoes
EndUndoRedoHistory
Fore
SplineSet
850 1026 m 1
 1014 1026 l 1
 1014 302 l 2
 1014 156 1063 115 1155 135 c 1
 1139 -3 l 1
 982 -33 887 43 875 164 c 1
 798 40 680 -22 522 -22 c 0
 328 -22 137 80 145 365 c 2
 151 582 l 2
 160 901 92 1000 92 1000 c 1
 257 1026 l 1
 257 1026 325 941 316 595 c 2
 310 365 l 2
 305 169 426 116 547 116 c 0
 712 116 850 231 850 427 c 2
 850 1026 l 1
526 1173 m 1
 752 1493 l 1
 964 1493 l 1
 656 1173 l 1
 526 1173 l 1
EndSplineSet
EndChar

StartChar: ucircumflex
Encoding: 251 251 277
Width: 1199
VWidth: 0
GlyphClass: 2
Flags: HW
LayerCount: 2
UndoRedoHistory
Layer: 1
Undoes
EndUndoes
Redoes
EndRedoes
EndUndoRedoHistory
Fore
SplineSet
850 1026 m 1
 1014 1026 l 1
 1014 302 l 2
 1014 156 1063 115 1155 135 c 1
 1139 -3 l 1
 982 -33 887 43 875 164 c 1
 798 40 680 -22 522 -22 c 0
 328 -22 137 80 145 365 c 2
 151 582 l 2
 160 901 92 1000 92 1000 c 1
 257 1026 l 1
 257 1026 325 941 316 595 c 2
 310 365 l 2
 305 169 426 116 547 116 c 0
 712 116 850 231 850 427 c 2
 850 1026 l 1
284 1173 m 1
 512 1497 l 1
 669 1497 l 1
 898 1173 l 1
 766 1173 l 1
 588 1389 l 1
 410 1173 l 1
 284 1173 l 1
EndSplineSet
EndChar

StartChar: udieresis
Encoding: 252 252 278
Width: 1199
VWidth: 0
GlyphClass: 2
Flags: HW
LayerCount: 2
UndoRedoHistory
Layer: 1
Undoes
EndUndoes
Redoes
EndRedoes
EndUndoRedoHistory
Fore
SplineSet
850 1026 m 1
 1014 1026 l 1
 1014 302 l 2
 1014 156 1063 115 1155 135 c 1
 1139 -3 l 1
 982 -33 887 43 875 164 c 1
 798 40 680 -22 522 -22 c 0
 328 -22 137 80 145 365 c 2
 151 582 l 2
 160 901 92 1000 92 1000 c 1
 257 1026 l 1
 257 1026 325 941 316 595 c 2
 310 365 l 2
 305 169 426 116 547 116 c 0
 712 116 850 231 850 427 c 2
 850 1026 l 1
675 1173 m 1
 675 1336 l 1
 839 1336 l 1
 839 1173 l 1
 675 1173 l 1
343 1173 m 1
 343 1336 l 1
 507 1336 l 1
 507 1173 l 1
 343 1173 l 1
EndSplineSet
EndChar

StartChar: ugrave
Encoding: 249 249 279
Width: 1199
VWidth: 0
GlyphClass: 2
Flags: HW
LayerCount: 2
UndoRedoHistory
Layer: 1
Undoes
EndUndoes
Redoes
EndRedoes
EndUndoRedoHistory
Fore
SplineSet
850 1026 m 1
 1014 1026 l 1
 1014 302 l 2
 1014 156 1063 115 1155 135 c 1
 1139 -3 l 1
 982 -33 887 43 875 164 c 1
 798 40 680 -22 522 -22 c 0
 328 -22 137 80 145 365 c 2
 151 582 l 2
 160 901 92 1000 92 1000 c 1
 257 1026 l 1
 257 1026 325 941 316 595 c 2
 310 365 l 2
 305 169 426 116 547 116 c 0
 712 116 850 231 850 427 c 2
 850 1026 l 1
526 1173 m 1
 194 1493 l 1
 408 1493 l 1
 655 1173 l 1
 526 1173 l 1
EndSplineSet
EndChar

StartChar: underscore
Encoding: 95 95 280
Width: 998
VWidth: 0
GlyphClass: 2
Flags: HW
LayerCount: 2
UndoRedoHistory
Layer: 1
Undoes
EndUndoes
Redoes
EndRedoes
EndUndoRedoHistory
Fore
SplineSet
-5 -273 m 1
 -5 -145 l 1
 998 -145 l 1
 998 -273 l 1
 -5 -273 l 1
EndSplineSet
EndChar

StartChar: uni00B2
Encoding: 178 178 283
Width: 1190
VWidth: 0
GlyphClass: 2
Flags: HW
LayerCount: 2
UndoRedoHistory
Layer: 1
Undoes
EndUndoes
Redoes
EndRedoes
EndUndoRedoHistory
Fore
SplineSet
283 604 m 1
 283 715 l 1
 389 812 495 908 584 1006 c 0
 621 1047 649 1084 670 1118 c 0
 691 1152 701 1183 701 1211 c 0
 701 1286 640 1323 561 1323 c 0
 466 1323 409 1262 376 1192 c 1
 291 1270 l 1
 334 1370 429 1440 567 1440 c 0
 685 1440 771 1388 810 1307 c 0
 823 1279 830 1248 830 1213 c 0
 830 1108 778 1033 724 968 c 0
 650 879 557 802 465 722 c 1
 829 722 l 1
 829 604 l 1
 283 604 l 1
EndSplineSet
EndChar

StartChar: uni00B3
Encoding: 179 179 284
Width: 1190
VWidth: 0
GlyphClass: 2
Flags: HW
LayerCount: 2
UndoRedoHistory
Layer: 1
Undoes
EndUndoes
Redoes
EndRedoes
EndUndoRedoHistory
Fore
SplineSet
235 683 m 1
 295 779 l 1
 351 727 411 701 476 701 c 0
 570 701 651 745 651 837 c 0
 651 948 549 971 436 971 c 0
 429 971 415 970 406 970 c 2
 380 970 l 1
 380 1089 l 1
 429 1089 l 2
 530 1089 626 1110 626 1210 c 0
 626 1291 566 1322 485 1322 c 0
 403 1322 342 1284 293 1244 c 1
 235 1340 l 1
 290 1394 383 1441 487 1441 c 0
 606 1441 694 1388 736 1310 c 0
 751 1282 759 1250 759 1213 c 0
 759 1124 714 1065 652 1032 c 1
 726 999 780 937 780 834 c 0
 780 708 694 634 596 603 c 0
 560 592 521 586 481 586 c 0
 374 586 292 626 235 683 c 1
EndSplineSet
EndChar

StartChar: uni00B9
Encoding: 185 185 285
Width: 1190
VWidth: 0
GlyphClass: 2
Flags: HW
LayerCount: 2
UndoRedoHistory
Layer: 1
Undoes
EndUndoes
Redoes
EndRedoes
EndUndoRedoHistory
Fore
SplineSet
270 604 m 1
 270 723 l 1
 392 723 l 1
 392 1008 l 2
 392 1067 391 1116 391 1168 c 2
 391 1271 l 1
 347 1248 289 1222 239 1203 c 1
 240 1333 l 1
 307 1354 356 1381 408 1412 c 1
 513 1427 l 1
 513 720 l 1
 635 720 l 1
 635 604 l 1
 270 604 l 1
EndSplineSet
EndChar

StartChar: uni0200
Encoding: 512 512 286
Width: 1425
VWidth: 0
GlyphClass: 2
Flags: HW
LayerCount: 2
UndoRedoHistory
Layer: 1
Undoes
EndUndoes
Redoes
EndRedoes
EndUndoRedoHistory
Fore
SplineSet
794 1604 m 1
 519 1917 l 1
 695 1917 l 1
 912 1604 l 1
 794 1604 l 1
525 1604 m 1
 249 1917 l 1
 425 1917 l 1
 645 1604 l 1
 525 1604 l 1
707 1298 m 1
 692 1252 670 1191 655 1149 c 1
 410 545 l 1
 994 545 l 1
 760 1150 l 1
 742 1192 721 1252 707 1298 c 1
617 1456 m 1
 802 1456 l 1
 1407 0 l 1
 1216 0 l 1
 1053 397 l 1
 355 397 l 1
 199 0 l 1
 13 0 l 1
 617 1456 l 1
EndSplineSet
EndChar

StartChar: uni0201
Encoding: 513 513 287
Width: 1205
VWidth: 0
GlyphClass: 2
Flags: HW
LayerCount: 2
UndoRedoHistory
Layer: 1
Undoes
EndUndoes
Redoes
EndRedoes
EndUndoRedoHistory
Fore
SplineSet
711 1174 m 1
 436 1487 l 1
 612 1487 l 1
 829 1174 l 1
 711 1174 l 1
442 1174 m 1
 166 1487 l 1
 342 1487 l 1
 562 1174 l 1
 442 1174 l 1
663 907 m 0
 421 907 260 723 260 448 c 0
 260 249 368 116 531 116 c 0
 728 116 859 261 859 453 c 2
 859 872 l 1
 817 893 739 907 663 907 c 0
666 1048 m 0
 800 1048 943 1014 1023 962 c 1
 1023 286 l 2
 1023 198 1073 139 1148 139 c 1
 1114 -4 l 1
 998 -4 905 64 882 166 c 1
 814 53 664 -22 506 -22 c 0
 256 -22 90 162 90 438 c 0
 90 804 320 1048 666 1048 c 0
EndSplineSet
EndChar

StartChar: uni0202
Encoding: 514 514 288
Width: 1425
VWidth: 0
GlyphClass: 2
Flags: HW
LayerCount: 2
UndoRedoHistory
Layer: 1
Undoes
EndUndoes
Redoes
EndRedoes
EndUndoRedoHistory
Fore
SplineSet
711 1884 m 0
 877 1884 978 1802 991 1648 c 1
 905 1648 l 1
 885 1732 806 1777 704 1777 c 0
 602 1777 529 1736 514 1648 c 1
 427 1648 l 1
 440 1808 540 1884 711 1884 c 0
707 1298 m 1
 692 1252 670 1191 655 1149 c 1
 410 545 l 1
 994 545 l 1
 760 1150 l 1
 742 1192 721 1252 707 1298 c 1
617 1456 m 1
 802 1456 l 1
 1407 0 l 1
 1216 0 l 1
 1053 397 l 1
 355 397 l 1
 199 0 l 1
 13 0 l 1
 617 1456 l 1
EndSplineSet
EndChar

StartChar: uni0203
Encoding: 515 515 289
Width: 1205
VWidth: 0
GlyphClass: 2
Flags: HW
LayerCount: 2
UndoRedoHistory
Layer: 1
Undoes
EndUndoes
Redoes
EndRedoes
EndUndoRedoHistory
Fore
SplineSet
628 1454 m 0
 794 1454 895 1372 908 1218 c 1
 822 1218 l 1
 802 1302 723 1347 621 1347 c 0
 519 1347 446 1306 431 1218 c 1
 344 1218 l 1
 357 1378 457 1454 628 1454 c 0
663 907 m 0
 421 907 260 723 260 448 c 0
 260 249 368 116 531 116 c 0
 728 116 859 261 859 453 c 2
 859 872 l 1
 817 893 739 907 663 907 c 0
666 1048 m 0
 800 1048 943 1014 1023 962 c 1
 1023 286 l 2
 1023 198 1073 139 1148 139 c 1
 1114 -4 l 1
 998 -4 905 64 882 166 c 1
 814 53 664 -22 506 -22 c 0
 256 -22 90 162 90 438 c 0
 90 804 320 1048 666 1048 c 0
EndSplineSet
EndChar

StartChar: uni0204
Encoding: 516 516 290
Width: 1187
VWidth: 0
GlyphClass: 2
Flags: HW
LayerCount: 2
UndoRedoHistory
Layer: 1
Undoes
EndUndoes
Redoes
EndRedoes
EndUndoRedoHistory
Fore
SplineSet
724 1604 m 1
 449 1917 l 1
 625 1917 l 1
 842 1604 l 1
 724 1604 l 1
455 1604 m 1
 179 1917 l 1
 355 1917 l 1
 575 1604 l 1
 455 1604 l 1
174 1456 m 1
 1041 1456 l 1
 1041 1308 l 1
 346 1308 l 1
 346 820 l 1
 1003 820 l 1
 1003 672 l 1
 346 672 l 1
 346 148 l 1
 1091 148 l 1
 1091 0 l 1
 174 0 l 1
 174 1456 l 1
EndSplineSet
EndChar

StartChar: uni0205
Encoding: 517 517 291
Width: 1070
VWidth: 0
GlyphClass: 2
Flags: HW
LayerCount: 2
UndoRedoHistory
Layer: 1
Undoes
EndUndoes
Redoes
EndRedoes
EndUndoRedoHistory
Fore
SplineSet
643 1174 m 1
 368 1487 l 1
 544 1487 l 1
 761 1174 l 1
 643 1174 l 1
374 1174 m 1
 98 1487 l 1
 274 1487 l 1
 494 1174 l 1
 374 1174 l 1
611 907 m 0
 445 907 270 786 270 539 c 0
 270 525 271 506 273 490 c 1
 581 534 801 594 801 755 c 0
 801 846 732 907 611 907 c 0
610 1048 m 0
 826 1048 964 918 964 751 c 0
 964 506 673 425 285 371 c 1
 325 219 471 116 619 116 c 0
 758 116 881 176 948 252 c 1
 1031 146 l 1
 931 43 779 -22 619 -22 c 0
 315 -22 90 187 90 516 c 0
 90 797 281 1048 610 1048 c 0
EndSplineSet
EndChar

StartChar: uni0206
Encoding: 518 518 292
Width: 1187
VWidth: 0
GlyphClass: 2
Flags: HW
LayerCount: 2
UndoRedoHistory
Layer: 1
Undoes
EndUndoes
Redoes
EndRedoes
EndUndoRedoHistory
Fore
SplineSet
641 1884 m 0
 807 1884 908 1802 921 1648 c 1
 835 1648 l 1
 815 1732 736 1777 634 1777 c 0
 532 1777 459 1736 444 1648 c 1
 357 1648 l 1
 370 1808 470 1884 641 1884 c 0
174 1456 m 1
 1041 1456 l 1
 1041 1308 l 1
 346 1308 l 1
 346 820 l 1
 1003 820 l 1
 1003 672 l 1
 346 672 l 1
 346 148 l 1
 1091 148 l 1
 1091 0 l 1
 174 0 l 1
 174 1456 l 1
EndSplineSet
EndChar

StartChar: uni0207
Encoding: 519 519 293
Width: 1070
VWidth: 0
GlyphClass: 2
Flags: HW
LayerCount: 2
UndoRedoHistory
Layer: 1
Undoes
EndUndoes
Redoes
EndRedoes
EndUndoRedoHistory
Fore
SplineSet
560 1454 m 0
 726 1454 827 1372 840 1218 c 1
 754 1218 l 1
 734 1302 655 1347 553 1347 c 0
 451 1347 378 1306 363 1218 c 1
 276 1218 l 1
 289 1378 389 1454 560 1454 c 0
611 907 m 0
 445 907 270 786 270 539 c 0
 270 525 271 506 273 490 c 1
 581 534 801 594 801 755 c 0
 801 846 732 907 611 907 c 0
610 1048 m 0
 826 1048 964 918 964 751 c 0
 964 506 673 425 285 371 c 1
 325 219 471 116 619 116 c 0
 758 116 881 176 948 252 c 1
 1031 146 l 1
 931 43 779 -22 619 -22 c 0
 315 -22 90 187 90 516 c 0
 90 797 281 1048 610 1048 c 0
EndSplineSet
EndChar

StartChar: uni0208
Encoding: 520 520 294
Width: 544
VWidth: 0
GlyphClass: 2
Flags: HW
LayerCount: 2
UndoRedoHistory
Layer: 1
Undoes
EndUndoes
Redoes
EndRedoes
EndUndoRedoHistory
Fore
SplineSet
353 1604 m 1
 78 1917 l 1
 254 1917 l 1
 471 1604 l 1
 353 1604 l 1
84 1604 m 1
 -192 1917 l 1
 -16 1917 l 1
 204 1604 l 1
 84 1604 l 1
186 1456 m 1
 358 1456 l 1
 358 0 l 1
 186 0 l 1
 186 1456 l 1
EndSplineSet
EndChar

StartChar: uni0209
Encoding: 521 521 295
Width: 503
VWidth: 0
GlyphClass: 2
Flags: HW
LayerCount: 2
UndoRedoHistory
Layer: 1
Undoes
EndUndoes
Redoes
EndRedoes
EndUndoRedoHistory
Fore
SplineSet
333 1174 m 1
 58 1487 l 1
 234 1487 l 1
 451 1174 l 1
 333 1174 l 1
64 1174 m 1
 -212 1487 l 1
 -36 1487 l 1
 184 1174 l 1
 64 1174 l 1
167 278 m 2
 167 1026 l 1
 332 1026 l 1
 332 283 l 2
 332 143 389 118 457 118 c 0
 487 118 545 128 580 141 c 1
 600 30 l 1
 550 10 481 -5 434 -5 c 0
 292 -5 167 67 167 278 c 2
EndSplineSet
EndChar

StartChar: uni020A
Encoding: 522 522 296
Width: 544
VWidth: 0
GlyphClass: 2
Flags: HW
LayerCount: 2
UndoRedoHistory
Layer: 1
Undoes
EndUndoes
Redoes
EndRedoes
EndUndoRedoHistory
Fore
SplineSet
270 1884 m 0
 436 1884 537 1802 550 1648 c 1
 464 1648 l 1
 444 1732 365 1777 263 1777 c 0
 161 1777 88 1736 73 1648 c 1
 -14 1648 l 1
 -1 1808 99 1884 270 1884 c 0
186 1456 m 1
 358 1456 l 1
 358 0 l 1
 186 0 l 1
 186 1456 l 1
EndSplineSet
EndChar

StartChar: uni020B
Encoding: 523 523 297
Width: 503
VWidth: 0
GlyphClass: 2
Flags: HW
LayerCount: 2
UndoRedoHistory
Layer: 1
Undoes
EndUndoes
Redoes
EndRedoes
EndUndoRedoHistory
Fore
SplineSet
250 1454 m 0
 416 1454 517 1372 530 1218 c 1
 444 1218 l 1
 424 1302 345 1347 243 1347 c 0
 141 1347 68 1306 53 1218 c 1
 -34 1218 l 1
 -21 1378 79 1454 250 1454 c 0
167 278 m 2
 167 1026 l 1
 332 1026 l 1
 332 283 l 2
 332 143 389 118 457 118 c 0
 487 118 545 128 580 141 c 1
 600 30 l 1
 550 10 481 -5 434 -5 c 0
 292 -5 167 67 167 278 c 2
EndSplineSet
EndChar

StartChar: uni020C
Encoding: 524 524 298
Width: 1660
VWidth: 0
GlyphClass: 2
Flags: HW
LayerCount: 2
UndoRedoHistory
Layer: 1
Undoes
EndUndoes
Redoes
EndRedoes
EndUndoRedoHistory
Fore
SplineSet
830 1331 m 0
 552 1331 296 1128 296 729 c 0
 296 434 436 246 621 168 c 1
 363 461 l 1
 539 461 l 1
 759 148 l 1
 679 148 l 1
 728 134 778 127 830 127 c 0
 882 127 932 134 981 148 c 1
 908 148 l 1
 633 461 l 1
 809 461 l 1
 1018 160 l 1
 1214 232 1364 423 1364 729 c 0
 1364 1128 1108 1331 830 1331 c 0
830 1483 m 0
 1304 1483 1548 1122 1548 728 c 0
 1548 336 1304 -25 830 -25 c 0
 356 -25 112 336 112 728 c 0
 112 1122 356 1483 830 1483 c 0
EndSplineSet
EndChar

StartChar: uni020D
Encoding: 525 525 299
Width: 1230
VWidth: 0
GlyphClass: 2
Flags: HW
LayerCount: 2
UndoRedoHistory
Layer: 1
Undoes
EndUndoes
Redoes
EndRedoes
EndUndoRedoHistory
Fore
SplineSet
702 1174 m 1
 427 1487 l 1
 603 1487 l 1
 820 1174 l 1
 702 1174 l 1
433 1174 m 1
 157 1487 l 1
 333 1487 l 1
 553 1174 l 1
 433 1174 l 1
621 907 m 0
 406 907 262 748 262 509 c 0
 262 273 406 116 622 116 c 0
 832 116 972 274 972 511 c 0
 972 749 832 907 621 907 c 0
621 1048 m 0
 934 1048 1142 834 1142 513 c 0
 1142 192 934 -22 622 -22 c 0
 304 -22 92 191 92 511 c 0
 92 833 304 1048 621 1048 c 0
EndSplineSet
EndChar

StartChar: uni020E
Encoding: 526 526 300
Width: 1660
VWidth: 0
GlyphClass: 2
Flags: HW
LayerCount: 2
UndoRedoHistory
Layer: 1
Undoes
EndUndoes
Redoes
EndRedoes
EndUndoRedoHistory
Fore
SplineSet
830 1331 m 0
 552 1331 296 1128 296 729 c 0
 296 477 398 304 543 210 c 1
 562 358 660 428 825 428 c 0
 988 428 1088 349 1104 201 c 1
 1256 293 1364 470 1364 729 c 0
 1364 1128 1108 1331 830 1331 c 0
830 1483 m 0
 1304 1483 1548 1122 1548 728 c 0
 1548 336 1304 -25 830 -25 c 0
 356 -25 112 336 112 728 c 0
 112 1122 356 1483 830 1483 c 0
572 192 m 1
 650 149 739 127 830 127 c 0
 921 127 1010 149 1088 192 c 1
 1019 192 l 1
 999 276 920 321 818 321 c 0
 716 321 643 280 628 192 c 1
 572 192 l 1
EndSplineSet
EndChar

StartChar: uni020F
Encoding: 527 527 301
Width: 1230
VWidth: 0
GlyphClass: 2
Flags: HW
LayerCount: 2
UndoRedoHistory
Layer: 1
Undoes
EndUndoes
Redoes
EndRedoes
EndUndoRedoHistory
Fore
SplineSet
619 1454 m 0
 785 1454 886 1372 899 1218 c 1
 813 1218 l 1
 793 1302 714 1347 612 1347 c 0
 510 1347 437 1306 422 1218 c 1
 335 1218 l 1
 348 1378 448 1454 619 1454 c 0
621 907 m 0
 406 907 262 748 262 509 c 0
 262 273 406 116 622 116 c 0
 832 116 972 274 972 511 c 0
 972 749 832 907 621 907 c 0
621 1048 m 0
 934 1048 1142 834 1142 513 c 0
 1142 192 934 -22 622 -22 c 0
 304 -22 92 191 92 511 c 0
 92 833 304 1048 621 1048 c 0
EndSplineSet
EndChar

StartChar: uni0210
Encoding: 528 528 302
Width: 1320
VWidth: 0
GlyphClass: 2
Flags: HW
LayerCount: 2
UndoRedoHistory
Layer: 1
Undoes
EndUndoes
Redoes
EndRedoes
EndUndoRedoHistory
Fore
SplineSet
740 1604 m 1
 465 1917 l 1
 641 1917 l 1
 858 1604 l 1
 740 1604 l 1
471 1604 m 1
 195 1917 l 1
 371 1917 l 1
 591 1604 l 1
 471 1604 l 1
623 1308 m 2
 346 1308 l 1
 346 799 l 1
 612 799 l 2
 809 799 986 859 986 1058 c 0
 986 1261 826 1308 623 1308 c 2
174 1456 m 1
 530 1456 l 2
 865 1456 1168 1410 1168 1074 c 0
 1168 867 1024 758 858 715 c 1
 994 670 1039 546 1093 410 c 2
 1256 0 l 1
 1068 0 l 1
 915 419 l 2
 862 564 812 652 616 652 c 2
 346 652 l 1
 346 0 l 1
 174 0 l 1
 174 1456 l 1
EndSplineSet
EndChar

StartChar: uni0211
Encoding: 529 529 303
Width: 792
VWidth: 0
GlyphClass: 2
Flags: HW
LayerCount: 2
UndoRedoHistory
Layer: 1
Undoes
EndUndoes
Redoes
EndRedoes
EndUndoRedoHistory
Fore
SplineSet
572 1174 m 1
 297 1487 l 1
 473 1487 l 1
 690 1174 l 1
 572 1174 l 1
303 1174 m 1
 27 1487 l 1
 203 1487 l 1
 423 1174 l 1
 303 1174 l 1
90 974 m 1
 255 1026 l 1
 290 972 324 918 334 854 c 1
 388 961 497 1048 624 1048 c 0
 707 1048 742 1038 778 1028 c 1
 764 883 l 1
 747 889 704 907 619 907 c 0
 473 907 349 803 349 568 c 2
 349 0 l 1
 185 0 l 1
 185 699 l 2
 185 815 136 897 90 974 c 1
EndSplineSet
EndChar

StartChar: uni0212
Encoding: 530 530 304
Width: 1320
VWidth: 0
GlyphClass: 2
Flags: HW
LayerCount: 2
UndoRedoHistory
Layer: 1
Undoes
EndUndoes
Redoes
EndRedoes
EndUndoRedoHistory
Fore
SplineSet
657 1884 m 0
 823 1884 924 1802 937 1648 c 1
 851 1648 l 1
 831 1732 752 1777 650 1777 c 0
 548 1777 475 1736 460 1648 c 1
 373 1648 l 1
 386 1808 486 1884 657 1884 c 0
623 1308 m 2
 346 1308 l 1
 346 799 l 1
 612 799 l 2
 809 799 986 859 986 1058 c 0
 986 1261 826 1308 623 1308 c 2
174 1456 m 1
 530 1456 l 2
 865 1456 1168 1410 1168 1074 c 0
 1168 867 1024 758 858 715 c 1
 994 670 1039 546 1093 410 c 2
 1256 0 l 1
 1068 0 l 1
 915 419 l 2
 862 564 812 652 616 652 c 2
 346 652 l 1
 346 0 l 1
 174 0 l 1
 174 1456 l 1
EndSplineSet
EndChar

StartChar: uni0213
Encoding: 531 531 305
Width: 792
VWidth: 0
GlyphClass: 2
Flags: HW
LayerCount: 2
UndoRedoHistory
Layer: 1
Undoes
EndUndoes
Redoes
EndRedoes
EndUndoRedoHistory
Fore
SplineSet
489 1454 m 0
 655 1454 756 1372 769 1218 c 1
 683 1218 l 1
 663 1302 584 1347 482 1347 c 0
 380 1347 307 1306 292 1218 c 1
 205 1218 l 1
 218 1378 318 1454 489 1454 c 0
90 974 m 1
 255 1026 l 1
 290 972 324 918 334 854 c 1
 388 961 497 1048 624 1048 c 0
 707 1048 742 1038 778 1028 c 1
 764 883 l 1
 747 889 704 907 619 907 c 0
 473 907 349 803 349 568 c 2
 349 0 l 1
 185 0 l 1
 185 699 l 2
 185 815 136 897 90 974 c 1
EndSplineSet
EndChar

StartChar: uni0214
Encoding: 532 532 306
Width: 1473
VWidth: 0
GlyphClass: 2
Flags: HW
LayerCount: 2
UndoRedoHistory
Layer: 1
Undoes
EndUndoes
Redoes
EndRedoes
EndUndoRedoHistory
Fore
SplineSet
820 1604 m 1
 545 1917 l 1
 721 1917 l 1
 938 1604 l 1
 820 1604 l 1
551 1604 m 1
 275 1917 l 1
 451 1917 l 1
 671 1604 l 1
 551 1604 l 1
1138 1456 m 1
 1309 1456 l 1
 1309 551 l 1
 1307 191 1111 -22 749 -22 c 0
 365 -22 164 157 164 541 c 2
 164 1456 l 1
 336 1456 l 1
 336 546 l 2
 336 260 475 123 747 123 c 0
 999 123 1138 279 1138 539 c 2
 1138 1456 l 1
EndSplineSet
EndChar

StartChar: uni0215
Encoding: 533 533 307
Width: 1199
VWidth: 0
GlyphClass: 2
Flags: HW
LayerCount: 2
UndoRedoHistory
Layer: 1
Undoes
EndUndoes
Redoes
EndRedoes
EndUndoRedoHistory
Fore
SplineSet
681 1174 m 1
 406 1487 l 1
 582 1487 l 1
 799 1174 l 1
 681 1174 l 1
412 1174 m 1
 136 1487 l 1
 312 1487 l 1
 532 1174 l 1
 412 1174 l 1
850 1026 m 1
 1014 1026 l 1
 1014 302 l 2
 1014 156 1063 115 1155 135 c 1
 1139 -3 l 1
 982 -33 887 43 875 164 c 1
 798 40 680 -22 522 -22 c 0
 328 -22 137 80 145 365 c 2
 151 582 l 2
 160 901 92 1000 92 1000 c 1
 257 1026 l 1
 257 1026 325 941 316 595 c 2
 310 365 l 2
 305 169 426 116 547 116 c 0
 712 116 850 231 850 427 c 2
 850 1026 l 1
EndSplineSet
EndChar

StartChar: uni0216
Encoding: 534 534 308
Width: 1473
VWidth: 0
GlyphClass: 2
Flags: HW
LayerCount: 2
UndoRedoHistory
Layer: 1
Undoes
EndUndoes
Redoes
EndRedoes
EndUndoRedoHistory
Fore
SplineSet
737 1884 m 0
 903 1884 1004 1802 1017 1648 c 1
 931 1648 l 1
 911 1732 832 1777 730 1777 c 0
 628 1777 555 1736 540 1648 c 1
 453 1648 l 1
 466 1808 566 1884 737 1884 c 0
1138 1456 m 1
 1309 1456 l 1
 1309 551 l 1
 1307 191 1111 -22 749 -22 c 0
 365 -22 164 157 164 541 c 2
 164 1456 l 1
 336 1456 l 1
 336 546 l 2
 336 260 475 123 747 123 c 0
 999 123 1138 279 1138 539 c 2
 1138 1456 l 1
EndSplineSet
EndChar

StartChar: uni0217
Encoding: 535 535 309
Width: 1199
VWidth: 0
GlyphClass: 2
Flags: HW
LayerCount: 2
UndoRedoHistory
Layer: 1
Undoes
EndUndoes
Redoes
EndRedoes
EndUndoRedoHistory
Fore
SplineSet
598 1454 m 0
 764 1454 865 1372 878 1218 c 1
 792 1218 l 1
 772 1302 693 1347 591 1347 c 0
 489 1347 416 1306 401 1218 c 1
 314 1218 l 1
 327 1378 427 1454 598 1454 c 0
850 1026 m 1
 1014 1026 l 1
 1014 302 l 2
 1014 156 1063 115 1155 135 c 1
 1139 -3 l 1
 982 -33 887 43 875 164 c 1
 798 40 680 -22 522 -22 c 0
 328 -22 137 80 145 365 c 2
 151 582 l 2
 160 901 92 1000 92 1000 c 1
 257 1026 l 1
 257 1026 325 941 316 595 c 2
 310 365 l 2
 305 169 426 116 547 116 c 0
 712 116 850 231 850 427 c 2
 850 1026 l 1
EndSplineSet
EndChar

StartChar: uni021A
Encoding: 538 538 310
Width: 1161
VWidth: 0
GlyphClass: 2
Flags: HW
LayerCount: 2
UndoRedoHistory
Layer: 1
Undoes
EndUndoes
Redoes
EndRedoes
EndUndoRedoHistory
Fore
SplineSet
432 -625 m 1
 539 -162 l 1
 726 -162 l 1
 563 -625 l 1
 432 -625 l 1
24 1456 m 1
 1137 1456 l 1
 1137 1308 l 1
 665 1308 l 1
 665 0 l 1
 493 0 l 1
 493 1308 l 1
 24 1308 l 1
 24 1456 l 1
EndSplineSet
EndChar

StartChar: uni021B
Encoding: 539 539 311
Width: 821
VWidth: 0
GlyphClass: 2
Flags: HW
LayerCount: 2
UndoRedoHistory
Layer: 1
Undoes
EndUndoes
Redoes
EndRedoes
EndUndoRedoHistory
Fore
SplineSet
407 -625 m 1
 514 -162 l 1
 701 -162 l 1
 538 -625 l 1
 407 -625 l 1
233 1298 m 1
 392 1345 l 1
 392 1026 l 1
 729 1026 l 1
 729 919 l 1
 392 919 l 1
 392 298 l 2
 392 173 449 119 579 119 c 0
 625 119 725 140 772 158 c 1
 791 35 l 1
 728 13 617 -8 560 -8 c 0
 328 -8 228 84 228 300 c 2
 228 919 l 1
 25 919 l 1
 25 1026 l 1
 233 1026 l 1
 233 1298 l 1
EndSplineSet
EndChar

StartChar: uni0237
Encoding: 567 567 312
Width: 503
VWidth: 0
GlyphClass: 2
Flags: HW
LayerCount: 2
UndoRedoHistory
Layer: 1
Undoes
EndUndoes
Redoes
EndRedoes
EndUndoRedoHistory
Fore
SplineSet
-101 -416 m 1
 -102 -273 l 1
 -72 -278 -48 -283 -18 -283 c 0
 138 -283 175 -146 175 31 c 2
 175 1026 l 1
 340 1026 l 1
 340 73 l 2
 340 -150 296 -339 140 -407 c 0
 106 -422 67 -429 21 -429 c 0
 -23 -429 -63 -425 -101 -416 c 1
EndSplineSet
EndChar

StartChar: uni0307
Encoding: 775 775 313
Width: 524
VWidth: 0
GlyphClass: 2
Flags: HW
LayerCount: 2
UndoRedoHistory
Layer: 1
Undoes
EndUndoes
Redoes
EndRedoes
EndUndoRedoHistory
Fore
SplineSet
184 1246 m 1
 184 1409 l 1
 344 1409 l 1
 344 1246 l 1
 184 1246 l 1
EndSplineSet
EndChar

StartChar: uni0311
Encoding: 785 785 314
Width: 629
VWidth: 0
GlyphClass: 2
Flags: HW
LayerCount: 2
UndoRedoHistory
Layer: 1
Undoes
EndUndoes
Redoes
EndRedoes
EndUndoRedoHistory
Fore
SplineSet
316 1454 m 0
 482 1454 583 1372 596 1218 c 1
 510 1218 l 1
 490 1302 411 1347 309 1347 c 0
 207 1347 134 1306 119 1218 c 1
 32 1218 l 1
 45 1378 145 1454 316 1454 c 0
EndSplineSet
EndChar

StartChar: uni03A9
Encoding: 937 937 315
Width: 1603
VWidth: 0
GlyphClass: 2
Flags: HW
LayerCount: 2
UndoRedoHistory
Layer: 1
Undoes
EndUndoes
Redoes
EndRedoes
EndUndoRedoHistory
Fore
SplineSet
104 0 m 1
 93 138 l 1
 435 137 l 1
 295 240 186 385 138 578 c 0
 122 640 114 707 114 776 c 0
 114 994 196 1157 312 1266 c 0
 426 1374 596 1449 809 1449 c 0
 1026 1449 1191 1368 1300 1254 c 0
 1406 1143 1481 980 1481 772 c 0
 1481 621 1437 498 1381 398 c 0
 1323 296 1242 206 1155 137 c 1
 1483 138 l 1
 1474 0 l 1
 953 0 l 1
 949 121 l 1
 1099 221 1221 367 1276 560 c 0
 1294 622 1303 687 1303 754 c 0
 1303 1004 1194 1181 1022 1264 c 0
 960 1294 887 1309 804 1309 c 0
 555 1309 399 1168 330 982 c 0
 305 914 293 840 293 759 c 0
 293 531 386 361 500 240 c 0
 543 195 590 155 642 121 c 1
 645 0 l 1
 104 0 l 1
EndSplineSet
EndChar

StartChar: uni03BC
Encoding: 956 956 316
Width: 1217
VWidth: 0
GlyphClass: 2
Flags: HW
LayerCount: 2
UndoRedoHistory
Layer: 1
Undoes
EndUndoes
Redoes
EndRedoes
EndUndoRedoHistory
Fore
SplineSet
157 -202 m 1
 157 1026 l 1
 322 1026 l 1
 322 399 l 2
 322 214 396 109 578 109 c 0
 729 109 820 196 858 310 c 0
 871 350 878 392 878 436 c 2
 878 1026 l 1
 1043 1026 l 1
 1043 246 l 2
 1043 156 1044 84 1051 0 c 1
 881 0 l 1
 878 135 l 1
 801 30 688 -23 540 -23 c 0
 449 -23 379 -3 322 31 c 1
 322 -202 l 1
 157 -202 l 1
EndSplineSet
EndChar

StartChar: uni2074
Encoding: 8308 8308 317
Width: 897
VWidth: 0
GlyphClass: 2
Flags: HW
LayerCount: 2
UndoRedoHistory
Layer: 1
Undoes
EndUndoes
Redoes
EndRedoes
EndUndoRedoHistory
Fore
SplineSet
117 910 m 1
 356 910 l 1
 356 1244 l 1
 117 910 l 1
356 615 m 1
 356 803 l 1
 -22 803 l 1
 -22 894 l 1
 344 1412 l 1
 478 1412 l 1
 478 910 l 1
 587 910 l 1
 597 803 l 1
 476 803 l 1
 476 615 l 1
 356 615 l 1
EndSplineSet
EndChar

StartChar: uniF6C3
Encoding: 63171 63171 318
Width: 599
VWidth: 0
GlyphClass: 2
Flags: HW
LayerCount: 2
UndoRedoHistory
Layer: 1
Undoes
EndUndoes
Redoes
EndRedoes
EndUndoRedoHistory
Fore
SplineSet
110 -603 m 1
 217 -140 l 1
 404 -140 l 1
 241 -603 l 1
 110 -603 l 1
EndSplineSet
EndChar

StartChar: uniFB01
Encoding: 64257 64257 319
Width: 1205
VWidth: 0
GlyphClass: 2
Flags: HW
LayerCount: 2
UndoRedoHistory
Layer: 1
Undoes
EndUndoes
Redoes
EndRedoes
EndUndoRedoHistory
Fore
SplineSet
877 1307 m 1
 877 1462 l 1
 1030 1462 l 1
 1030 1307 l 1
 877 1307 l 1
246 0 m 1
 246 919 l 1
 45 919 l 1
 45 1026 l 1
 246 1026 l 1
 248 1138 l 2
 251 1358 322 1514 545 1514 c 0
 600 1514 637 1503 681 1493 c 1
 683 1364 l 1
 657 1374 610 1379 573 1379 c 0
 438 1379 412 1297 412 1162 c 2
 411 1026 l 1
 1034 1026 l 1
 1034 0 l 1
 869 0 l 1
 869 919 l 1
 411 919 l 1
 411 0 l 1
 246 0 l 1
EndSplineSet
EndChar

StartChar: uniFB02
Encoding: 64258 64258 320
Width: 1385
VWidth: 0
GlyphClass: 2
Flags: HW
LayerCount: 2
UndoRedoHistory
Layer: 1
Undoes
EndUndoes
Redoes
EndRedoes
EndUndoRedoHistory
Fore
SplineSet
867 1496 m 1
 1031 1526 l 1
 1031 292 l 2
 1031 84 1218 77 1394 152 c 1
 1419 35 l 1
 1149 -82 867 -9 867 300 c 2
 867 1496 l 1
541 1532 m 0
 595 1532 655 1521 719 1499 c 1
 695 1392 l 1
 658 1401 620 1409 584 1409 c 0
 467 1409 417 1344 417 1193 c 2
 417 1026 l 1
 665 1026 l 1
 665 919 l 1
 417 919 l 1
 417 -11 l 2
 417 -261 330 -418 91 -449 c 1
 70 -328 l 1
 190 -299 253 -194 253 -34 c 2
 253 919 l 1
 51 919 l 1
 51 1026 l 1
 253 1026 l 1
 253 1170 l 2
 253 1423 339 1532 541 1532 c 0
EndSplineSet
EndChar

StartChar: v
Encoding: 118 118 321
Width: 1062
VWidth: 0
GlyphClass: 2
Flags: HW
LayerCount: 2
UndoRedoHistory
Layer: 1
Undoes
EndUndoes
Redoes
EndRedoes
EndUndoRedoHistory
Fore
SplineSet
869 1026 m 1
 1046 1026 l 1
 613 0 l 1
 445 0 l 1
 16 1026 l 1
 198 1026 l 1
 479 336 l 2
 498 290 521 217 537 163 c 1
 568 264 581 309 593 336 c 1
 869 1026 l 1
EndSplineSet
EndChar

StartChar: w
Encoding: 119 119 322
Width: 1688
VWidth: 0
GlyphClass: 2
Flags: HW
LayerCount: 2
UndoRedoHistory
Layer: 1
Undoes
EndUndoes
Redoes
EndRedoes
EndUndoRedoHistory
Fore
SplineSet
1493 1026 m 1
 1662 1026 l 1
 1294 0 l 1
 1134 0 l 1
 853 831 l 1
 553 0 l 1
 391 0 l 1
 26 1026 l 1
 202 1026 l 1
 451 284 l 2
 461 255 470 217 480 186 c 1
 490 214 499 249 511 276 c 1
 776 1026 l 1
 942 1026 l 1
 1190 286 l 2
 1200 258 1209 219 1219 189 c 1
 1232 219 1241 255 1253 287 c 1
 1493 1026 l 1
EndSplineSet
EndChar

StartChar: x
Encoding: 120 120 323
Width: 1087
VWidth: 0
GlyphClass: 2
Flags: HW
LayerCount: 2
UndoRedoHistory
Layer: 1
Undoes
EndUndoes
Redoes
EndRedoes
EndUndoRedoHistory
Fore
SplineSet
847 1026 m 1
 1026 1026 l 1
 648 518 l 1
 1039 0 l 1
 838 0 l 1
 542 408 l 1
 238 0 l 1
 48 0 l 1
 448 514 l 1
 67 1026 l 1
 270 1026 l 1
 558 626 l 1
 847 1026 l 1
EndSplineSet
EndChar

StartChar: y
Encoding: 121 121 324
Width: 1186
VWidth: 0
GlyphClass: 2
Flags: HW
LayerCount: 2
UndoRedoHistory
Layer: 1
Undoes
EndUndoes
Redoes
EndRedoes
EndUndoRedoHistory
Fore
SplineSet
862 1026 m 1
 1026 1026 l 1
 1026 302 l 1
 1026 -23 l 2
 1026 -306 826 -494 527 -494 c 0
 426 -494 292 -470 191 -433 c 1
 210 -280 l 1
 302 -326 424 -357 513 -357 c 0
 722 -357 862 -232 862 -44 c 2
 862 128 l 1
 785 28 676 -22 534 -22 c 0
 340 -22 149 80 157 365 c 2
 163 582 l 2
 172 901 104 1000 104 1000 c 1
 269 1026 l 1
 269 1026 337 941 328 595 c 2
 322 365 l 2
 317 169 438 116 559 116 c 0
 724 116 862 231 862 427 c 2
 862 1026 l 1
EndSplineSet
EndChar

StartChar: yacute
Encoding: 253 253 325
Width: 1186
VWidth: 0
GlyphClass: 2
Flags: HW
LayerCount: 2
UndoRedoHistory
Layer: 1
Undoes
EndUndoes
Redoes
EndRedoes
EndUndoRedoHistory
Fore
SplineSet
862 1026 m 1
 1026 1026 l 1
 1026 302 l 1
 1026 -23 l 2
 1026 -306 826 -494 527 -494 c 0
 426 -494 292 -470 191 -433 c 1
 210 -280 l 1
 302 -326 424 -357 513 -357 c 0
 722 -357 862 -232 862 -44 c 2
 862 128 l 1
 785 28 676 -22 534 -22 c 0
 340 -22 149 80 157 365 c 2
 163 582 l 2
 172 901 104 1000 104 1000 c 1
 269 1026 l 1
 269 1026 337 941 328 595 c 2
 322 365 l 2
 317 169 438 116 559 116 c 0
 724 116 862 231 862 427 c 2
 862 1026 l 1
535 1173 m 1
 761 1493 l 1
 973 1493 l 1
 665 1173 l 1
 535 1173 l 1
EndSplineSet
EndChar

StartChar: ydieresis
Encoding: 255 255 326
Width: 1186
VWidth: 0
GlyphClass: 2
Flags: HW
LayerCount: 2
UndoRedoHistory
Layer: 1
Undoes
EndUndoes
Redoes
EndRedoes
EndUndoRedoHistory
Fore
SplineSet
862 1026 m 1
 1026 1026 l 1
 1026 302 l 1
 1026 -23 l 2
 1026 -306 826 -494 527 -494 c 0
 426 -494 292 -470 191 -433 c 1
 210 -280 l 1
 302 -326 424 -357 513 -357 c 0
 722 -357 862 -232 862 -44 c 2
 862 128 l 1
 785 28 676 -22 534 -22 c 0
 340 -22 149 80 157 365 c 2
 163 582 l 2
 172 901 104 1000 104 1000 c 1
 269 1026 l 1
 269 1026 337 941 328 595 c 2
 322 365 l 2
 317 169 438 116 559 116 c 0
 724 116 862 231 862 427 c 2
 862 1026 l 1
684 1173 m 1
 684 1336 l 1
 848 1336 l 1
 848 1173 l 1
 684 1173 l 1
352 1173 m 1
 352 1336 l 1
 516 1336 l 1
 516 1173 l 1
 352 1173 l 1
EndSplineSet
EndChar

StartChar: yen
Encoding: 165 165 327
Width: 1266
VWidth: 0
GlyphClass: 2
Flags: HW
LayerCount: 2
UndoRedoHistory
Layer: 1
Undoes
EndUndoes
Redoes
EndRedoes
EndUndoRedoHistory
Fore
SplineSet
1061 1456 m 1
 1252 1456 l 1
 791 716 l 1
 1099 716 l 1
 1099 574 l 1
 709 574 l 1
 709 423 l 1
 1102 423 l 1
 1102 283 l 1
 709 283 l 1
 709 0 l 1
 537 0 l 1
 537 283 l 1
 147 283 l 1
 147 423 l 1
 537 423 l 1
 537 574 l 1
 141 574 l 1
 141 716 l 1
 455 716 l 1
 4 1456 l 1
 195 1456 l 1
 626 727 l 1
 1061 1456 l 1
EndSplineSet
EndChar

StartChar: z
Encoding: 122 122 328
Width: 979
VWidth: 0
GlyphClass: 2
Flags: HW
LayerCount: 2
UndoRedoHistory
Layer: 1
Undoes
EndUndoes
Redoes
EndRedoes
EndUndoRedoHistory
Fore
SplineSet
106 1026 m 1
 903 1026 l 1
 903 939 l 1
 305 134 l 1
 920 134 l 1
 920 0 l 1
 80 0 l 1
 80 89 l 1
 680 891 l 1
 106 891 l 1
 106 1026 l 1
EndSplineSet
EndChar

StartChar: zacute
Encoding: 378 378 329
Width: 979
VWidth: 0
GlyphClass: 2
Flags: HW
LayerCount: 2
UndoRedoHistory
Layer: 1
Undoes
EndUndoes
Redoes
EndRedoes
EndUndoRedoHistory
Fore
SplineSet
106 1026 m 1
 903 1026 l 1
 903 939 l 1
 305 134 l 1
 920 134 l 1
 920 0 l 1
 80 0 l 1
 80 89 l 1
 680 891 l 1
 106 891 l 1
 106 1026 l 1
445 1173 m 1
 671 1493 l 1
 883 1493 l 1
 575 1173 l 1
 445 1173 l 1
EndSplineSet
EndChar

StartChar: zcaron
Encoding: 382 382 330
Width: 979
VWidth: 0
GlyphClass: 2
Flags: HW
LayerCount: 2
UndoRedoHistory
Layer: 1
Undoes
EndUndoes
Redoes
EndRedoes
EndUndoRedoHistory
Fore
SplineSet
106 1026 m 1
 903 1026 l 1
 903 939 l 1
 305 134 l 1
 920 134 l 1
 920 0 l 1
 80 0 l 1
 80 89 l 1
 680 891 l 1
 106 891 l 1
 106 1026 l 1
432 1173 m 1
 193 1496 l 1
 340 1496 l 1
 504 1281 l 1
 672 1496 l 1
 826 1496 l 1
 588 1173 l 1
 432 1173 l 1
EndSplineSet
EndChar

StartChar: zdotaccent
Encoding: 380 380 331
Width: 979
VWidth: 0
GlyphClass: 2
Flags: HW
LayerCount: 2
UndoRedoHistory
Layer: 1
Undoes
EndUndoes
Redoes
EndRedoes
EndUndoRedoHistory
Fore
SplineSet
106 1026 m 1
 903 1026 l 1
 903 939 l 1
 305 134 l 1
 920 134 l 1
 920 0 l 1
 80 0 l 1
 80 89 l 1
 680 891 l 1
 106 891 l 1
 106 1026 l 1
430 1173 m 1
 430 1336 l 1
 590 1336 l 1
 590 1173 l 1
 430 1173 l 1
EndSplineSet
EndChar

StartChar: zero
Encoding: 48 48 332
Width: 1219
VWidth: 0
GlyphClass: 2
Flags: HW
LayerCount: 2
UndoRedoHistory
Layer: 1
Undoes
EndUndoes
Redoes
EndRedoes
EndUndoRedoHistory
Fore
SplineSet
104 710 m 0
 104 1103 222 1453 607 1453 c 0
 1012 1453 1115 1117 1115 710 c 0
 1115 325 986 -23 607 -23 c 0
 219 -23 104 319 104 710 c 0
931 710 m 0
 931 996 890 1312 607 1312 c 0
 341 1312 282 984 282 710 c 0
 282 423 323 119 607 119 c 0
 868 119 931 440 931 710 c 0
EndSplineSet
EndChar
